<svg width="780" height="780" viewBox="0 0 780 780" fill="none" xmlns="http://www.w3.org/2000/svg">
<g clip-path="url(#clip0_115_2)">
<path opacity="0.2" d="M213.571 780C190.142 779.999 167.164 773.569 147.137 761.411C127.111 749.253 110.804 731.833 99.9938 711.047C89.1835 690.262 84.2838 666.909 85.8284 643.532C87.3729 620.155 95.3026 597.65 108.754 578.468L182.019 473.923L166.153 472.149L142.004 484.102C131.77 489.037 120.57 491.643 109.209 491.732C98.8167 491.734 88.5417 489.539 79.0575 485.291C69.5733 481.044 61.0941 474.839 54.176 467.085C47.2579 459.33 42.0572 450.201 38.915 440.295C35.7727 430.39 34.7599 419.932 35.9429 409.608L38.8858 383.062L26.9326 358.898C21.3691 347.641 18.7697 335.15 19.3803 322.608C19.991 310.067 23.7915 297.888 30.4223 287.225C37.0531 276.562 46.2948 267.767 57.2732 261.672C68.2516 255.577 80.6034 252.384 93.1601 252.395H96.1634L100.32 252.744L127.958 255.823L136.513 251.591C127.79 237.517 124.07 220.912 125.955 204.461L128.898 177.916L116.975 153.782C111.397 142.534 108.782 130.049 109.378 117.509C109.974 104.968 113.761 92.7874 120.38 82.1196C127 71.4518 136.233 62.6503 147.205 56.5484C158.177 50.4465 170.525 47.2463 183.08 47.2508H186.388L217.969 50.6789L242.117 38.726C252.309 33.6979 263.52 31.0772 274.885 31.0658C285.239 31.0728 295.475 33.2583 304.929 37.4803C314.383 41.7024 322.843 47.8664 329.759 55.5719C336.674 63.2773 341.891 72.3517 345.07 82.2053C348.249 92.059 349.32 102.471 348.211 112.766L345.238 139.782L357.161 163.915C365.366 180.5 367.045 199.561 361.864 217.325L363.289 215.292L363.107 215.171L436.343 110.642C445.948 96.8448 458.196 85.0907 472.376 76.0607C486.556 67.0306 502.388 60.9042 518.953 58.0362C526.365 56.7288 533.876 56.069 541.403 56.0641C564.812 56.0841 587.768 62.5242 607.771 74.6835C627.775 86.8429 644.061 104.256 654.857 125.027C665.652 145.799 670.544 169.133 669 192.492C667.455 215.85 659.534 238.338 646.098 257.507L626.409 285.615L626.591 285.752L598.286 326.131L613.849 327.876L637.998 315.923C648.182 310.904 659.38 308.284 670.733 308.262C681.09 308.265 691.331 310.448 700.789 314.67C710.248 318.891 718.712 325.056 725.631 332.763C732.55 340.471 737.769 349.548 740.949 359.406C744.129 369.263 745.198 379.679 744.088 389.977L741.115 416.963L753.068 441.127C758.147 451.4 760.763 462.715 760.709 474.175C760.655 485.634 757.932 496.924 752.757 507.149C747.581 517.374 740.095 526.252 730.892 533.081C721.689 539.91 711.021 544.501 699.735 546.49L694.396 547.446L686.811 547.628C684.475 547.628 682.139 547.506 679.773 547.294L652.014 544.2L627.926 556.153C617.688 561.108 606.474 563.715 595.101 563.782C584.709 563.784 574.434 561.589 564.95 557.341C555.466 553.093 546.987 546.888 540.069 539.134C533.151 531.38 527.951 522.25 524.808 512.345C521.666 502.44 520.652 491.982 521.835 481.658L524.777 455.112L517.8 440.975L318.449 725.392C306.639 742.249 290.942 756.013 272.686 765.519C254.43 775.024 234.153 779.991 213.571 780ZM262.353 359.32L334.557 256.277C325.454 262.908 314.95 267.361 303.855 269.292L298.516 270.248L290.962 270.43C288.565 270.43 286.169 270.309 283.772 270.081L256.134 267.017L247.609 271.234C256.332 285.309 260.052 301.914 258.167 318.365L255.225 344.91L262.353 359.32Z" fill="#1A1A1A"/>
<path d="M747.394 485.041C741.857 493.008 734.793 499.797 726.611 505.013C718.429 510.229 709.293 513.767 699.733 515.424L694.394 516.38L686.809 516.562C684.473 516.562 682.137 516.44 679.771 516.228L652.012 513.133L627.923 525.087C617.686 530.042 606.472 532.649 595.098 532.717C584.707 532.718 574.432 530.523 564.948 526.275C555.464 522.027 546.985 515.822 540.067 508.068C533.149 500.314 527.949 491.184 524.806 481.279C521.664 471.374 520.65 460.916 521.833 450.592L524.775 424.047L517.798 409.909L318.448 694.326C308.807 708.112 296.545 719.863 282.361 728.907C268.176 737.951 252.349 744.111 235.783 747.035C219.217 749.959 202.237 749.589 185.813 745.947C169.39 742.304 153.846 735.461 140.069 725.808C126.292 716.155 114.552 703.881 105.522 689.689C96.4906 675.496 90.3454 659.663 87.437 643.094C84.5287 626.525 84.9143 609.546 88.5718 593.126C92.2293 576.706 99.087 561.168 108.753 547.4L182.019 442.856L166.152 441.081L142.003 453.034C131.769 457.97 120.569 460.575 109.208 460.664C98.8159 460.666 88.5408 458.472 79.0566 454.224C69.5724 449.976 61.0932 443.772 54.1751 436.017C47.257 428.263 42.0563 419.133 38.9141 409.228C35.7719 399.322 34.7591 388.864 35.9421 378.54L38.885 351.994L26.9318 327.83C21.3687 316.573 18.7695 304.083 19.3804 291.542C19.9912 279 23.7918 266.822 30.4225 256.159C37.0533 245.496 46.2949 236.701 57.2731 230.606C68.2513 224.512 80.6029 221.319 93.1593 221.33H96.1627L100.319 221.678L127.957 224.758L136.512 220.525C127.789 206.451 124.069 189.846 125.954 173.396L128.897 146.85L116.974 122.716C111.396 111.469 108.781 98.9837 109.377 86.443C109.973 73.9023 113.76 61.7213 120.38 51.0535C126.999 40.3856 136.233 31.5841 147.205 25.4822C158.177 19.3804 170.526 16.1803 183.08 16.185H186.387L217.968 19.6131L242.118 7.66025C252.31 2.63259 263.52 0.011858 274.884 0C285.238 0.00688838 295.475 2.19235 304.929 6.41435C314.383 10.6363 322.842 16.8004 329.758 24.5059C336.674 32.2113 341.891 41.2858 345.07 51.1395C348.249 60.9931 349.319 71.4055 348.211 81.6998L345.237 108.715L357.16 132.849C365.365 149.434 367.042 168.495 361.861 186.257L363.287 184.225L363.105 184.104L436.34 79.5746C445.946 65.7777 458.193 54.0239 472.374 44.9941C486.554 35.9643 502.385 29.8382 518.95 26.9704C526.362 25.6631 533.874 25.0032 541.4 24.9983C564.81 25.0184 587.765 31.4584 607.769 43.6177C627.773 55.7771 644.058 73.1899 654.854 93.9614C665.649 114.733 670.541 138.068 668.997 161.426C667.453 184.784 659.532 207.272 646.096 226.441L626.407 254.549L626.589 254.686L598.283 295.066L613.847 296.81L637.996 284.857C648.18 279.838 659.377 277.218 670.73 277.196C681.088 277.199 691.329 279.382 700.787 283.603C710.246 287.824 718.71 293.989 725.629 301.697C732.548 309.404 737.768 318.482 740.948 328.34C744.128 338.197 745.197 348.613 744.087 358.911L741.114 385.897L753.067 410.061C758.92 421.922 761.482 435.137 760.484 448.327C759.486 461.516 754.965 474.195 747.394 485.041Z" fill="#F2F2F2"/>
<path d="M557.63 244.436L449.665 168.838L487.211 115.216C497.261 100.961 512.551 91.2708 529.733 88.2696C546.914 85.2685 564.585 89.2008 578.872 99.2048C593.159 109.209 602.898 124.469 605.954 141.64C609.01 158.812 605.134 176.495 595.176 190.814L557.63 244.436ZM159.619 583.066C154.649 590.155 151.124 598.153 149.246 606.605C147.368 615.056 147.174 623.795 148.675 632.322C150.176 640.848 153.342 648.995 157.993 656.298C162.643 663.6 168.687 669.915 175.779 674.881C182.871 679.846 190.872 683.366 199.324 685.239C207.777 687.111 216.516 687.3 225.041 685.794C233.567 684.288 241.712 681.117 249.012 676.462C256.311 671.807 262.622 665.759 267.584 658.664L540.043 269.935L432.078 194.337L159.619 583.066ZM192.587 191.318C194.31 192.494 196.312 193.196 198.391 193.353C200.471 193.511 202.556 193.119 204.437 192.216L244.893 172.175L289.765 177.171C290.867 177.282 291.979 177.241 293.071 177.05C294.854 176.738 296.541 176.015 297.996 174.937C299.451 173.859 300.634 172.456 301.451 170.84C302.269 169.225 302.697 167.44 302.704 165.629C302.71 163.819 302.294 162.031 301.488 160.41L281.462 119.95L286.442 75.0808C286.675 73.0015 286.343 70.898 285.482 68.9911C284.621 67.0842 283.263 65.4442 281.55 64.2432C279.837 63.0422 277.832 62.3246 275.745 62.1656C273.659 62.0066 271.569 62.4121 269.693 63.3396L229.237 83.381L184.365 78.3855C182.285 78.1553 180.182 78.4892 178.276 79.352C176.37 80.2149 174.731 81.5749 173.532 83.2894C172.333 85.0039 171.617 87.0096 171.46 89.0959C171.303 91.1823 171.711 93.2725 172.64 95.147L192.667 135.607L187.688 180.475C187.457 182.556 187.79 184.66 188.652 186.568C189.514 188.476 190.873 190.116 192.587 191.318ZM114.428 397.358L154.885 377.317L199.756 382.312C200.858 382.424 201.971 382.383 203.062 382.192C204.846 381.88 206.532 381.157 207.987 380.079C209.442 379.001 210.625 377.598 211.443 375.982C212.26 374.366 212.689 372.582 212.695 370.771C212.702 368.961 212.286 367.173 211.48 365.552L191.453 325.093L196.434 280.223C196.666 278.144 196.334 276.041 195.473 274.134C194.612 272.227 193.254 270.587 191.541 269.387C189.828 268.186 187.823 267.468 185.737 267.309C183.651 267.15 181.56 267.555 179.685 268.482L139.228 288.524L94.3564 283.527C92.2769 283.297 90.1738 283.631 88.2678 284.494C86.3618 285.357 84.7233 286.717 83.5242 288.432C82.325 290.146 81.6095 292.152 81.4527 294.238C81.2959 296.324 81.7036 298.415 82.633 300.289L102.659 340.748L97.6786 385.617C97.4476 387.698 97.7807 389.802 98.6428 391.71C99.5049 393.617 100.864 395.258 102.579 396.459C104.301 397.637 106.302 398.34 108.383 398.498C110.463 398.656 112.548 398.263 114.428 397.358ZM677.335 397.143L682.316 352.274C682.548 350.195 682.216 348.092 681.355 346.185C680.494 344.278 679.136 342.638 677.423 341.437C675.71 340.236 673.705 339.518 671.619 339.359C669.533 339.2 667.442 339.606 665.567 340.533L625.11 360.574L580.238 355.579C578.159 355.349 576.056 355.683 574.15 356.546C572.244 357.409 570.605 358.769 569.406 360.483C568.207 362.198 567.491 364.203 567.335 366.29C567.178 368.376 567.585 370.466 568.515 372.34L588.541 412.8L583.56 457.669C583.329 459.75 583.662 461.854 584.524 463.762C585.387 465.669 586.746 467.31 588.46 468.511C590.18 469.696 592.182 470.403 594.264 470.561C596.345 470.719 598.432 470.321 600.31 469.41L640.767 449.369L685.638 454.364C686.741 454.475 687.853 454.435 688.944 454.243C690.728 453.932 692.414 453.208 693.869 452.13C695.324 451.052 696.507 449.65 697.325 448.034C698.142 446.418 698.571 444.634 698.577 442.823C698.584 441.012 698.167 439.225 697.361 437.603L677.335 397.143Z" fill="#00CA48"/>
</g>
<defs>
<clipPath id="clip0_115_2">
<rect width="780" height="780" fill="white"/>
</clipPath>
</defs>
</svg>
