<svg width="2592" height="564" viewBox="0 0 2592 564" fill="none" xmlns="http://www.w3.org/2000/svg">
<path d="M1755.82 230.867C1756.57 231.955 1757.04 232.771 1757.25 233.315C1757.45 233.791 1757.55 234.301 1757.55 234.845C1757.55 236.681 1755.75 237.599 1752.15 237.599H1749.7C1747.93 237.599 1746.61 237.565 1745.72 237.497C1744.84 237.361 1744.09 237.123 1743.48 236.783C1742.12 236.103 1740.62 234.539 1738.99 232.091L1724.91 210.875H1716.24V233.009C1716.24 234.709 1715.84 235.933 1715.02 236.681C1714.68 237.021 1714.17 237.259 1713.49 237.395C1712.81 237.531 1711.69 237.599 1710.12 237.599H1707.37C1705.74 237.599 1704.58 237.531 1703.9 237.395C1703.22 237.259 1702.68 236.987 1702.27 236.579C1701.59 235.899 1701.25 234.709 1701.25 233.009V170.789C1701.25 169.089 1701.59 167.899 1702.27 167.219C1702.68 166.811 1703.22 166.539 1703.9 166.403C1704.58 166.267 1705.74 166.199 1707.37 166.199H1729.4C1735.93 166.199 1741.27 166.981 1745.42 168.545C1749.29 170.041 1752.32 172.489 1754.49 175.889C1756.67 179.221 1757.76 183.165 1757.76 187.721C1757.76 192.549 1756.64 196.731 1754.39 200.267C1752.22 203.735 1749.09 206.251 1745.01 207.815C1743.38 208.427 1741.95 208.869 1740.72 209.141L1755.82 230.867ZM1716.24 178.847V198.941H1729.2C1730.97 198.941 1732.6 198.771 1734.09 198.431C1735.66 198.091 1736.92 197.683 1737.87 197.207C1740.79 195.711 1742.25 192.821 1742.25 188.537C1742.25 186.429 1741.88 184.763 1741.13 183.539C1740.45 182.247 1739.33 181.193 1737.77 180.377C1735.73 179.357 1732.87 178.847 1729.2 178.847H1716.24ZM1792.5 182.213C1799.37 182.213 1804.77 184.015 1808.72 187.619C1812.73 191.155 1814.73 196.017 1814.73 202.205V232.703C1814.73 234.675 1814.36 235.967 1813.61 236.579C1812.8 237.259 1811.3 237.599 1809.12 237.599H1806.37C1804.33 237.599 1802.87 237.225 1801.98 236.477C1801.64 236.137 1801.37 235.695 1801.17 235.151C1801.03 234.607 1800.96 233.791 1800.96 232.703V230.153C1797.7 235.933 1792.29 238.823 1784.75 238.823C1779.17 238.823 1774.68 237.327 1771.28 234.335C1767.88 231.343 1766.18 227.025 1766.18 221.381C1766.18 216.009 1768.02 212.133 1771.69 209.753C1775.36 207.305 1780.53 205.707 1787.19 204.959C1790.8 204.551 1793.52 204.177 1795.35 203.837C1797.19 203.429 1798.48 202.919 1799.23 202.307C1799.98 201.627 1800.35 200.743 1800.35 199.655C1800.35 197.819 1799.5 196.425 1797.8 195.473C1796.17 194.521 1793.76 194.045 1790.56 194.045C1786.48 194.045 1782.81 194.861 1779.54 196.493C1778.32 197.105 1777.4 197.547 1776.79 197.819C1776.25 198.023 1775.63 198.125 1774.95 198.125C1774.21 198.125 1773.56 197.887 1773.02 197.411C1772.47 196.935 1771.76 196.085 1770.87 194.861C1769.92 193.501 1769.45 192.141 1769.45 190.781C1769.45 189.761 1770.09 188.775 1771.38 187.823C1773.49 186.259 1776.42 184.933 1780.16 183.845C1783.96 182.757 1788.08 182.213 1792.5 182.213ZM1800.35 211.385C1799.26 211.997 1797.87 212.473 1796.17 212.813C1794.54 213.153 1792.36 213.527 1789.64 213.935C1786.38 214.479 1784 215.227 1782.5 216.179C1781.01 217.131 1780.26 218.661 1780.26 220.769C1780.26 223.285 1781.01 225.155 1782.5 226.379C1784.07 227.535 1786.21 228.113 1788.93 228.113C1792.12 228.113 1794.81 227.263 1796.99 225.563C1799.23 223.795 1800.35 221.381 1800.35 218.321V211.385ZM1861.58 230.969C1861.72 232.057 1861.79 232.975 1861.79 233.723C1861.79 234.879 1861.55 235.763 1861.07 236.375C1860.67 236.919 1859.88 237.361 1858.73 237.701C1856.28 238.313 1853.73 238.619 1851.08 238.619C1843.87 238.619 1838.87 236.987 1836.08 233.723C1833.3 230.459 1831.9 225.665 1831.9 219.341V195.167H1828.13C1825.54 195.167 1823.91 194.827 1823.23 194.147C1822.89 193.807 1822.62 193.365 1822.42 192.821C1822.28 192.209 1822.21 191.359 1822.21 190.271V188.639C1822.21 187.551 1822.28 186.735 1822.42 186.191C1822.62 185.579 1822.89 185.103 1823.23 184.763C1823.91 184.083 1825.54 183.743 1828.13 183.743H1831.9V172.319C1831.9 171.231 1831.97 170.449 1832.11 169.973C1832.31 169.429 1832.62 168.953 1833.02 168.545C1833.43 168.137 1833.98 167.831 1834.66 167.627C1835.4 167.423 1836.59 167.321 1838.23 167.321H1839.55C1841.25 167.321 1842.44 167.423 1843.12 167.627C1843.87 167.763 1844.45 168.035 1844.86 168.443C1845.67 169.123 1846.08 170.415 1846.08 172.319V183.743H1854.24C1856.82 183.743 1858.46 184.083 1859.14 184.763C1859.48 185.103 1859.71 185.579 1859.85 186.191C1860.05 186.735 1860.16 187.551 1860.16 188.639V190.271C1860.16 191.359 1860.05 192.209 1859.85 192.821C1859.71 193.365 1859.48 193.807 1859.14 194.147C1858.46 194.827 1856.82 195.167 1854.24 195.167H1846.08V217.505C1846.08 223.761 1848.87 226.889 1854.44 226.889C1855.26 226.889 1856.01 226.821 1856.69 226.685C1857.44 226.549 1858.05 226.481 1858.52 226.481C1859.48 226.481 1860.16 226.821 1860.56 227.501C1861.04 228.181 1861.38 229.337 1861.58 230.969ZM1917.79 212.813C1917.11 213.425 1916.19 213.867 1915.04 214.139C1913.88 214.343 1912.25 214.445 1910.14 214.445H1881.58C1882.26 218.321 1884.03 221.347 1886.88 223.523C1889.74 225.631 1893.41 226.685 1897.9 226.685C1901.37 226.685 1905.14 225.597 1909.22 223.421C1910.17 222.945 1910.99 222.707 1911.67 222.707C1912.42 222.707 1913.1 222.979 1913.71 223.523C1914.32 223.999 1915.04 224.815 1915.85 225.971C1917.01 227.671 1917.59 229.031 1917.59 230.051C1917.59 231.411 1916.33 232.907 1913.81 234.539C1911.84 235.831 1909.26 236.885 1906.06 237.701C1902.86 238.517 1899.46 238.925 1895.86 238.925C1890.28 238.925 1885.32 237.769 1880.97 235.457C1876.62 233.145 1873.22 229.847 1870.77 225.563C1868.32 221.211 1867.1 216.145 1867.1 210.365C1867.1 204.925 1868.15 200.097 1870.26 195.881C1872.43 191.665 1875.56 188.367 1879.64 185.987C1883.72 183.607 1888.52 182.417 1894.02 182.417C1899.33 182.417 1903.88 183.505 1907.69 185.681C1911.5 187.857 1914.39 190.781 1916.36 194.453C1918.33 198.125 1919.32 202.205 1919.32 206.693C1919.32 208.325 1919.18 209.617 1918.91 210.569C1918.71 211.521 1918.33 212.269 1917.79 212.813ZM1893.92 194.045C1890.32 194.045 1887.46 195.031 1885.35 197.003C1883.25 198.907 1881.95 201.627 1881.48 205.163H1905.65C1905.38 201.627 1904.22 198.907 1902.18 197.003C1900.14 195.031 1897.39 194.045 1893.92 194.045ZM1982.54 164.261C1983.36 164.941 1983.77 166.233 1983.77 168.137V232.601C1983.77 233.689 1983.66 234.539 1983.46 235.151C1983.32 235.695 1983.09 236.137 1982.75 236.477C1982 237.225 1980.43 237.599 1978.05 237.599H1975.61C1974.18 237.599 1973.12 237.531 1972.44 237.395C1971.76 237.191 1971.22 236.919 1970.81 236.579C1970.06 235.967 1969.69 234.641 1969.69 232.601V227.807C1968.26 231.071 1965.95 233.723 1962.75 235.763C1959.63 237.803 1955.75 238.823 1951.13 238.823C1946.5 238.823 1942.39 237.633 1938.78 235.253C1935.18 232.873 1932.39 229.609 1930.42 225.461C1928.45 221.245 1927.46 216.519 1927.46 211.283C1927.46 205.843 1928.52 200.947 1930.62 196.595C1932.73 192.175 1935.66 188.707 1939.4 186.191C1943.14 183.675 1947.39 182.417 1952.15 182.417C1956.02 182.417 1959.46 183.267 1962.45 184.967C1965.51 186.599 1967.89 188.979 1969.59 192.107V168.137C1969.59 167.049 1969.66 166.267 1969.79 165.791C1970 165.247 1970.3 164.771 1970.71 164.363C1971.12 163.955 1971.66 163.649 1972.34 163.445C1973.09 163.241 1974.28 163.139 1975.91 163.139H1977.24C1978.94 163.139 1980.13 163.241 1980.81 163.445C1981.56 163.581 1982.13 163.853 1982.54 164.261ZM1955.61 226.481C1959.83 226.481 1963.23 224.951 1965.81 221.891C1968.4 218.831 1969.69 214.989 1969.69 210.365C1969.69 205.809 1968.4 202.069 1965.81 199.145C1963.3 196.221 1959.97 194.759 1955.82 194.759C1951.6 194.759 1948.24 196.255 1945.72 199.247C1943.27 202.171 1942.05 206.013 1942.05 210.773C1942.05 215.669 1943.31 219.511 1945.82 222.299C1948.34 225.087 1951.6 226.481 1955.61 226.481ZM2030.3 237.599C2028.74 237.599 2027.58 237.531 2026.84 237.395C2026.09 237.191 2025.54 236.885 2025.2 236.477C2024.86 236.001 2024.59 235.491 2024.39 234.947C2024.25 234.403 2024.18 233.587 2024.18 232.499V171.299C2024.18 170.075 2024.25 169.157 2024.39 168.545C2024.59 167.933 2024.9 167.457 2025.31 167.117C2025.71 166.777 2026.26 166.539 2026.94 166.403C2027.62 166.267 2028.74 166.199 2030.3 166.199H2068.66C2070.56 166.199 2071.92 166.539 2072.74 167.219C2073.14 167.559 2073.42 168.035 2073.55 168.647C2073.76 169.259 2073.86 170.143 2073.86 171.299V174.155C2073.86 175.311 2073.76 176.195 2073.55 176.807C2073.42 177.419 2073.14 177.895 2072.74 178.235C2071.92 178.915 2070.56 179.255 2068.66 179.255H2039.18V194.147H2065.7C2066.85 194.147 2067.7 194.249 2068.25 194.453C2068.86 194.589 2069.34 194.827 2069.68 195.167C2070.49 195.983 2070.9 197.343 2070.9 199.247V201.899C2070.9 203.871 2070.53 205.231 2069.78 205.979C2069.44 206.319 2068.96 206.591 2068.35 206.795C2067.74 206.931 2066.85 206.999 2065.7 206.999H2039.18V224.645H2069.47C2070.63 224.645 2071.51 224.747 2072.12 224.951C2072.74 225.087 2073.21 225.325 2073.55 225.665C2074.3 226.413 2074.67 227.773 2074.67 229.745V232.499C2074.67 234.403 2074.27 235.763 2073.45 236.579C2073.11 236.919 2072.63 237.191 2072.02 237.395C2071.48 237.531 2070.63 237.599 2069.47 237.599H2030.3ZM2131.27 231.377C2132.5 233.145 2133.11 234.437 2133.11 235.253C2133.11 236.817 2131.31 237.599 2127.7 237.599H2123.93C2121.69 237.599 2120.09 237.327 2119.14 236.783C2118.73 236.579 2118.32 236.273 2117.91 235.865C2117.5 235.389 2116.93 234.573 2116.18 233.417L2107.51 219.953L2098.84 233.417C2097.68 235.185 2096.7 236.307 2095.88 236.783C2094.79 237.327 2093.19 237.599 2091.09 237.599H2087.62C2085.44 237.599 2083.98 237.395 2083.23 236.987C2082.55 236.511 2082.21 235.899 2082.21 235.151C2082.21 234.335 2082.82 233.043 2084.05 231.275L2098.74 209.651L2084.97 190.067C2083.81 188.435 2083.23 187.143 2083.23 186.191C2083.23 184.559 2085 183.743 2088.54 183.743H2092.11C2094.21 183.743 2095.81 184.015 2096.9 184.559C2097.72 185.035 2098.7 186.157 2099.86 187.925L2107.51 199.859L2115.46 187.925C2116.69 186.157 2117.67 185.035 2118.42 184.559C2118.9 184.287 2119.44 184.083 2120.05 183.947C2120.73 183.811 2121.79 183.743 2123.22 183.743H2126.58C2130.12 183.743 2131.89 184.525 2131.89 186.089C2131.89 186.973 2131.27 188.299 2130.05 190.067L2116.38 209.447L2131.27 231.377ZM2165.68 238.925C2160.17 238.925 2155.31 237.735 2151.09 235.355C2146.88 232.907 2143.61 229.541 2141.3 225.257C2138.99 220.973 2137.83 216.111 2137.83 210.671C2137.83 205.231 2138.99 200.369 2141.3 196.085C2143.61 191.801 2146.88 188.469 2151.09 186.089C2155.31 183.641 2160.17 182.417 2165.68 182.417C2174.66 182.417 2181.63 185.341 2186.59 191.189C2188.15 193.025 2188.94 194.419 2188.94 195.371C2188.94 196.187 2188.66 196.901 2188.12 197.513C2187.58 198.057 2186.52 198.771 2184.96 199.655C2182.37 201.083 2180.5 201.797 2179.35 201.797C2178.74 201.797 2178.12 201.593 2177.51 201.185C2176.97 200.709 2176.25 199.961 2175.37 198.941C2172.99 196.289 2169.79 194.963 2165.78 194.963C2161.7 194.963 2158.44 196.425 2155.99 199.349C2153.54 202.205 2152.32 205.945 2152.32 210.569C2152.32 215.397 2153.54 219.273 2155.99 222.197C2158.44 225.053 2161.7 226.481 2165.78 226.481C2167.75 226.481 2169.45 226.175 2170.88 225.563C2172.38 224.951 2173.81 223.965 2175.17 222.605C2176.46 221.313 2177.41 220.429 2178.02 219.953C2178.7 219.477 2179.38 219.239 2180.06 219.239C2180.67 219.239 2181.32 219.409 2182 219.749C2182.75 220.089 2183.63 220.565 2184.65 221.177C2186.35 222.197 2187.51 223.081 2188.12 223.829C2188.73 224.577 2189.04 225.291 2189.04 225.971C2189.04 227.195 2187.92 228.929 2185.67 231.173C2183.22 233.689 2180.27 235.627 2176.8 236.987C2173.4 238.279 2169.69 238.925 2165.68 238.925ZM2246.6 212.813C2245.92 213.425 2245 213.867 2243.85 214.139C2242.69 214.343 2241.06 214.445 2238.95 214.445H2210.39C2211.07 218.321 2212.84 221.347 2215.7 223.523C2218.55 225.631 2222.22 226.685 2226.71 226.685C2230.18 226.685 2233.95 225.597 2238.03 223.421C2238.99 222.945 2239.8 222.707 2240.48 222.707C2241.23 222.707 2241.91 222.979 2242.52 223.523C2243.13 223.999 2243.85 224.815 2244.66 225.971C2245.82 227.671 2246.4 229.031 2246.4 230.051C2246.4 231.411 2245.14 232.907 2242.62 234.539C2240.65 235.831 2238.07 236.885 2234.87 237.701C2231.68 238.517 2228.28 238.925 2224.67 238.925C2219.1 238.925 2214.13 237.769 2209.78 235.457C2205.43 233.145 2202.03 229.847 2199.58 225.563C2197.13 221.211 2195.91 216.145 2195.91 210.365C2195.91 204.925 2196.96 200.097 2199.07 195.881C2201.25 191.665 2204.37 188.367 2208.45 185.987C2212.53 183.607 2217.33 182.417 2222.84 182.417C2228.14 182.417 2232.7 183.505 2236.5 185.681C2240.31 187.857 2243.2 190.781 2245.17 194.453C2247.15 198.125 2248.13 202.205 2248.13 206.693C2248.13 208.325 2248 209.617 2247.72 210.569C2247.52 211.521 2247.15 212.269 2246.6 212.813ZM2222.73 194.045C2219.13 194.045 2216.27 195.031 2214.17 197.003C2212.06 198.907 2210.77 201.627 2210.29 205.163H2234.46C2234.19 201.627 2233.04 198.907 2231 197.003C2228.96 195.031 2226.2 194.045 2222.73 194.045ZM2265.45 237.599C2263.82 237.599 2262.63 237.497 2261.88 237.293C2261.2 237.089 2260.66 236.783 2260.25 236.375C2259.84 235.967 2259.54 235.491 2259.33 234.947C2259.2 234.403 2259.13 233.621 2259.13 232.601V168.137C2259.13 167.049 2259.2 166.267 2259.33 165.791C2259.54 165.247 2259.84 164.771 2260.25 164.363C2260.66 163.955 2261.2 163.649 2261.88 163.445C2262.63 163.241 2263.82 163.139 2265.45 163.139H2266.78C2268.48 163.139 2269.67 163.241 2270.35 163.445C2271.1 163.581 2271.67 163.853 2272.08 164.261C2272.9 164.941 2273.31 166.233 2273.31 168.137V232.601C2273.31 234.505 2272.9 235.797 2272.08 236.477C2271.67 236.885 2271.1 237.191 2270.35 237.395C2269.67 237.531 2268.48 237.599 2266.78 237.599H2265.45ZM2293.74 237.599C2292.11 237.599 2290.92 237.497 2290.17 237.293C2289.49 237.089 2288.95 236.783 2288.54 236.375C2288.13 235.967 2287.83 235.491 2287.62 234.947C2287.49 234.403 2287.42 233.621 2287.42 232.601V168.137C2287.42 167.049 2287.49 166.267 2287.62 165.791C2287.83 165.247 2288.13 164.771 2288.54 164.363C2288.95 163.955 2289.49 163.649 2290.17 163.445C2290.92 163.241 2292.11 163.139 2293.74 163.139H2295.07C2296.77 163.139 2297.96 163.241 2298.64 163.445C2299.39 163.581 2299.96 163.853 2300.37 164.261C2301.19 164.941 2301.6 166.233 2301.6 168.137V232.601C2301.6 234.505 2301.19 235.797 2300.37 236.477C2299.96 236.885 2299.39 237.191 2298.64 237.395C2297.96 237.531 2296.77 237.599 2295.07 237.599H2293.74ZM2363.44 212.813C2362.76 213.425 2361.84 213.867 2360.69 214.139C2359.53 214.343 2357.9 214.445 2355.79 214.445H2327.23C2327.91 218.321 2329.68 221.347 2332.54 223.523C2335.39 225.631 2339.06 226.685 2343.55 226.685C2347.02 226.685 2350.79 225.597 2354.87 223.421C2355.83 222.945 2356.64 222.707 2357.32 222.707C2358.07 222.707 2358.75 222.979 2359.36 223.523C2359.97 223.999 2360.69 224.815 2361.5 225.971C2362.66 227.671 2363.24 229.031 2363.24 230.051C2363.24 231.411 2361.98 232.907 2359.46 234.539C2357.49 235.831 2354.91 236.885 2351.71 237.701C2348.52 238.517 2345.12 238.925 2341.51 238.925C2335.94 238.925 2330.97 237.769 2326.62 235.457C2322.27 233.145 2318.87 229.847 2316.42 225.563C2313.97 221.211 2312.75 216.145 2312.75 210.365C2312.75 204.925 2313.8 200.097 2315.91 195.881C2318.09 191.665 2321.21 188.367 2325.29 185.987C2329.37 183.607 2334.17 182.417 2339.68 182.417C2344.98 182.417 2349.54 183.505 2353.34 185.681C2357.15 187.857 2360.04 190.781 2362.01 194.453C2363.99 198.125 2364.97 202.205 2364.97 206.693C2364.97 208.325 2364.84 209.617 2364.56 210.569C2364.36 211.521 2363.99 212.269 2363.44 212.813ZM2339.57 194.045C2335.97 194.045 2333.11 195.031 2331.01 197.003C2328.9 198.907 2327.61 201.627 2327.13 205.163H2351.3C2351.03 201.627 2349.88 198.907 2347.84 197.003C2345.8 195.031 2343.04 194.045 2339.57 194.045ZM2406.88 182.417C2412.79 182.417 2417.45 184.389 2420.85 188.333C2424.25 192.277 2425.95 197.751 2425.95 204.755V232.601C2425.95 234.505 2425.54 235.797 2424.73 236.477C2424.32 236.885 2423.74 237.191 2422.99 237.395C2422.31 237.531 2421.12 237.599 2419.42 237.599H2418.1C2416.46 237.599 2415.27 237.497 2414.53 237.293C2413.85 237.089 2413.3 236.783 2412.89 236.375C2412.49 235.967 2412.18 235.491 2411.98 234.947C2411.84 234.403 2411.77 233.621 2411.77 232.601V207.101C2411.77 202.885 2410.92 199.757 2409.22 197.717C2407.52 195.609 2404.9 194.555 2401.37 194.555C2397.76 194.555 2394.98 195.745 2393 198.125C2391.03 200.437 2390.05 203.769 2390.05 208.121V232.601C2390.05 234.505 2389.64 235.797 2388.82 236.477C2388.41 236.885 2387.84 237.191 2387.09 237.395C2386.41 237.531 2385.22 237.599 2383.52 237.599H2382.19C2380.56 237.599 2379.37 237.497 2378.62 237.293C2377.94 237.089 2377.4 236.783 2376.99 236.375C2376.58 235.967 2376.28 235.491 2376.07 234.947C2375.94 234.403 2375.87 233.621 2375.87 232.601V188.741C2375.87 187.653 2375.94 186.871 2376.07 186.395C2376.28 185.851 2376.58 185.375 2376.99 184.967C2377.4 184.559 2377.94 184.253 2378.62 184.049C2379.37 183.845 2380.56 183.743 2382.19 183.743H2383.52C2385.15 183.743 2386.31 183.845 2386.99 184.049C2387.73 184.185 2388.31 184.457 2388.72 184.865C2389.54 185.545 2389.94 186.837 2389.94 188.741V192.107C2391.37 189.047 2393.55 186.667 2396.47 184.967C2399.4 183.267 2402.86 182.417 2406.88 182.417ZM2472.79 230.969C2472.92 232.057 2472.99 232.975 2472.99 233.723C2472.99 234.879 2472.75 235.763 2472.28 236.375C2471.87 236.919 2471.09 237.361 2469.93 237.701C2467.48 238.313 2464.93 238.619 2462.28 238.619C2455.07 238.619 2450.08 236.987 2447.29 233.723C2444.5 230.459 2443.11 225.665 2443.11 219.341V195.167H2439.33C2436.75 195.167 2435.12 194.827 2434.44 194.147C2434.1 193.807 2433.82 193.365 2433.62 192.821C2433.48 192.209 2433.42 191.359 2433.42 190.271V188.639C2433.42 187.551 2433.48 186.735 2433.62 186.191C2433.82 185.579 2434.1 185.103 2434.44 184.763C2435.12 184.083 2436.75 183.743 2439.33 183.743H2443.11V172.319C2443.11 171.231 2443.17 170.449 2443.31 169.973C2443.51 169.429 2443.82 168.953 2444.23 168.545C2444.64 168.137 2445.18 167.831 2445.86 167.627C2446.61 167.423 2447.8 167.321 2449.43 167.321H2450.76C2452.46 167.321 2453.65 167.423 2454.33 167.627C2455.07 167.763 2455.65 168.035 2456.06 168.443C2456.88 169.123 2457.28 170.415 2457.28 172.319V183.743H2465.44C2468.03 183.743 2469.66 184.083 2470.34 184.763C2470.68 185.103 2470.92 185.579 2471.05 186.191C2471.26 186.735 2471.36 187.551 2471.36 188.639V190.271C2471.36 191.359 2471.26 192.209 2471.05 192.821C2470.92 193.365 2470.68 193.807 2470.34 194.147C2469.66 194.827 2468.03 195.167 2465.44 195.167H2457.28V217.505C2457.28 223.761 2460.07 226.889 2465.65 226.889C2466.46 226.889 2467.21 226.821 2467.89 226.685C2468.64 226.549 2469.25 226.481 2469.73 226.481C2470.68 226.481 2471.36 226.821 2471.77 227.501C2472.24 228.181 2472.58 229.337 2472.79 230.969Z" fill="white"/>
<path d="M339.728 146.519C340.256 146.959 340.608 147.575 340.784 148.367C341.048 149.159 341.18 150.303 341.18 151.799V155.495C341.18 156.991 341.048 158.135 340.784 158.927C340.608 159.719 340.256 160.335 339.728 160.775C338.672 161.655 336.912 162.095 334.448 162.095H314.516V231.659C314.516 233.859 313.988 235.443 312.932 236.411C312.492 236.851 311.832 237.159 310.952 237.335C310.072 237.511 308.62 237.599 306.596 237.599H303.032C300.92 237.599 299.424 237.511 298.544 237.335C297.664 237.159 296.96 236.807 296.432 236.279C295.552 235.399 295.112 233.859 295.112 231.659V162.095H275.18C272.716 162.095 270.956 161.655 269.9 160.775C269.372 160.335 268.976 159.719 268.712 158.927C268.536 158.135 268.448 156.991 268.448 155.495V151.799C268.448 150.303 268.536 149.159 268.712 148.367C268.976 147.575 269.372 146.959 269.9 146.519C270.956 145.639 272.716 145.199 275.18 145.199H334.448C336.912 145.199 338.672 145.639 339.728 146.519ZM387.051 168.299C388.195 169.091 388.767 170.411 388.767 172.259C388.767 176.043 388.371 179.299 387.579 182.027C387.227 183.083 386.787 183.831 386.259 184.271C385.731 184.623 384.939 184.799 383.883 184.799C383.091 184.799 382.123 184.755 380.979 184.667C379.923 184.579 378.647 184.535 377.151 184.535C372.135 184.535 368.307 186.295 365.667 189.815C363.027 193.247 361.707 198.175 361.707 204.599V231.131C361.707 233.595 361.179 235.267 360.123 236.147C359.595 236.675 358.847 237.071 357.879 237.335C356.999 237.511 355.459 237.599 353.259 237.599H351.543C349.431 237.599 347.891 237.467 346.923 237.203C346.043 236.939 345.339 236.543 344.811 236.015C344.283 235.487 343.887 234.871 343.623 234.167C343.447 233.463 343.359 232.451 343.359 231.131V174.371C343.359 172.963 343.447 171.951 343.623 171.335C343.887 170.631 344.283 170.015 344.811 169.487C345.339 168.959 346.043 168.563 346.923 168.299C347.891 168.035 349.431 167.903 351.543 167.903H353.259C355.459 167.903 356.999 168.035 357.879 168.299C358.847 168.475 359.595 168.827 360.123 169.355C361.179 170.235 361.707 171.907 361.707 174.371V182.423C364.787 172.127 370.947 166.979 380.187 166.979C383.443 166.979 385.731 167.419 387.051 168.299ZM462.523 169.487C463.051 170.015 463.403 170.631 463.579 171.335C463.843 171.951 463.975 172.963 463.975 174.371V231.131C463.975 232.451 463.843 233.463 463.579 234.167C463.403 234.871 463.051 235.487 462.523 236.015C461.995 236.543 461.247 236.939 460.279 237.203C459.399 237.467 457.903 237.599 455.791 237.599H454.075C451.963 237.599 450.423 237.511 449.455 237.335C448.575 237.071 447.871 236.675 447.343 236.147C446.287 235.267 445.759 233.595 445.759 231.131V226.775C443.911 230.735 441.095 233.815 437.311 236.015C433.527 238.215 429.039 239.315 423.847 239.315C416.191 239.315 410.163 236.763 405.763 231.659C401.363 226.555 399.163 219.471 399.163 210.407V174.371C399.163 171.907 399.691 170.235 400.747 169.355C401.275 168.827 401.979 168.475 402.859 168.299C403.827 168.035 405.411 167.903 407.611 167.903H409.327C411.439 167.903 412.935 168.035 413.815 168.299C414.783 168.563 415.531 168.959 416.059 169.487C416.587 170.015 416.939 170.631 417.115 171.335C417.379 171.951 417.511 172.963 417.511 174.371V207.371C417.511 212.827 418.611 216.919 420.811 219.647C423.011 222.287 426.399 223.607 430.975 223.607C435.639 223.607 439.247 222.111 441.799 219.119C444.351 216.039 445.627 211.683 445.627 206.051V174.371C445.627 171.907 446.155 170.235 447.211 169.355C447.739 168.827 448.443 168.475 449.323 168.299C450.291 168.035 451.875 167.903 454.075 167.903H455.791C457.903 167.903 459.399 168.035 460.279 168.299C461.247 168.563 461.995 168.959 462.523 169.487ZM507.541 239.579C502.613 239.579 497.905 239.051 493.417 237.995C489.017 236.939 485.101 235.443 481.669 233.507C480.085 232.627 478.985 231.835 478.369 231.131C477.753 230.339 477.445 229.503 477.445 228.623C477.445 227.039 478.061 225.059 479.293 222.683C480.349 220.659 481.229 219.339 481.933 218.723C482.637 218.019 483.473 217.667 484.441 217.667C485.321 217.667 486.641 218.151 488.401 219.119C491.217 220.703 494.253 221.979 497.509 222.947C500.765 223.827 503.977 224.267 507.145 224.267C511.281 224.267 514.405 223.651 516.517 222.419C518.717 221.187 519.817 219.427 519.817 217.139C519.817 215.203 519.113 213.751 517.705 212.783C516.297 211.727 514.361 210.935 511.897 210.407L499.093 207.635C492.141 206.139 487.125 203.719 484.045 200.375C480.965 197.031 479.425 192.895 479.425 187.967C479.425 181.367 481.933 176.043 486.949 171.995C492.053 167.947 499.005 165.923 507.805 165.923C516.517 165.923 524.393 167.859 531.433 171.731C533.809 172.963 534.997 174.415 534.997 176.087C534.997 177.407 534.425 179.211 533.281 181.499C532.313 183.435 531.433 184.755 530.641 185.459C529.849 186.163 529.057 186.515 528.265 186.515C527.473 186.515 525.933 185.943 523.645 184.799C518.893 182.423 513.789 181.235 508.333 181.235C500.853 181.235 497.113 183.171 497.113 187.043C497.113 188.715 497.729 190.035 498.961 191.003C500.281 191.883 502.085 192.543 504.373 192.983L517.969 195.491C525.273 196.811 530.465 199.363 533.545 203.147C536.625 206.843 538.165 211.199 538.165 216.215C538.165 223.343 535.393 229.019 529.849 233.243C524.393 237.467 516.957 239.579 507.541 239.579ZM594.983 229.019C595.159 230.427 595.247 231.615 595.247 232.583C595.247 234.079 594.939 235.223 594.323 236.015C593.795 236.719 592.783 237.291 591.287 237.731C588.119 238.523 584.819 238.919 581.387 238.919C572.059 238.919 565.591 236.807 561.983 232.583C558.375 228.359 556.571 222.155 556.571 213.971V182.687H551.687C548.343 182.687 546.231 182.247 545.351 181.367C544.911 180.927 544.559 180.355 544.295 179.651C544.119 178.859 544.031 177.759 544.031 176.351V174.239C544.031 172.831 544.119 171.775 544.295 171.071C544.559 170.279 544.911 169.663 545.351 169.223C546.231 168.343 548.343 167.903 551.687 167.903H556.571V153.119C556.571 151.711 556.659 150.699 556.835 150.083C557.099 149.379 557.495 148.763 558.023 148.235C558.551 147.707 559.255 147.311 560.135 147.047C561.103 146.783 562.643 146.651 564.755 146.651H566.471C568.671 146.651 570.211 146.783 571.091 147.047C572.059 147.223 572.807 147.575 573.335 148.103C574.391 148.983 574.919 150.655 574.919 153.119V167.903H585.479C588.823 167.903 590.935 168.343 591.815 169.223C592.255 169.663 592.563 170.279 592.739 171.071C593.003 171.775 593.135 172.831 593.135 174.239V176.351C593.135 177.759 593.003 178.859 592.739 179.651C592.563 180.355 592.255 180.927 591.815 181.367C590.935 182.247 588.823 182.687 585.479 182.687H574.919V211.595C574.919 219.691 578.527 223.739 585.743 223.739C586.799 223.739 587.767 223.651 588.647 223.475C589.615 223.299 590.407 223.211 591.023 223.211C592.255 223.211 593.135 223.651 593.663 224.531C594.279 225.411 594.719 226.907 594.983 229.019ZM667.72 205.523C666.84 206.315 665.652 206.887 664.156 207.239C662.66 207.503 660.548 207.635 657.82 207.635H620.86C621.74 212.651 624.028 216.567 627.724 219.383C631.42 222.111 636.172 223.475 641.98 223.475C646.468 223.475 651.352 222.067 656.632 219.251C657.864 218.635 658.92 218.327 659.8 218.327C660.768 218.327 661.648 218.679 662.44 219.383C663.232 219.999 664.156 221.055 665.212 222.551C666.708 224.751 667.456 226.511 667.456 227.831C667.456 229.591 665.828 231.527 662.572 233.639C660.02 235.311 656.676 236.675 652.54 237.731C648.404 238.787 644.004 239.315 639.34 239.315C632.124 239.315 625.7 237.819 620.068 234.827C614.436 231.835 610.036 227.567 606.868 222.023C603.7 216.391 602.116 209.835 602.116 202.355C602.116 195.315 603.48 189.067 606.208 183.611C609.024 178.155 613.072 173.887 618.352 170.807C623.632 167.727 629.836 166.187 636.964 166.187C643.828 166.187 649.724 167.595 654.652 170.411C659.58 173.227 663.32 177.011 665.872 181.763C668.424 186.515 669.7 191.795 669.7 197.603C669.7 199.715 669.524 201.387 669.172 202.619C668.908 203.851 668.424 204.819 667.72 205.523ZM636.832 181.235C632.168 181.235 628.472 182.511 625.744 185.063C623.016 187.527 621.344 191.047 620.728 195.623H652.012C651.66 191.047 650.164 187.527 647.524 185.063C644.884 182.511 641.32 181.235 636.832 181.235ZM751.516 142.691C752.572 143.571 753.1 145.243 753.1 147.707V231.131C753.1 232.539 752.968 233.639 752.704 234.431C752.528 235.135 752.22 235.707 751.78 236.147C750.812 237.115 748.788 237.599 745.708 237.599H742.54C740.692 237.599 739.328 237.511 738.448 237.335C737.568 237.071 736.864 236.719 736.336 236.279C735.368 235.487 734.884 233.771 734.884 231.131V224.927C733.036 229.151 730.044 232.583 725.908 235.223C721.86 237.863 716.844 239.183 710.86 239.183C704.876 239.183 699.552 237.643 694.888 234.563C690.224 231.483 686.616 227.259 684.064 221.891C681.512 216.435 680.236 210.319 680.236 203.543C680.236 196.503 681.6 190.167 684.328 184.535C687.056 178.815 690.84 174.327 695.68 171.071C700.52 167.815 706.02 166.187 712.18 166.187C717.196 166.187 721.64 167.287 725.512 169.487C729.472 171.599 732.552 174.679 734.752 178.727V147.707C734.752 146.299 734.84 145.287 735.016 144.671C735.28 143.967 735.676 143.351 736.204 142.823C736.732 142.295 737.436 141.899 738.316 141.635C739.284 141.371 740.824 141.239 742.936 141.239H744.652C746.852 141.239 748.392 141.371 749.272 141.635C750.24 141.811 750.988 142.163 751.516 142.691ZM716.668 223.211C722.124 223.211 726.524 221.231 729.868 217.271C733.212 213.311 734.884 208.339 734.884 202.355C734.884 196.459 733.212 191.619 729.868 187.835C726.612 184.051 722.3 182.159 716.932 182.159C711.476 182.159 707.12 184.095 703.864 187.967C700.696 191.751 699.112 196.723 699.112 202.883C699.112 209.219 700.74 214.191 703.996 217.799C707.252 221.407 711.476 223.211 716.668 223.211ZM845.797 166.187C851.781 166.187 857.105 167.771 861.769 170.939C866.433 174.019 870.041 178.287 872.593 183.743C875.145 189.111 876.421 195.183 876.421 201.959C876.421 208.911 875.057 215.247 872.329 220.967C869.601 226.599 865.817 231.043 860.977 234.299C856.137 237.555 850.681 239.183 844.609 239.183C839.505 239.183 834.929 238.083 830.881 235.883C826.833 233.595 823.797 230.471 821.773 226.511V231.131C821.773 233.771 821.289 235.487 820.321 236.279C819.793 236.719 819.089 237.071 818.209 237.335C817.417 237.511 816.053 237.599 814.117 237.599H810.949C807.869 237.599 805.845 237.115 804.877 236.147C804.437 235.707 804.085 235.135 803.821 234.431C803.645 233.639 803.557 232.539 803.557 231.131V147.707C803.557 146.299 803.645 145.287 803.821 144.671C804.085 143.967 804.481 143.351 805.009 142.823C805.537 142.295 806.241 141.899 807.121 141.635C808.089 141.371 809.629 141.239 811.741 141.239H813.457C815.657 141.239 817.197 141.371 818.077 141.635C819.045 141.811 819.793 142.163 820.321 142.691C821.377 143.571 821.905 145.243 821.905 147.707V180.575C823.841 176.263 826.833 172.787 830.881 170.147C835.017 167.507 839.989 166.187 845.797 166.187ZM839.593 223.475C845.049 223.475 849.405 221.583 852.661 217.799C855.917 213.927 857.545 208.911 857.545 202.751C857.545 196.503 855.873 191.575 852.529 187.967C849.185 184.271 844.917 182.423 839.725 182.423C834.269 182.423 829.913 184.403 826.657 188.363C823.401 192.235 821.773 197.207 821.773 203.279C821.773 209.263 823.401 214.147 826.657 217.931C829.913 221.627 834.225 223.475 839.593 223.475ZM945.509 167.903C947.797 167.903 949.513 168.167 950.657 168.695C951.889 169.223 952.505 170.235 952.505 171.731C952.505 172.787 952.065 174.327 951.185 176.351L915.941 254.495C914.885 256.959 913.697 258.587 912.377 259.379C911.145 260.259 909.209 260.699 906.569 260.699H902.345C897.769 260.699 895.481 259.555 895.481 257.267C895.481 256.299 896.053 254.627 897.197 252.251L907.625 231.395L885.317 176.351C884.437 174.239 883.997 172.699 883.997 171.731C883.997 170.323 884.569 169.355 885.713 168.827C886.945 168.211 888.705 167.903 890.993 167.903H894.557C896.405 167.903 897.725 168.035 898.517 168.299C899.397 168.475 900.145 168.827 900.761 169.355C901.377 169.795 901.861 170.411 902.213 171.203C902.653 171.907 903.225 173.139 903.929 174.899L917.525 211.727L932.573 174.899C933.629 172.347 934.641 170.587 935.609 169.619C936.225 169.091 936.973 168.695 937.853 168.431C938.733 168.079 940.141 167.903 942.077 167.903H945.509ZM37.8783 302.067C40.5183 302.067 41.8383 303.651 41.8383 306.819V388.131C41.8383 390.595 41.3103 392.267 40.2543 393.147C39.7263 393.675 38.9783 394.071 38.0103 394.335C37.1303 394.511 35.5903 394.599 33.3903 394.599H31.1463C29.0343 394.599 27.4943 394.467 26.5263 394.203C25.6463 393.939 24.9423 393.543 24.4143 393.015C23.8863 392.487 23.4903 391.871 23.2263 391.167C23.0503 390.463 22.9623 389.451 22.9623 388.131V325.431L8.70633 331.899C7.65033 332.339 6.68233 332.691 5.80233 332.955C5.01033 333.219 4.26233 333.351 3.55833 333.351C1.18233 333.351 -0.00567171 331.547 -0.00567171 327.939V324.771C-0.00567171 322.923 0.0823283 321.647 0.258328 320.943C0.522328 320.151 0.874328 319.447 1.31433 318.831C1.93033 317.951 3.55833 316.895 6.19833 315.663L31.4103 304.047C34.4023 302.727 36.5583 302.067 37.8783 302.067ZM99.0727 396.711C91.7687 396.711 85.3007 394.775 79.6687 390.903C74.1247 386.943 69.7687 381.355 66.6007 374.139C63.5207 366.835 61.9807 358.255 61.9807 348.399C61.9807 338.543 63.5207 330.007 66.6007 322.791C69.7687 315.487 74.1247 309.899 79.6687 306.027C85.3007 302.067 91.7687 300.087 99.0727 300.087C106.377 300.087 112.845 302.067 118.477 306.027C124.109 309.899 128.465 315.487 131.545 322.791C134.713 330.007 136.297 338.543 136.297 348.399C136.297 358.255 134.713 366.835 131.545 374.139C128.465 381.355 124.109 386.943 118.477 390.903C112.845 394.775 106.377 396.711 99.0727 396.711ZM99.0727 379.947C110.425 379.947 116.101 369.387 116.101 348.267C116.101 337.531 114.649 329.611 111.745 324.507C108.929 319.403 104.661 316.851 98.9407 316.851C87.7647 316.851 82.1767 327.411 82.1767 348.531C82.1767 369.475 87.8087 379.947 99.0727 379.947ZM187.76 396.711C180.456 396.711 173.988 394.775 168.356 390.903C162.812 386.943 158.456 381.355 155.288 374.139C152.208 366.835 150.668 358.255 150.668 348.399C150.668 338.543 152.208 330.007 155.288 322.791C158.456 315.487 162.812 309.899 168.356 306.027C173.988 302.067 180.456 300.087 187.76 300.087C195.064 300.087 201.532 302.067 207.164 306.027C212.796 309.899 217.152 315.487 220.232 322.791C223.4 330.007 224.984 338.543 224.984 348.399C224.984 358.255 223.4 366.835 220.232 374.139C217.152 381.355 212.796 386.943 207.164 390.903C201.532 394.775 195.064 396.711 187.76 396.711ZM187.76 379.947C199.112 379.947 204.788 369.387 204.788 348.267C204.788 337.531 203.336 329.611 200.432 324.507C197.616 319.403 193.348 316.851 187.628 316.851C176.452 316.851 170.864 327.411 170.864 348.531C170.864 369.475 176.496 379.947 187.76 379.947ZM246.96 373.611C250.832 373.611 253.956 375.063 256.332 377.967C258.708 380.783 259.896 384.699 259.896 389.715C259.896 395.611 258.532 400.627 255.804 404.763C253.164 408.899 249.776 411.979 245.64 414.003C244.232 414.707 243.088 415.059 242.208 415.059C241.328 415.059 240.58 414.795 239.964 414.267C239.436 413.827 238.864 413.079 238.248 412.023C237.632 410.791 237.324 409.735 237.324 408.855C237.324 408.151 237.544 407.535 237.984 407.007C238.424 406.567 239.392 405.907 240.888 405.027C245.816 402.299 248.676 398.867 249.468 394.731C248.324 395.171 246.916 395.391 245.244 395.391C242.34 395.391 239.92 394.423 237.984 392.487C236.048 390.551 235.08 387.955 235.08 384.699C235.08 381.443 236.18 378.803 238.38 376.779C240.58 374.667 243.44 373.611 246.96 373.611ZM307.514 396.711C300.21 396.711 293.742 394.775 288.11 390.903C282.566 386.943 278.21 381.355 275.042 374.139C271.962 366.835 270.422 358.255 270.422 348.399C270.422 338.543 271.962 330.007 275.042 322.791C278.21 315.487 282.566 309.899 288.11 306.027C293.742 302.067 300.21 300.087 307.514 300.087C314.818 300.087 321.286 302.067 326.918 306.027C332.55 309.899 336.906 315.487 339.986 322.791C343.154 330.007 344.738 338.543 344.738 348.399C344.738 358.255 343.154 366.835 339.986 374.139C336.906 381.355 332.55 386.943 326.918 390.903C321.286 394.775 314.818 396.711 307.514 396.711ZM307.514 379.947C318.866 379.947 324.542 369.387 324.542 348.267C324.542 337.531 323.09 329.611 320.186 324.507C317.37 319.403 313.102 316.851 307.382 316.851C296.206 316.851 290.618 327.411 290.618 348.531C290.618 369.475 296.25 379.947 307.514 379.947ZM396.202 396.711C388.898 396.711 382.43 394.775 376.798 390.903C371.254 386.943 366.898 381.355 363.73 374.139C360.65 366.835 359.11 358.255 359.11 348.399C359.11 338.543 360.65 330.007 363.73 322.791C366.898 315.487 371.254 309.899 376.798 306.027C382.43 302.067 388.898 300.087 396.202 300.087C403.506 300.087 409.974 302.067 415.606 306.027C421.238 309.899 425.594 315.487 428.674 322.791C431.842 330.007 433.426 338.543 433.426 348.399C433.426 358.255 431.842 366.835 428.674 374.139C425.594 381.355 421.238 386.943 415.606 390.903C409.974 394.775 403.506 396.711 396.202 396.711ZM396.202 379.947C407.554 379.947 413.23 369.387 413.23 348.267C413.23 337.531 411.778 329.611 408.874 324.507C406.058 319.403 401.79 316.851 396.07 316.851C384.894 316.851 379.306 327.411 379.306 348.531C379.306 369.475 384.938 379.947 396.202 379.947ZM484.889 396.711C477.585 396.711 471.117 394.775 465.485 390.903C459.941 386.943 455.585 381.355 452.417 374.139C449.337 366.835 447.797 358.255 447.797 348.399C447.797 338.543 449.337 330.007 452.417 322.791C455.585 315.487 459.941 309.899 465.485 306.027C471.117 302.067 477.585 300.087 484.889 300.087C492.193 300.087 498.661 302.067 504.293 306.027C509.925 309.899 514.281 315.487 517.361 322.791C520.529 330.007 522.113 338.543 522.113 348.399C522.113 358.255 520.529 366.835 517.361 374.139C514.281 381.355 509.925 386.943 504.293 390.903C498.661 394.775 492.193 396.711 484.889 396.711ZM484.889 379.947C496.241 379.947 501.917 369.387 501.917 348.267C501.917 337.531 500.465 329.611 497.561 324.507C494.745 319.403 490.477 316.851 484.757 316.851C473.581 316.851 467.993 327.411 467.993 348.531C467.993 369.475 473.625 379.947 484.889 379.947ZM603.805 351.567C604.245 352.007 604.553 352.623 604.729 353.415C604.993 354.119 605.125 355.175 605.125 356.583V359.223C605.125 360.631 604.993 361.731 604.729 362.523C604.553 363.227 604.245 363.799 603.805 364.239C602.925 365.119 600.813 365.559 597.469 365.559H578.857V384.831C578.857 388.175 578.417 390.287 577.537 391.167C577.097 391.607 576.481 391.959 575.689 392.223C574.985 392.399 573.929 392.487 572.521 392.487H568.429C567.021 392.487 565.921 392.399 565.129 392.223C564.425 391.959 563.853 391.607 563.413 391.167C562.533 390.287 562.093 388.175 562.093 384.831V365.559H543.481C540.137 365.559 538.025 365.119 537.145 364.239C536.705 363.799 536.353 363.227 536.089 362.523C535.913 361.731 535.825 360.631 535.825 359.223V356.583C535.825 355.175 535.913 354.119 536.089 353.415C536.353 352.623 536.705 352.007 537.145 351.567C538.025 350.687 540.137 350.247 543.481 350.247H562.093V330.843C562.093 327.499 562.533 325.387 563.413 324.507C563.853 324.067 564.425 323.759 565.129 323.583C565.921 323.319 567.021 323.187 568.429 323.187H572.521C573.929 323.187 574.985 323.319 575.689 323.583C576.481 323.759 577.097 324.067 577.537 324.507C578.417 325.387 578.857 327.499 578.857 330.843V350.247H597.469C600.813 350.247 602.925 350.687 603.805 351.567ZM678.535 396.579C673.607 396.579 668.899 396.051 664.411 394.995C660.011 393.939 656.095 392.443 652.663 390.507C651.079 389.627 649.979 388.835 649.363 388.131C648.747 387.339 648.439 386.503 648.439 385.623C648.439 384.039 649.055 382.059 650.287 379.683C651.343 377.659 652.223 376.339 652.927 375.723C653.631 375.019 654.467 374.667 655.435 374.667C656.315 374.667 657.635 375.151 659.395 376.119C662.211 377.703 665.247 378.979 668.503 379.947C671.759 380.827 674.971 381.267 678.139 381.267C682.275 381.267 685.399 380.651 687.511 379.419C689.711 378.187 690.811 376.427 690.811 374.139C690.811 372.203 690.107 370.751 688.699 369.783C687.291 368.727 685.355 367.935 682.891 367.407L670.087 364.635C663.135 363.139 658.119 360.719 655.039 357.375C651.959 354.031 650.419 349.895 650.419 344.967C650.419 338.367 652.927 333.043 657.943 328.995C663.047 324.947 669.999 322.923 678.799 322.923C687.511 322.923 695.387 324.859 702.427 328.731C704.803 329.963 705.991 331.415 705.991 333.087C705.991 334.407 705.419 336.211 704.275 338.499C703.307 340.435 702.427 341.755 701.635 342.459C700.843 343.163 700.051 343.515 699.259 343.515C698.467 343.515 696.927 342.943 694.639 341.799C689.887 339.423 684.783 338.235 679.327 338.235C671.847 338.235 668.107 340.171 668.107 344.043C668.107 345.715 668.723 347.035 669.955 348.003C671.275 348.883 673.079 349.543 675.367 349.983L688.963 352.491C696.267 353.811 701.459 356.363 704.539 360.147C707.619 363.843 709.159 368.199 709.159 373.215C709.159 380.343 706.387 386.019 700.843 390.243C695.387 394.467 687.951 396.579 678.535 396.579ZM765.977 386.019C766.153 387.427 766.241 388.615 766.241 389.583C766.241 391.079 765.933 392.223 765.317 393.015C764.789 393.719 763.777 394.291 762.281 394.731C759.113 395.523 755.813 395.919 752.381 395.919C743.053 395.919 736.585 393.807 732.977 389.583C729.369 385.359 727.565 379.155 727.565 370.971V339.687H722.681C719.337 339.687 717.225 339.247 716.345 338.367C715.905 337.927 715.553 337.355 715.289 336.651C715.113 335.859 715.025 334.759 715.025 333.351V331.239C715.025 329.831 715.113 328.775 715.289 328.071C715.553 327.279 715.905 326.663 716.345 326.223C717.225 325.343 719.337 324.903 722.681 324.903H727.565V310.119C727.565 308.711 727.653 307.699 727.829 307.083C728.093 306.379 728.489 305.763 729.017 305.235C729.545 304.707 730.249 304.311 731.129 304.047C732.097 303.783 733.637 303.651 735.749 303.651H737.465C739.665 303.651 741.205 303.783 742.085 304.047C743.053 304.223 743.801 304.575 744.329 305.103C745.385 305.983 745.913 307.655 745.913 310.119V324.903H756.473C759.817 324.903 761.929 325.343 762.809 326.223C763.249 326.663 763.557 327.279 763.733 328.071C763.997 328.775 764.129 329.831 764.129 331.239V333.351C764.129 334.759 763.997 335.859 763.733 336.651C763.557 337.355 763.249 337.927 762.809 338.367C761.929 339.247 759.817 339.687 756.473 339.687H745.913V368.595C745.913 376.691 749.521 380.739 756.737 380.739C757.793 380.739 758.761 380.651 759.641 380.475C760.609 380.299 761.401 380.211 762.017 380.211C763.249 380.211 764.129 380.651 764.657 381.531C765.273 382.411 765.713 383.907 765.977 386.019ZM840.412 326.487C840.94 327.015 841.292 327.631 841.468 328.335C841.732 328.951 841.864 329.963 841.864 331.371V388.131C841.864 389.451 841.732 390.463 841.468 391.167C841.292 391.871 840.94 392.487 840.412 393.015C839.884 393.543 839.136 393.939 838.168 394.203C837.288 394.467 835.792 394.599 833.68 394.599H831.964C829.852 394.599 828.312 394.511 827.344 394.335C826.464 394.071 825.76 393.675 825.232 393.147C824.176 392.267 823.648 390.595 823.648 388.131V383.775C821.8 387.735 818.984 390.815 815.2 393.015C811.416 395.215 806.928 396.315 801.736 396.315C794.08 396.315 788.052 393.763 783.652 388.659C779.252 383.555 777.052 376.471 777.052 367.407V331.371C777.052 328.907 777.58 327.235 778.636 326.355C779.164 325.827 779.868 325.475 780.748 325.299C781.716 325.035 783.3 324.903 785.5 324.903H787.216C789.328 324.903 790.824 325.035 791.704 325.299C792.672 325.563 793.42 325.959 793.948 326.487C794.476 327.015 794.828 327.631 795.004 328.335C795.268 328.951 795.4 329.963 795.4 331.371V364.371C795.4 369.827 796.5 373.919 798.7 376.647C800.9 379.287 804.288 380.607 808.864 380.607C813.528 380.607 817.136 379.111 819.688 376.119C822.24 373.039 823.516 368.683 823.516 363.051V331.371C823.516 328.907 824.044 327.235 825.1 326.355C825.628 325.827 826.332 325.475 827.212 325.299C828.18 325.035 829.764 324.903 831.964 324.903H833.68C835.792 324.903 837.288 325.035 838.168 325.299C839.136 325.563 839.884 325.959 840.412 326.487ZM927.538 299.691C928.594 300.571 929.122 302.243 929.122 304.707V388.131C929.122 389.539 928.99 390.639 928.726 391.431C928.55 392.135 928.242 392.707 927.802 393.147C926.834 394.115 924.81 394.599 921.73 394.599H918.562C916.714 394.599 915.35 394.511 914.47 394.335C913.59 394.071 912.886 393.719 912.358 393.279C911.39 392.487 910.906 390.771 910.906 388.131V381.927C909.058 386.151 906.066 389.583 901.93 392.223C897.882 394.863 892.866 396.183 886.882 396.183C880.898 396.183 875.574 394.643 870.91 391.563C866.246 388.483 862.638 384.259 860.086 378.891C857.534 373.435 856.258 367.319 856.258 360.543C856.258 353.503 857.622 347.167 860.35 341.535C863.078 335.815 866.862 331.327 871.702 328.071C876.542 324.815 882.042 323.187 888.202 323.187C893.218 323.187 897.662 324.287 901.534 326.487C905.494 328.599 908.574 331.679 910.774 335.727V304.707C910.774 303.299 910.862 302.287 911.038 301.671C911.302 300.967 911.698 300.351 912.226 299.823C912.754 299.295 913.458 298.899 914.338 298.635C915.306 298.371 916.846 298.239 918.958 298.239H920.674C922.874 298.239 924.414 298.371 925.294 298.635C926.262 298.811 927.01 299.163 927.538 299.691ZM892.69 380.211C898.146 380.211 902.546 378.231 905.89 374.271C909.234 370.311 910.906 365.339 910.906 359.355C910.906 353.459 909.234 348.619 905.89 344.835C902.634 341.051 898.322 339.159 892.954 339.159C887.498 339.159 883.142 341.095 879.886 344.967C876.718 348.751 875.134 353.723 875.134 359.883C875.134 366.219 876.762 371.191 880.018 374.799C883.274 378.407 887.498 380.211 892.69 380.211ZM1009.13 362.523C1008.25 363.315 1007.06 363.887 1005.56 364.239C1004.07 364.503 1001.96 364.635 999.228 364.635H962.268C963.148 369.651 965.436 373.567 969.132 376.383C972.828 379.111 977.58 380.475 983.388 380.475C987.876 380.475 992.76 379.067 998.04 376.251C999.272 375.635 1000.33 375.327 1001.21 375.327C1002.18 375.327 1003.06 375.679 1003.85 376.383C1004.64 376.999 1005.56 378.055 1006.62 379.551C1008.12 381.751 1008.86 383.511 1008.86 384.831C1008.86 386.591 1007.24 388.527 1003.98 390.639C1001.43 392.311 998.084 393.675 993.948 394.731C989.812 395.787 985.412 396.315 980.748 396.315C973.532 396.315 967.108 394.819 961.476 391.827C955.844 388.835 951.444 384.567 948.276 379.023C945.108 373.391 943.524 366.835 943.524 359.355C943.524 352.315 944.888 346.067 947.616 340.611C950.432 335.155 954.48 330.887 959.76 327.807C965.04 324.727 971.244 323.187 978.372 323.187C985.236 323.187 991.132 324.595 996.06 327.411C1000.99 330.227 1004.73 334.011 1007.28 338.763C1009.83 343.515 1011.11 348.795 1011.11 354.603C1011.11 356.715 1010.93 358.387 1010.58 359.619C1010.32 360.851 1009.83 361.819 1009.13 362.523ZM978.24 338.235C973.576 338.235 969.88 339.511 967.152 342.063C964.424 344.527 962.752 348.047 962.136 352.623H993.42C993.068 348.047 991.572 344.527 988.932 342.063C986.292 339.511 982.728 338.235 978.24 338.235ZM1065.34 323.187C1072.99 323.187 1079.02 325.739 1083.42 330.843C1087.82 335.947 1090.02 343.031 1090.02 352.095V388.131C1090.02 390.595 1089.49 392.267 1088.44 393.147C1087.91 393.675 1087.16 394.071 1086.19 394.335C1085.31 394.511 1083.77 394.599 1081.57 394.599H1079.86C1077.74 394.599 1076.2 394.467 1075.24 394.203C1074.36 393.939 1073.65 393.543 1073.12 393.015C1072.6 392.487 1072.2 391.871 1071.94 391.167C1071.76 390.463 1071.67 389.451 1071.67 388.131V355.131C1071.67 349.675 1070.57 345.627 1068.37 342.987C1066.17 340.259 1062.78 338.895 1058.21 338.895C1053.54 338.895 1049.94 340.435 1047.38 343.515C1044.83 346.507 1043.56 350.819 1043.56 356.451V388.131C1043.56 390.595 1043.03 392.267 1041.97 393.147C1041.44 393.675 1040.7 394.071 1039.73 394.335C1038.85 394.511 1037.31 394.599 1035.11 394.599H1033.39C1031.28 394.599 1029.74 394.467 1028.77 394.203C1027.89 393.939 1027.19 393.543 1026.66 393.015C1026.13 392.487 1025.74 391.871 1025.47 391.167C1025.3 390.463 1025.21 389.451 1025.21 388.131V331.371C1025.21 329.963 1025.3 328.951 1025.47 328.335C1025.74 327.631 1026.13 327.015 1026.66 326.487C1027.19 325.959 1027.89 325.563 1028.77 325.299C1029.74 325.035 1031.28 324.903 1033.39 324.903H1035.11C1037.22 324.903 1038.72 325.035 1039.6 325.299C1040.56 325.475 1041.31 325.827 1041.84 326.355C1042.9 327.235 1043.42 328.907 1043.42 331.371V335.727C1045.27 331.767 1048.09 328.687 1051.87 326.487C1055.66 324.287 1060.14 323.187 1065.34 323.187ZM1150.63 386.019C1150.81 387.427 1150.9 388.615 1150.9 389.583C1150.9 391.079 1150.59 392.223 1149.97 393.015C1149.45 393.719 1148.43 394.291 1146.94 394.731C1143.77 395.523 1140.47 395.919 1137.04 395.919C1127.71 395.919 1121.24 393.807 1117.63 389.583C1114.03 385.359 1112.22 379.155 1112.22 370.971V339.687H1107.34C1103.99 339.687 1101.88 339.247 1101 338.367C1100.56 337.927 1100.21 337.355 1099.95 336.651C1099.77 335.859 1099.68 334.759 1099.68 333.351V331.239C1099.68 329.831 1099.77 328.775 1099.95 328.071C1100.21 327.279 1100.56 326.663 1101 326.223C1101.88 325.343 1103.99 324.903 1107.34 324.903H1112.22V310.119C1112.22 308.711 1112.31 307.699 1112.49 307.083C1112.75 306.379 1113.15 305.763 1113.67 305.235C1114.2 304.707 1114.91 304.311 1115.79 304.047C1116.75 303.783 1118.29 303.651 1120.41 303.651H1122.12C1124.32 303.651 1125.86 303.783 1126.74 304.047C1127.71 304.223 1128.46 304.575 1128.99 305.103C1130.04 305.983 1130.57 307.655 1130.57 310.119V324.903H1141.13C1144.47 324.903 1146.59 325.343 1147.47 326.223C1147.91 326.663 1148.21 327.279 1148.39 328.071C1148.65 328.775 1148.79 329.831 1148.79 331.239V333.351C1148.79 334.759 1148.65 335.859 1148.39 336.651C1148.21 337.355 1147.91 337.927 1147.47 338.367C1146.59 339.247 1144.47 339.687 1141.13 339.687H1130.57V368.595C1130.57 376.691 1134.18 380.739 1141.39 380.739C1142.45 380.739 1143.42 380.651 1144.3 380.475C1145.27 380.299 1146.06 380.211 1146.67 380.211C1147.91 380.211 1148.79 380.651 1149.31 381.531C1149.93 382.411 1150.37 383.907 1150.63 386.019ZM1188.36 396.579C1183.43 396.579 1178.72 396.051 1174.24 394.995C1169.84 393.939 1165.92 392.443 1162.49 390.507C1160.9 389.627 1159.8 388.835 1159.19 388.131C1158.57 387.339 1158.26 386.503 1158.26 385.623C1158.26 384.039 1158.88 382.059 1160.11 379.683C1161.17 377.659 1162.05 376.339 1162.75 375.723C1163.46 375.019 1164.29 374.667 1165.26 374.667C1166.14 374.667 1167.46 375.151 1169.22 376.119C1172.04 377.703 1175.07 378.979 1178.33 379.947C1181.58 380.827 1184.8 381.267 1187.96 381.267C1192.1 381.267 1195.22 380.651 1197.34 379.419C1199.54 378.187 1200.64 376.427 1200.64 374.139C1200.64 372.203 1199.93 370.751 1198.52 369.783C1197.12 368.727 1195.18 367.935 1192.72 367.407L1179.91 364.635C1172.96 363.139 1167.94 360.719 1164.86 357.375C1161.78 354.031 1160.24 349.895 1160.24 344.967C1160.24 338.367 1162.75 333.043 1167.77 328.995C1172.87 324.947 1179.82 322.923 1188.62 322.923C1197.34 322.923 1205.21 324.859 1212.25 328.731C1214.63 329.963 1215.82 331.415 1215.82 333.087C1215.82 334.407 1215.24 336.211 1214.1 338.499C1213.13 340.435 1212.25 341.755 1211.46 342.459C1210.67 343.163 1209.88 343.515 1209.08 343.515C1208.29 343.515 1206.75 342.943 1204.46 341.799C1199.71 339.423 1194.61 338.235 1189.15 338.235C1181.67 338.235 1177.93 340.171 1177.93 344.043C1177.93 345.715 1178.55 347.035 1179.78 348.003C1181.1 348.883 1182.9 349.543 1185.19 349.983L1198.79 352.491C1206.09 353.811 1211.28 356.363 1214.36 360.147C1217.44 363.843 1218.98 368.199 1218.98 373.215C1218.98 380.343 1216.21 386.019 1210.67 390.243C1205.21 394.467 1197.78 396.579 1188.36 396.579Z" fill="white"/>
<line x1="1382.6" y1="19.5" x2="1382.6" y2="543.698" stroke="black" stroke-opacity="0.04" stroke-width="39" stroke-linecap="round"/>
<g clip-path="url(#clip0_181_81)">
<path d="M1766.5 285.599H1576V476.599H1766.5V285.599Z" fill="#00B67A"/>
<path d="M1972.88 285.599H1782.38V476.599H1972.88V285.599Z" fill="#00B67A"/>
<path d="M2179.25 285.599H1988.75V476.599H2179.25V285.599Z" fill="#00B67A"/>
<path d="M2385.62 285.599H2195.12V476.599H2385.62V285.599Z" fill="#00B67A"/>
<path d="M2592 285.599H2496.75V476.599H2592V285.599Z" fill="#DCDCE6"/>
<path d="M2496.75 285.599H2401.5V476.599H2496.75V285.599Z" fill="#00B67A"/>
<path d="M1671.25 414.325L1700.22 406.964L1712.33 444.368L1671.25 414.325ZM1737.92 365.978H1686.93L1671.25 317.83L1655.57 365.978H1604.57L1645.85 395.822L1630.17 443.97L1671.45 414.126L1696.85 395.822L1737.92 365.978Z" fill="white"/>
<path d="M1877.62 414.325L1906.6 406.964L1918.7 444.368L1877.62 414.325ZM1944.3 365.978H1893.3L1877.62 317.83L1861.95 365.978H1810.95L1852.22 395.822L1836.55 443.97L1877.82 414.126L1903.22 395.822L1944.3 365.978Z" fill="white"/>
<path d="M2084 414.325L2112.97 406.964L2125.08 444.368L2084 414.325ZM2150.67 365.978H2099.68L2084 317.83L2068.32 365.978H2017.32L2058.6 395.822L2042.92 443.97L2084.2 414.126L2109.6 395.822L2150.67 365.978Z" fill="white"/>
<path d="M2290.37 414.325L2319.35 406.964L2331.45 444.368L2290.37 414.325ZM2357.05 365.978H2306.05L2290.37 317.83L2274.7 365.978H2223.7L2264.97 395.822L2249.3 443.97L2290.57 414.126L2315.97 395.822L2357.05 365.978Z" fill="white"/>
<path d="M2496.75 414.325L2525.72 406.964L2537.83 444.368L2496.75 414.325ZM2563.43 365.978H2512.43L2496.75 317.83L2481.07 365.978H2430.08L2471.35 395.822L2455.67 443.97L2496.95 414.126L2522.35 395.822L2563.43 365.978Z" fill="white"/>
</g>
<path d="M1912.88 49.1547H1969.28V59.6931H1947.1V118.935H1934.91V59.6931H1912.83V49.1547H1912.88ZM1966.87 68.4095H1977.29V78.1601H1977.49C1977.83 76.7812 1978.47 75.4516 1979.41 74.1712C1980.34 72.8908 1981.47 71.6597 1982.8 70.6255C1984.13 69.5422 1985.6 68.705 1987.22 68.0156C1988.85 67.3754 1990.52 67.0306 1992.19 67.0306C1993.47 67.0306 1994.4 67.0799 1994.9 67.1291C1995.39 67.1784 1995.88 67.2769 1996.42 67.3261V78.0616C1995.63 77.9138 1994.85 77.8153 1994.01 77.7169C1993.17 77.6184 1992.39 77.5691 1991.6 77.5691C1989.73 77.5691 1987.96 77.9631 1986.29 78.7018C1984.62 79.4404 1983.19 80.5731 1981.96 82.0012C1980.73 83.4785 1979.75 85.2514 1979.01 87.4181C1978.28 89.5849 1977.93 92.0472 1977.93 94.8542V118.886H1966.82V68.4095H1966.87ZM2047.51 118.935H2036.59V111.893H2036.39C2035.02 114.454 2033 116.473 2030.3 117.999C2027.59 119.526 2024.84 120.314 2022.04 120.314C2015.4 120.314 2010.58 118.689 2007.63 115.389C2004.68 112.09 2003.2 107.116 2003.2 100.468V68.4095H2014.32V99.3847C2014.32 103.817 2015.15 106.968 2016.87 108.791C2018.55 110.613 2020.96 111.548 2024 111.548C2026.36 111.548 2028.28 111.204 2029.86 110.465C2031.43 109.726 2032.71 108.791 2033.64 107.559C2034.62 106.378 2035.31 104.9 2035.76 103.226C2036.2 101.551 2036.39 99.7294 2036.39 97.7596V68.4588H2047.51V118.935ZM2066.44 102.733C2066.78 105.984 2068.01 108.249 2070.13 109.578C2072.29 110.859 2074.85 111.548 2077.85 111.548C2078.88 111.548 2080.06 111.45 2081.39 111.302C2082.71 111.154 2083.99 110.81 2085.12 110.366C2086.3 109.923 2087.24 109.234 2088.02 108.347C2088.76 107.461 2089.11 106.328 2089.06 104.9C2089.01 103.472 2088.47 102.29 2087.48 101.404C2086.5 100.468 2085.27 99.7787 2083.75 99.1877C2082.22 98.646 2080.5 98.1536 2078.53 97.7596C2076.57 97.3657 2074.6 96.9225 2072.58 96.4792C2070.52 96.036 2068.5 95.4451 2066.59 94.8049C2064.67 94.1647 2062.95 93.2783 2061.42 92.1457C2059.9 91.0623 2058.67 89.6342 2057.78 87.9106C2056.85 86.187 2056.41 84.0695 2056.41 81.5087C2056.41 78.751 2057.1 76.4857 2058.42 74.6144C2059.75 72.7431 2061.47 71.2657 2063.49 70.1331C2065.55 69.0005 2067.81 68.2125 2070.32 67.7201C2072.83 67.2769 2075.24 67.0306 2077.5 67.0306C2080.11 67.0306 2082.61 67.3261 2084.97 67.8678C2087.34 68.4095 2089.5 69.2959 2091.42 70.5763C2093.33 71.8074 2094.91 73.4325 2096.19 75.4023C2097.46 77.3721 2098.25 79.7851 2098.6 82.5921H2086.99C2086.45 79.9329 2085.27 78.1108 2083.35 77.2244C2081.43 76.2887 2079.22 75.8455 2076.76 75.8455C2075.98 75.8455 2075.04 75.8948 2073.96 76.0425C2072.88 76.1902 2071.9 76.4365 2070.91 76.7812C2069.98 77.1259 2069.19 77.6676 2068.5 78.357C2067.86 79.0465 2067.52 79.9329 2067.52 81.0655C2067.52 82.4444 2068.01 83.5278 2068.95 84.3649C2069.88 85.2021 2071.11 85.8915 2072.63 86.4825C2074.16 87.0242 2075.88 87.5166 2077.85 87.9106C2079.81 88.3046 2081.83 88.7478 2083.89 89.191C2085.91 89.6342 2087.88 90.2251 2089.84 90.8653C2091.81 91.5055 2093.53 92.3919 2095.05 93.5245C2096.58 94.6572 2097.81 96.036 2098.74 97.7104C2099.68 99.3847 2100.17 101.502 2100.17 103.965C2100.17 106.968 2099.48 109.48 2098.1 111.598C2096.73 113.666 2094.96 115.389 2092.79 116.67C2090.63 117.95 2088.17 118.935 2085.52 119.526C2082.86 120.117 2080.21 120.412 2077.6 120.412C2074.4 120.412 2071.45 120.068 2068.75 119.329C2066.04 118.59 2063.68 117.507 2061.72 116.079C2059.75 114.601 2058.18 112.779 2057.05 110.613C2055.92 108.446 2055.33 105.836 2055.23 102.832H2066.44V102.733ZM2103.12 68.4095H2111.53V53.242H2122.64V68.4095H2132.67V76.7319H2122.64V103.718C2122.64 104.9 2122.69 105.885 2122.79 106.771C2122.89 107.609 2123.13 108.347 2123.48 108.938C2123.82 109.529 2124.36 109.972 2125.1 110.268C2125.84 110.563 2126.77 110.711 2128.05 110.711C2128.83 110.711 2129.62 110.711 2130.41 110.662C2131.19 110.613 2131.98 110.514 2132.77 110.317V118.935C2131.54 119.083 2130.31 119.181 2129.18 119.329C2128 119.477 2126.82 119.526 2125.59 119.526C2122.64 119.526 2120.28 119.231 2118.51 118.689C2116.74 118.147 2115.31 117.31 2114.33 116.227C2113.3 115.143 2112.66 113.814 2112.26 112.188C2111.92 110.563 2111.67 108.692 2111.63 106.624V76.8304H2103.22V68.4095H2103.12ZM2140.54 68.4095H2151.06V75.2546H2151.26C2152.83 72.2999 2154.99 70.2316 2157.8 68.9512C2160.6 67.6708 2163.6 67.0306 2166.89 67.0306C2170.88 67.0306 2174.32 67.7201 2177.27 69.1482C2180.22 70.5271 2182.68 72.4476 2184.64 74.9099C2186.61 77.3721 2188.04 80.2284 2189.02 83.4785C2190 86.7287 2190.49 90.2251 2190.49 93.9185C2190.49 97.3164 2190.05 100.616 2189.17 103.768C2188.28 106.968 2186.95 109.775 2185.18 112.238C2183.41 114.7 2181.15 116.621 2178.4 118.098C2175.64 119.575 2172.45 120.314 2168.71 120.314C2167.09 120.314 2165.47 120.166 2163.84 119.871C2162.22 119.575 2160.65 119.083 2159.17 118.443C2157.7 117.802 2156.27 116.965 2155.04 115.931C2153.76 114.897 2152.73 113.715 2151.85 112.385H2151.65V137.599H2140.54V68.4095ZM2179.38 93.7215C2179.38 91.4562 2179.09 89.2402 2178.5 87.0734C2177.91 84.9066 2177.02 83.0353 2175.84 81.361C2174.66 79.6867 2173.19 78.357 2171.47 77.3721C2169.7 76.3872 2167.68 75.8455 2165.42 75.8455C2160.75 75.8455 2157.21 77.4706 2154.85 80.7208C2152.49 83.971 2151.31 88.3046 2151.31 93.7215C2151.31 96.2823 2151.6 98.646 2152.24 100.813C2152.88 102.98 2153.76 104.851 2155.04 106.427C2156.27 108.003 2157.75 109.234 2159.47 110.12C2161.19 111.056 2163.2 111.499 2165.47 111.499C2168.02 111.499 2170.14 110.957 2171.91 109.923C2173.68 108.889 2175.1 107.51 2176.23 105.885C2177.37 104.211 2178.2 102.339 2178.69 100.222C2179.14 98.1043 2179.38 95.9376 2179.38 93.7215ZM2199 49.1547H2210.11V59.6931H2199V49.1547ZM2199 68.4095H2210.11V118.935H2199V68.4095ZM2220.05 49.1547H2231.16V118.935H2220.05V49.1547ZM2265.23 120.314C2261.2 120.314 2257.61 119.624 2254.46 118.295C2251.32 116.965 2248.66 115.094 2246.45 112.779C2244.29 110.416 2242.61 107.609 2241.48 104.358C2240.35 101.108 2239.76 97.5134 2239.76 93.623C2239.76 89.7819 2240.35 86.2363 2241.48 82.9861C2242.61 79.7359 2244.29 76.9289 2246.45 74.5652C2248.61 72.2014 2251.32 70.3793 2254.46 69.0497C2257.61 67.7201 2261.2 67.0306 2265.23 67.0306C2269.26 67.0306 2272.85 67.7201 2276 69.0497C2279.15 70.3793 2281.8 72.2506 2284.02 74.5652C2286.18 76.9289 2287.85 79.7359 2288.98 82.9861C2290.11 86.2363 2290.7 89.7819 2290.7 93.623C2290.7 97.5134 2290.11 101.108 2288.98 104.358C2287.85 107.609 2286.18 110.416 2284.02 112.779C2281.85 115.143 2279.15 116.965 2276 118.295C2272.85 119.624 2269.26 120.314 2265.23 120.314ZM2265.23 111.499C2267.69 111.499 2269.85 110.957 2271.67 109.923C2273.49 108.889 2274.97 107.51 2276.15 105.836C2277.33 104.161 2278.16 102.241 2278.75 100.123C2279.3 98.0059 2279.59 95.8391 2279.59 93.623C2279.59 91.4562 2279.3 89.3387 2278.75 87.1719C2278.21 85.0051 2277.33 83.1338 2276.15 81.4595C2274.97 79.7851 2273.49 78.4555 2271.67 77.4214C2269.85 76.3872 2267.69 75.8455 2265.23 75.8455C2262.77 75.8455 2260.61 76.3872 2258.79 77.4214C2256.97 78.4555 2255.5 79.8344 2254.32 81.4595C2253.14 83.1338 2252.3 85.0051 2251.71 87.1719C2251.17 89.3387 2250.88 91.4562 2250.88 93.623C2250.88 95.8391 2251.17 98.0059 2251.71 100.123C2252.25 102.241 2253.14 104.161 2254.32 105.836C2255.5 107.51 2256.97 108.889 2258.79 109.923C2260.61 111.007 2262.77 111.499 2265.23 111.499ZM2293.95 68.4095H2302.36V53.242H2313.47V68.4095H2323.5V76.7319H2313.47V103.718C2313.47 104.9 2313.52 105.885 2313.62 106.771C2313.71 107.609 2313.96 108.347 2314.3 108.938C2314.65 109.529 2315.19 109.972 2315.93 110.268C2316.66 110.563 2317.6 110.711 2318.88 110.711C2319.66 110.711 2320.45 110.711 2321.24 110.662C2322.02 110.613 2322.81 110.514 2323.6 110.317V118.935C2322.37 119.083 2321.14 119.181 2320.01 119.329C2318.83 119.477 2317.65 119.526 2316.42 119.526C2313.47 119.526 2311.11 119.231 2309.34 118.689C2307.57 118.147 2306.14 117.31 2305.16 116.227C2304.13 115.143 2303.49 113.814 2303.09 112.188C2302.75 110.563 2302.5 108.692 2302.45 106.624V76.8304H2294.05V68.4095H2293.95Z" fill="white"/>
<path d="M1899.9 49.1547H1848.96L1833.22 0.598999L1817.44 49.1547L1766.5 49.1055L1807.75 79.145L1791.97 127.651L1833.22 97.6612L1874.43 127.651L1858.69 79.145L1899.9 49.1547Z" fill="#00B67A"/>
<path d="M1862.24 90.1267L1858.69 79.145L1833.22 97.6612L1862.24 90.1267Z" fill="#005128"/>
<defs>
<clipPath id="clip0_181_81">
<rect width="1016" height="191" fill="white" transform="translate(1576 285.599)"/>
</clipPath>
</defs>
</svg>
