<svg width="24" height="24" viewBox="0 0 24 24" fill="none" xmlns="http://www.w3.org/2000/svg">
<g clip-path="url(#clip0_6_67)">
<path opacity="0.2" d="M4.129 24C3.60839 23.9999 3.10142 23.8335 2.68208 23.525C2.26274 23.2165 1.95298 22.782 1.79799 22.285C1.643 21.788 1.65091 21.2545 1.82055 20.7623C1.9902 20.2701 2.3127 19.845 2.741 19.549C2.34517 18.9587 2.12816 18.2666 2.116 17.556L2 14.135C1.99098 13.5641 2.15672 13.0041 2.475 12.53L8.953 3.279C9.39026 2.5727 9.99484 1.98504 10.7133 1.56801C11.4317 1.15098 12.2418 0.91742 13.072 0.888C14.2855 0.932408 15.4554 1.35162 16.421 2.088C17.0468 2.47322 17.5884 2.98079 18.0133 3.58031C18.4382 4.17982 18.7378 4.85895 18.894 5.577C18.988 6.29963 18.9354 7.0338 18.7393 7.73565C18.5433 8.43751 18.2078 9.09266 17.753 9.662L16.9 10.9C16.867 10.947 16.831 10.994 16.794 11.039L12.156 17.665L19.45 16.378C19.5903 16.3534 19.7325 16.341 19.875 16.341C20.4858 16.3411 21.0744 16.5702 21.5247 16.9829C21.9749 17.3957 22.2542 17.9622 22.3073 18.5707C22.3604 19.1792 22.1835 19.7855 21.8116 20.27C21.4396 20.7545 20.8996 21.0821 20.298 21.188L4.554 23.963C4.41367 23.9876 4.27147 24 4.129 24Z" fill="#1A1A1A"/>
<path d="M4.129 23.112C3.60839 23.1119 3.10142 22.9455 2.68208 22.637C2.26274 22.3285 1.95298 21.894 1.79799 21.397C1.643 20.9 1.65091 20.3665 1.82055 19.8743C1.9902 19.3821 2.3127 18.957 2.741 18.661C2.34517 18.0707 2.12816 17.3786 2.116 16.668L2 13.247C1.99098 12.6761 2.15672 12.1161 2.475 11.642L8.953 2.391C9.39026 1.6847 9.99484 1.09704 10.7133 0.680009C11.4317 0.262975 12.2418 0.0294194 13.072 0C14.2855 0.0444078 15.4554 0.463619 16.421 1.2C17.0469 1.58533 17.5885 2.09306 18.0135 2.69275C18.4384 3.29245 18.7379 3.97177 18.894 4.69C18.988 5.41263 18.9354 6.1468 18.7393 6.84865C18.5433 7.5505 18.2078 8.20566 17.753 8.775L16.9 10.011C16.867 10.058 16.831 10.105 16.794 10.15L12.156 16.776L19.45 15.489C20.0876 15.3784 20.743 15.5245 21.2732 15.8955C21.8035 16.2665 22.1654 16.8321 22.28 17.469C22.3358 17.785 22.3288 18.1089 22.2594 18.4221C22.19 18.7354 22.0595 19.0319 21.8755 19.2947C21.6914 19.5576 21.4574 19.7815 21.1867 19.9538C20.916 20.1262 20.614 20.2435 20.298 20.299L4.554 23.075C4.41367 23.0996 4.27147 23.112 4.129 23.112Z" fill="#F2F2F2"/>
<path d="M20.526 17.779C20.5411 17.8652 20.5391 17.9534 20.5201 18.0388C20.5011 18.1242 20.4654 18.205 20.4152 18.2766C20.3649 18.3481 20.3011 18.4091 20.2273 18.4561C20.1535 18.503 20.0711 18.5349 19.985 18.55L4.245 21.326C4.15886 21.3412 4.07056 21.3392 3.98517 21.3203C3.89978 21.3013 3.81895 21.2657 3.74731 21.2155C3.60263 21.1142 3.50414 20.9595 3.4735 20.7855C3.44287 20.6115 3.48261 20.4325 3.58397 20.2878C3.68533 20.1431 3.84002 20.0446 4.014 20.014L19.754 17.238C19.9281 17.2075 20.1072 17.2473 20.2519 17.3488C20.3967 17.4502 20.4953 17.6049 20.526 17.779ZM15.093 9.15201C15.1295 9.157 15.1665 9.157 15.203 9.15201C15.2979 9.13402 15.382 9.07943 15.437 9L16.3 7.753C16.6182 7.37424 16.8569 6.9353 17.0019 6.46233C17.1469 5.98936 17.1953 5.49204 17.144 5C17.0265 4.51182 16.8115 4.05247 16.5117 3.64963C16.212 3.24678 15.8338 2.90879 15.4 2.656C13.4 1.256 11.739 1.506 10.3 3.556L9.431 4.8C9.39432 4.85287 9.37239 4.91455 9.36746 4.9787C9.36254 5.04286 9.37481 5.10717 9.403 5.165C9.93905 6.25489 10.7416 7.19176 11.7363 7.88874C12.731 8.58572 13.8856 9.02024 15.093 9.15201ZM5.9 18.328C6.00519 18.3096 6.10882 18.2832 6.21 18.249L9.48 17.184C9.65473 17.1175 9.80769 17.004 9.922 16.856L14.447 10.394C12.189 10.152 9.206 8.253 8.447 6.194L3.931 12.658C3.8317 12.8165 3.77743 12.999 3.774 13.186L3.891 16.62C3.88829 16.9009 3.95201 17.1785 4.07696 17.4302C4.2019 17.6818 4.38455 17.9004 4.61 18.068C4.79732 18.1941 5.0077 18.282 5.22907 18.3267C5.45045 18.3713 5.67845 18.3717 5.9 18.328Z" fill="#9E4EFF"/>
</g>
<defs>
<clipPath id="clip0_6_67">
<rect width="24" height="24" fill="white"/>
</clipPath>
</defs>
</svg>
