<svg xmlns="http://www.w3.org/2000/svg" xmlns:xlink="http://www.w3.org/1999/xlink" zoomAndPan="magnify" preserveAspectRatio="xMidYMid meet" version="1.0" viewBox="8.59 25.01 793.21 762.38"><defs><g/></defs><g fill="#000000" fill-opacity="1"><g transform="translate(-90.48304, 1369.996575)"><g><path d="M 887.109375 -1026.109375 L 860.53125 -1111.953125 C 846.21875 -1156.921875 819.65625 -1161.015625 784.90625 -1150.796875 L 590.71875 -1077.203125 L 598.890625 -1285.703125 C 598.890625 -1322.5 586.625 -1344.984375 539.609375 -1344.984375 L 449.6875 -1344.984375 C 402.6875 -1344.984375 390.421875 -1322.5 390.421875 -1285.703125 L 400.640625 -1077.203125 L 206.453125 -1150.796875 C 171.703125 -1161.015625 145.125 -1156.921875 130.8125 -1111.953125 L 104.25 -1026.109375 C 89.9375 -981.140625 106.296875 -962.734375 141.046875 -952.515625 L 341.359375 -897.328125 L 212.578125 -733.796875 C 190.09375 -705.1875 188.046875 -678.609375 224.84375 -652.046875 L 298.4375 -598.890625 C 337.265625 -570.28125 359.75 -582.546875 380.203125 -611.15625 L 494.65625 -784.90625 L 609.109375 -611.15625 C 631.59375 -582.546875 654.078125 -570.28125 692.921875 -598.890625 L 766.515625 -652.046875 C 803.296875 -678.609375 801.25 -705.1875 778.765625 -733.796875 L 650 -897.328125 L 850.3125 -952.515625 C 885.0625 -962.734375 901.421875 -981.140625 887.109375 -1026.109375 Z M 887.109375 -1026.109375 "/></g></g></g></svg>