<svg xmlns="http://www.w3.org/2000/svg" xmlns:xlink="http://www.w3.org/1999/xlink" width="270" zoomAndPan="magnify" viewBox="0 0 202.5 40.499999" height="54" preserveAspectRatio="xMidYMid meet" version="1.0"><defs><g/></defs><g fill="#000000" fill-opacity="1"><g transform="translate(0.987808, 60.565066)"><g><path d="M 38.3125 -44.3125 L 37.171875 -48.03125 C 36.546875 -49.96875 35.40625 -50.140625 33.90625 -49.703125 L 25.515625 -46.53125 L 25.859375 -55.53125 C 25.859375 -57.125 25.34375 -58.09375 23.3125 -58.09375 L 19.421875 -58.09375 C 17.390625 -58.09375 16.859375 -57.125 16.859375 -55.53125 L 17.296875 -46.53125 L 8.921875 -49.703125 C 7.421875 -50.140625 6.265625 -49.96875 5.65625 -48.03125 L 4.5 -44.3125 C 3.890625 -42.375 4.59375 -41.578125 6.09375 -41.140625 L 14.75 -38.75 L 9.1875 -31.6875 C 8.203125 -30.453125 8.125 -29.3125 9.703125 -28.15625 L 12.890625 -25.859375 C 14.5625 -24.625 15.53125 -25.15625 16.421875 -26.390625 L 21.359375 -33.90625 L 26.3125 -26.390625 C 27.28125 -25.15625 28.25 -24.625 29.921875 -25.859375 L 33.109375 -28.15625 C 34.6875 -29.3125 34.609375 -30.453125 33.640625 -31.6875 L 28.078125 -38.75 L 36.71875 -41.140625 C 38.21875 -41.578125 38.9375 -42.375 38.3125 -44.3125 Z M 38.3125 -44.3125 "/></g></g></g><g fill="#000000" fill-opacity="1"><g transform="translate(49.800085, 31.397085)"><g><path d="M 25.09375 -19.609375 C 27.726562 -19.640625 29.867188 -18.859375 31.515625 -17.265625 C 33.285156 -15.585938 34.171875 -13.238281 34.171875 -10.21875 L 34.171875 0 L 29.234375 0 L 29.234375 -9.890625 C 29.234375 -10.265625 29.171875 -10.691406 29.046875 -11.171875 C 28.867188 -11.753906 28.628906 -12.273438 28.328125 -12.734375 C 27.515625 -14.023438 26.320312 -14.671875 24.75 -14.671875 C 23.070312 -14.671875 21.851562 -14.023438 21.09375 -12.734375 C 20.820312 -12.253906 20.617188 -11.707031 20.484375 -11.09375 C 20.390625 -10.664062 20.34375 -10.238281 20.34375 -9.8125 L 20.34375 0 L 15.359375 0 L 15.359375 -9.890625 C 15.359375 -10.265625 15.296875 -10.691406 15.171875 -11.171875 C 15.015625 -11.753906 14.785156 -12.273438 14.484375 -12.734375 C 13.648438 -14.023438 12.457031 -14.671875 10.90625 -14.671875 C 9.207031 -14.671875 7.976562 -14.023438 7.21875 -12.734375 C 6.945312 -12.253906 6.742188 -11.707031 6.609375 -11.09375 C 6.515625 -10.664062 6.46875 -10.238281 6.46875 -9.8125 L 6.46875 0 L 1.140625 0 L 1.140625 -19.65625 L 6.46875 -19.65625 L 6.46875 -17.59375 C 7.707031 -18.9375 9.300781 -19.609375 11.25 -19.609375 C 14.113281 -19.660156 16.429688 -18.5625 18.203125 -16.3125 L 19.8125 -17.796875 C 21.300781 -19.003906 23.0625 -19.609375 25.09375 -19.609375 Z M 25.09375 -19.609375 "/></g></g></g><g fill="#000000" fill-opacity="1"><g transform="translate(85.118706, 31.397085)"><g><path d="M 15.203125 -19.65625 L 20.53125 -19.65625 L 20.53125 0 L 15.203125 0 L 15.203125 -2.203125 C 14.117188 -0.785156 12.472656 -0.078125 10.265625 -0.078125 C 7.578125 -0.046875 5.269531 -0.984375 3.34375 -2.890625 C 1.414062 -4.785156 0.441406 -7.09375 0.421875 -9.8125 C 0.390625 -12.5 1.328125 -14.804688 3.234375 -16.734375 C 5.128906 -18.648438 7.4375 -19.625 10.15625 -19.65625 C 12.382812 -19.65625 14.066406 -18.929688 15.203125 -17.484375 Z M 13.609375 -6.46875 C 14.546875 -7.40625 15.015625 -8.546875 15.015625 -9.890625 C 15.015625 -11.253906 14.535156 -12.394531 13.578125 -13.3125 C 12.609375 -14.269531 11.476562 -14.722656 10.1875 -14.671875 C 8.84375 -14.671875 7.703125 -14.203125 6.765625 -13.265625 C 5.828125 -12.328125 5.359375 -11.1875 5.359375 -9.84375 C 5.359375 -8.53125 5.84375 -7.390625 6.8125 -6.421875 C 7.75 -5.484375 8.882812 -5.015625 10.21875 -5.015625 C 11.59375 -5.066406 12.722656 -5.550781 13.609375 -6.46875 Z M 13.609375 -6.46875 "/></g></g></g><g fill="#000000" fill-opacity="1"><g transform="translate(106.788903, 31.397085)"><g><path d="M 6.46875 -16.65625 C 6.894531 -17.863281 7.613281 -18.710938 8.625 -19.203125 C 9.613281 -19.679688 11.097656 -19.921875 13.078125 -19.921875 L 13.078125 -14.484375 C 11.148438 -14.484375 9.539062 -13.820312 8.25 -12.5 C 7.0625 -11.34375 6.46875 -10.066406 6.46875 -8.671875 L 6.46875 0 L 1.140625 0 L 1.140625 -19.578125 L 6.46875 -19.578125 Z M 6.46875 -16.65625 "/></g></g></g><g fill="#000000" fill-opacity="1"><g transform="translate(120.437328, 31.397085)"><g><path d="M 14.640625 0 L 8.28125 -7.609375 L 6.46875 -5.8125 L 6.46875 0 L 1.140625 0 L 1.140625 -26.421875 L 6.46875 -26.421875 L 6.46875 -13.34375 L 12.703125 -19.578125 L 20.21875 -19.546875 L 12.015625 -11.359375 L 21.703125 0 Z M 14.640625 0 "/></g></g></g><g fill="#000000" fill-opacity="1"><g transform="translate(143.286078, 31.397085)"><g><path d="M 25.09375 -19.609375 C 27.726562 -19.640625 29.867188 -18.859375 31.515625 -17.265625 C 33.285156 -15.585938 34.171875 -13.238281 34.171875 -10.21875 L 34.171875 0 L 29.234375 0 L 29.234375 -9.890625 C 29.234375 -10.265625 29.171875 -10.691406 29.046875 -11.171875 C 28.867188 -11.753906 28.628906 -12.273438 28.328125 -12.734375 C 27.515625 -14.023438 26.320312 -14.671875 24.75 -14.671875 C 23.070312 -14.671875 21.851562 -14.023438 21.09375 -12.734375 C 20.820312 -12.253906 20.617188 -11.707031 20.484375 -11.09375 C 20.390625 -10.664062 20.34375 -10.238281 20.34375 -9.8125 L 20.34375 0 L 15.359375 0 L 15.359375 -9.890625 C 15.359375 -10.265625 15.296875 -10.691406 15.171875 -11.171875 C 15.015625 -11.753906 14.785156 -12.273438 14.484375 -12.734375 C 13.648438 -14.023438 12.457031 -14.671875 10.90625 -14.671875 C 9.207031 -14.671875 7.976562 -14.023438 7.21875 -12.734375 C 6.945312 -12.253906 6.742188 -11.707031 6.609375 -11.09375 C 6.515625 -10.664062 6.46875 -10.238281 6.46875 -9.8125 L 6.46875 0 L 1.140625 0 L 1.140625 -19.65625 L 6.46875 -19.65625 L 6.46875 -17.59375 C 7.707031 -18.9375 9.300781 -19.609375 11.25 -19.609375 C 14.113281 -19.660156 16.429688 -18.5625 18.203125 -16.3125 L 19.8125 -17.796875 C 21.300781 -19.003906 23.0625 -19.609375 25.09375 -19.609375 Z M 25.09375 -19.609375 "/></g></g></g><g fill="#000000" fill-opacity="1"><g transform="translate(178.604694, 31.397085)"><g><path d="M 20 -8.9375 C 20.019531 -8.40625 20.019531 -8.085938 20 -7.984375 L 5.703125 -8.015625 C 5.898438 -7.429688 6.269531 -6.875 6.8125 -6.34375 C 7.789062 -5.40625 8.925781 -4.9375 10.21875 -4.9375 C 11.59375 -4.988281 12.734375 -5.472656 13.640625 -6.390625 L 13.796875 -6.53125 L 18.734375 -4.984375 C 17.648438 -3.285156 16.507812 -2.066406 15.3125 -1.328125 C 13.976562 -0.460938 12.296875 -0.0195312 10.265625 0 C 7.578125 0.0195312 5.269531 -0.914062 3.34375 -2.8125 C 1.414062 -4.71875 0.441406 -7.023438 0.421875 -9.734375 C 0.390625 -12.421875 1.328125 -14.726562 3.234375 -16.65625 C 5.128906 -18.582031 7.4375 -19.554688 10.15625 -19.578125 C 12.84375 -19.597656 15.144531 -18.660156 17.0625 -16.765625 C 18.988281 -14.859375 19.96875 -12.550781 20 -9.84375 Z M 10.1875 -14.59375 C 8.84375 -14.59375 7.703125 -14.125 6.765625 -13.1875 C 6.285156 -12.65625 5.941406 -12.125 5.734375 -11.59375 L 14.671875 -11.59375 C 14.472656 -12.125 14.117188 -12.671875 13.609375 -13.234375 C 12.648438 -14.140625 11.507812 -14.59375 10.1875 -14.59375 Z M 10.1875 -14.59375 "/></g></g></g></svg>