<svg width="24" height="24" viewBox="0 0 24 24" fill="none" xmlns="http://www.w3.org/2000/svg">
<g clip-path="url(#clip0_1_2)">
<path opacity="0.2" d="M9.758 24C8.29341 24.0009 6.87546 23.485 5.75392 22.5431C4.63238 21.6012 3.87918 20.2937 3.627 18.851L2.583 12.925C2.52114 12.576 2.52861 12.2181 2.605 11.872C2.05272 11.6276 1.57214 11.2459 1.20895 10.7633C0.845766 10.2808 0.612041 9.71336 0.53 9.115L0.0659998 6.489C-0.0400412 6.01429 -0.0459704 5.52268 0.0485904 5.04555C0.143151 4.56842 0.336126 4.11624 0.615203 3.71785C0.89428 3.31947 1.25333 2.98363 1.66945 2.73175C2.08557 2.47988 2.54962 2.31751 3.032 2.255L5.657 1.792C5.90521 1.7475 6.15683 1.72475 6.409 1.724C7.22727 1.71082 8.0235 1.98947 8.655 2.51C9.00579 2.23343 9.41991 2.04854 9.86 1.972L15.336 1.006C15.6952 0.943 16.0593 0.911214 16.424 0.910997C17.8886 0.910157 19.3065 1.42626 20.4279 2.36838C21.5493 3.3105 22.3022 4.61818 22.554 6.061L23.469 11.25C23.5617 11.7646 23.503 12.2951 23.3 12.777C23.6475 13.1239 23.8797 13.5694 23.965 14.053C24.0192 14.3595 24.0122 14.6737 23.9444 14.9775C23.8766 15.2813 23.7494 15.5686 23.57 15.823L19.526 21.642C19.3482 21.9061 19.1183 22.1311 18.8504 22.3031C18.5825 22.475 18.2822 22.5904 17.968 22.642L10.845 23.9C10.4862 23.9647 10.1225 23.9981 9.758 24Z" fill="#1A1A1A"/>
<path d="M9.758 23.089C8.29341 23.0899 6.87546 22.574 5.75392 21.6321C4.63238 20.6902 3.87918 19.3827 3.627 17.94L2.583 12.018C2.52114 11.669 2.52861 11.3112 2.605 10.965C2.05285 10.7206 1.57236 10.3392 1.20918 9.85678C0.846 9.37441 0.612202 8.80718 0.53 8.209L0.0659998 5.582C-0.0400412 5.10729 -0.0459704 4.61569 0.0485904 4.13856C0.143151 3.66143 0.336126 3.20924 0.615203 2.81086C0.89428 2.41247 1.25333 2.07663 1.66945 1.82476C2.08557 1.57289 2.54962 1.41051 3.032 1.348L5.657 0.885001C5.90521 0.840505 6.15683 0.817752 6.409 0.817001C7.2269 0.802984 8.02308 1.08055 8.655 1.6C9.00609 1.32451 9.42018 1.14066 9.86 1.065L15.336 0.100001C15.6951 0.0353279 16.0591 0.00186963 16.424 1.02291e-06C17.8886 -0.000838631 19.3065 0.515269 20.4279 1.45739C21.5493 2.39951 22.3022 3.70718 22.554 5.15L23.469 10.339C23.562 10.862 23.876 12.639 23.969 13.139C24.0232 13.4455 24.0162 13.7597 23.9484 14.0635C23.8806 14.3673 23.7534 14.6546 23.574 14.909L19.53 20.728C19.3522 20.9921 19.1223 21.2171 18.8544 21.3891C18.5865 21.5611 18.2862 21.6764 17.972 21.728L10.849 22.984C10.4901 23.047 10.1264 23.0788 9.762 23.079L9.758 23.089Z" fill="#F2F2F2"/>
<path d="M7.075 8.924C7.32272 8.90359 7.5629 8.82885 7.77846 8.70509C7.99402 8.58133 8.17967 8.41161 8.32221 8.20797C8.46474 8.00434 8.56066 7.7718 8.60314 7.5269C8.64562 7.282 8.63362 7.03074 8.568 6.791L8.105 4.165C8.08469 3.91731 8.01007 3.67712 7.88643 3.46153C7.7628 3.24594 7.59318 3.06023 7.38965 2.9176C7.18612 2.77498 6.95367 2.67894 6.70883 2.63632C6.46398 2.5937 6.21275 2.60554 5.973 2.671L3.347 3.134C3.09926 3.15445 2.85907 3.2292 2.64348 3.35295C2.42789 3.47669 2.24219 3.6464 2.09958 3.85C1.95698 4.0536 1.86095 4.28611 1.81833 4.53101C1.77572 4.77591 1.78755 5.02719 1.853 5.267L2.316 7.893C2.33645 8.14074 2.4112 8.38093 2.53495 8.59652C2.65869 8.81211 2.82839 8.99781 3.032 9.14042C3.2356 9.28303 3.46811 9.37905 3.71301 9.42167C3.95791 9.46428 4.20919 9.45245 4.449 9.387L7.075 8.924ZM22.178 13.465C22.191 13.5366 22.1895 13.61 22.1735 13.681C22.1575 13.7519 22.1274 13.8189 22.085 13.878C21.02 15.41 19.125 18.139 18.037 19.703C17.9937 19.7699 17.9367 19.827 17.8699 19.8704C17.803 19.9138 17.7278 19.9426 17.649 19.955C17.4965 19.983 17.3391 19.9494 17.2114 19.8614C17.0837 19.7735 16.9962 19.6385 16.968 19.486L16.416 16.36C16.3167 15.7155 16.4759 15.0578 16.8588 14.53C17.2417 14.0021 17.8175 13.6467 18.461 13.541C19.308 13.382 20.487 13.174 21.496 12.996C21.5714 12.9814 21.649 12.9819 21.7242 12.9975C21.7994 13.013 21.8708 13.0434 21.9342 13.0867C21.9977 13.13 22.0519 13.1855 22.0937 13.2499C22.1355 13.3144 22.1642 13.3864 22.178 13.462V13.465ZM15.651 1.886L10.176 2.851C9.93984 2.89345 9.73004 3.02755 9.59235 3.22406C9.45467 3.42056 9.40026 3.66354 9.441 3.9L9.992 7.026C10.0546 7.37805 10.0471 7.73899 9.97003 8.08815C9.89294 8.43731 9.74774 8.76783 9.54273 9.0608C9.33773 9.35377 9.07696 9.60342 8.77534 9.79547C8.47372 9.98752 8.13719 10.1182 7.785 10.18L5.105 10.652C4.86911 10.6947 4.65956 10.8287 4.52178 11.0249C4.38401 11.221 4.32911 11.4636 4.369 11.7L5.414 17.622C5.51459 18.1932 5.72673 18.739 6.03829 19.2282C6.34985 19.7175 6.75473 20.1405 7.22981 20.4732C7.70489 20.806 8.24086 21.0418 8.80712 21.1674C9.37337 21.293 9.95881 21.3057 10.53 21.205L14.836 20.446C15.0724 20.4033 15.2824 20.2689 15.4201 20.072C15.5578 19.8751 15.612 19.6317 15.571 19.395L15.077 16.595C14.9125 15.5949 15.1517 14.5703 15.7419 13.7463C16.3321 12.9223 17.2251 12.3662 18.225 12.2C18.697 12.107 19.849 11.9 20.948 11.71C21.0656 11.6901 21.178 11.647 21.2788 11.5833C21.3796 11.5196 21.4667 11.4364 21.5351 11.3387C21.6035 11.241 21.6518 11.1307 21.6772 11.0142C21.7026 10.8977 21.7045 10.7773 21.683 10.66L20.768 5.47C20.6675 4.8986 20.4554 4.35259 20.1439 3.86318C19.8323 3.37378 19.4273 2.95056 18.9521 2.61773C18.4769 2.28489 17.9408 2.04895 17.3744 1.9234C16.8079 1.79785 16.2223 1.78514 15.651 1.886ZM10.951 16.538L8.593 16.954C8.41602 16.981 8.23549 16.9377 8.09005 16.8333C7.94461 16.7289 7.84583 16.5717 7.81485 16.3954C7.78387 16.2191 7.82316 16.0376 7.9243 15.8899C8.02544 15.7422 8.1804 15.6399 8.356 15.605L10.714 15.189C10.891 15.162 11.0715 15.2053 11.2169 15.3097C11.3624 15.4141 11.4612 15.5713 11.4921 15.7476C11.5231 15.9239 11.4838 16.1054 11.3827 16.2531C11.2816 16.4008 11.1266 16.5031 10.951 16.538ZM12.859 12.785L8.009 13.64C7.83144 13.6685 7.64981 13.626 7.5033 13.5217C7.35679 13.4175 7.25716 13.2598 7.22592 13.0827C7.19468 12.9056 7.23432 12.7233 7.3363 12.5752C7.43828 12.4271 7.59442 12.325 7.771 12.291L12.621 11.436C12.7102 11.4188 12.802 11.4196 12.8909 11.4382C12.9798 11.4568 13.0641 11.4929 13.139 11.5445C13.2138 11.596 13.2776 11.6619 13.3268 11.7383C13.3759 11.8147 13.4093 11.9002 13.4251 11.9896C13.4409 12.0791 13.4387 12.1708 13.4187 12.2594C13.3987 12.3481 13.3613 12.4318 13.3086 12.5059C13.2559 12.5799 13.189 12.6427 13.1118 12.6906C13.0347 12.7385 12.9487 12.7706 12.859 12.785Z" fill="#FE2C5D"/>
<g clip-path="url(#clip1_1_2)">
<path d="M5.87161 7.29458C5.91321 7.38007 5.91598 7.46518 5.87992 7.54992C5.84307 7.63073 5.77758 7.68056 5.68345 7.69941L5.51284 7.73358C5.45793 7.74458 5.40145 7.73754 5.34339 7.71245C5.28925 7.68658 5.24728 7.65011 5.21745 7.60305L4.85838 6.97127C4.83248 6.92342 4.79404 6.90461 4.74305 6.91482L3.73703 7.11632C3.68604 7.12653 3.65781 7.1587 3.65234 7.21283L3.56429 7.93417C3.55489 7.98909 3.53019 8.03891 3.4902 8.08363C3.4502 8.12836 3.40079 8.15661 3.34196 8.1684L3.17135 8.20257C3.07721 8.22142 2.99759 8.20066 2.93246 8.14027C2.86184 8.07283 2.83357 7.99282 2.84767 7.90025L3.29966 4.23001C3.30827 4.17117 3.33101 4.12174 3.36787 4.08172C3.40786 4.037 3.45531 4.00914 3.51022 3.99814L3.75143 3.94982C3.80634 3.93883 3.86086 3.94626 3.915 3.97214C3.96835 3.99409 4.00837 4.03094 4.03505 4.08271L5.87161 7.29458ZM4.41219 6.17948L3.93774 5.33827C3.91263 5.31475 3.89106 5.31907 3.87303 5.35124L3.75916 6.31028C3.75524 6.33146 3.76074 6.34871 3.77565 6.36205C3.79056 6.37538 3.80782 6.38008 3.82743 6.37615L4.37456 6.26656C4.39417 6.26264 4.40829 6.25165 4.41691 6.23361C4.42554 6.21556 4.42396 6.19752 4.41219 6.17948ZM8.0106 5.7341C8.02552 5.80862 8.01103 5.87884 7.96712 5.94474C7.92634 6.00594 7.8687 6.04401 7.79418 6.05893L7.54708 6.10842C7.50002 6.11785 7.48159 6.14806 7.4918 6.19904L7.54012 6.44025C7.55504 6.51477 7.54016 6.58303 7.49546 6.64501C7.45468 6.70621 7.39704 6.74427 7.32252 6.7592L7.16367 6.79102C7.08915 6.80594 7.01933 6.79341 6.95421 6.75342C6.89301 6.71265 6.85495 6.655 6.84002 6.58048L6.79171 6.33927C6.7815 6.28828 6.75286 6.2675 6.70579 6.27693L6.4587 6.32642C6.38418 6.34135 6.31436 6.32881 6.24924 6.28882C6.18725 6.24413 6.1488 6.18452 6.13387 6.11L6.10088 5.94527C6.08595 5.87075 6.09927 5.80485 6.14083 5.74757C6.18553 5.68559 6.24513 5.64713 6.31965 5.63221L6.56675 5.58272C6.58636 5.57879 6.60047 5.5678 6.6091 5.54976C6.62086 5.527 6.62477 5.50582 6.62085 5.48621L6.57136 5.23912C6.55722 5.16852 6.57053 5.10262 6.61131 5.04142C6.656 4.97944 6.71561 4.94098 6.79013 4.92606L6.94898 4.89424C7.0235 4.87932 7.09136 4.89224 7.15256 4.93301C7.21768 4.973 7.25731 5.0283 7.27145 5.0989L7.32094 5.34599C7.32487 5.3656 7.33664 5.38364 7.35626 5.40011C7.37509 5.41265 7.39235 5.41735 7.40804 5.41421L7.65513 5.36472C7.72965 5.34979 7.79751 5.36272 7.85871 5.40349C7.92304 5.43956 7.96268 5.49485 7.9776 5.56937L8.0106 5.7341Z" fill="#F2F2F2"/>
</g>
</g>
<defs>
<clipPath id="clip0_1_2">
<rect width="24" height="24" fill="white"/>
</clipPath>
<clipPath id="clip1_1_2">
<rect width="7" height="6" fill="white" transform="translate(2 3)"/>
</clipPath>
</defs>
</svg>
