<svg width="101" height="92" viewBox="0 0 101 92" fill="none" xmlns="http://www.w3.org/2000/svg"><path d="M54.4925 33.3467C56.7998 28.7431 62.9589 23.4982 67.6191 25.8338L99.8649 41.5687C109.307 47.067 106.021 53.4128 103.714 58.0163L75.8625 113.586C73.5552 118.189 67.907 120.028 63.2469 117.692L30.9015 101.48C24.0367 98.0567 21.6598 93.3719 23.9869 87.9311L54.4925 33.3467Z" fill="#1C88C3"/><rect x="57.0822" y="20.3335" width="54.7436" height="81.3333" rx="9.38461" transform="rotate(26.62 57.0822 20.3335)" fill="#2999D7"/><path d="M80.0748 31.8911L61.3055 78.9874L66.7896 25.0259L80.0748 31.8911Z" fill="#1C88C3"/><path d="M12.3248 9.98219C13.1362 4.78281 18.0406 1.2306 23.2791 2.04811L60.8881 7.98607C66.1266 8.80358 71.8613 13.9474 71.0498 19.1468L62.1707 76.0426C61.3593 81.242 56.4549 84.7942 51.2164 83.9767L11.4616 77.7726C2.57784 76.2178 2.57238 71.4528 4.16188 62.7188L12.3248 9.98219Z" fill="#83D7FF"/><mask id="mask0_1304_22348" style="mask-type:alpha" maskUnits="userSpaceOnUse" x="3" y="1" width="64" height="79"><rect x="13.7955" y="0.567871" width="54.7436" height="73.1374" rx="9.38461" transform="rotate(8.87 13.7955 0.567871)" fill="white"/></mask><g mask="url(#mask0_1304_22348)"><rect x="13.7939" y="0.567871" width="54.7436" height="73.1374" rx="9.38461" transform="rotate(8.87 13.7939 0.567871)" fill="#83D7FF"/><path fill-rule="evenodd" clip-rule="evenodd" d="M59.6433 61.4109L57.5424 74.8727C55.905 85.3646 55.679 89.2869 48.6304 88.1869L27.0892 84.8251C30.0811 80.1738 32.8908 73.7912 41.9843 74.1901C49.6357 74.1775 50.781 69.6094 51.9913 66.6517C54.0528 61.6133 57.7756 60.8489 59.6433 61.4109Z" fill="#A9E2FF"/><path fill-rule="evenodd" clip-rule="evenodd" d="M10.4256 80.8438L10.7414 83.0656L-0.854972 86.8368C-6.11014 85.9408 -6.72723 74.6537 -7.91479 69.7842C-4.09374 58.7942 8.23853 48.2544 14.6995 46.8936C15.8047 46.6608 18.4508 46.2659 19.473 46.1003C25.6672 45.0966 27.0866 43.1136 33.7352 34.0453C40.8655 24.3201 58.2864 26.0873 67.8057 27.8659C69.2652 29.3911 67.8355 32.5862 65.1184 44.6759C56.8047 44.3566 47.4031 41.4422 42.7316 52.6351C39.3874 60.6478 33.1315 61.7875 26.0531 62.888C24.0855 63.1939 23.3551 63.3838 21.4366 63.8482C12.5946 65.9888 10.5383 74.5072 10.4256 80.8438Z" fill="#A9E2FF"/><path d="M30.1307 22.9093C31.5405 20.866 35.8336 22.0381 36.5542 24.4137L38.1744 29.7559C38.3691 30.3978 38.7757 30.9547 39.3278 31.3356L43.9229 34.5058C45.9663 35.9156 45.4755 39.0622 43.0998 39.7827L37.7576 41.403C37.1157 41.5977 36.5589 42.0043 36.1779 42.5564L33.0077 47.1515C31.598 49.1948 27.3296 48.6313 26.609 46.2557L26.1105 40.9862C25.9158 40.3443 25.5092 39.7874 24.9571 39.4065L20.3621 36.2363C18.3187 34.8266 18.8095 31.6799 21.1851 30.9594L26.5273 29.3391C27.1692 29.1444 27.7261 28.7378 28.107 28.1857L30.1307 22.9093Z" fill="#2999D7"/><path d="M29.7968 23.1363C31.2066 21.0929 34.3533 21.5837 35.0738 23.9593L36.6941 29.3016C36.8887 29.9434 37.2954 30.5003 37.8475 30.8812L42.4425 34.0514C44.4859 35.4612 43.9951 38.6079 41.6195 39.3284L36.2772 40.9487C35.6354 41.1433 35.0785 41.5499 34.6976 42.1021L31.5274 46.6971C30.1176 48.7405 26.9709 48.2497 26.2504 45.874L24.6301 40.5318C24.4355 39.8899 24.0288 39.3331 23.4767 38.9522L18.8817 35.782C16.8383 34.3722 17.3291 31.2255 19.7047 30.505L25.047 28.8847C25.6888 28.69 26.2457 28.2834 26.6266 27.7313L29.7968 23.1363Z" fill="#30B0F5"/><path d="M44.9835 47.3505C46.125 47.024 48.6774 47.7512 47.9061 49.7308L46.8816 52.1963C46.7585 52.4926 46.7395 52.8218 46.8277 53.1302L47.5619 55.6972C47.8884 56.8387 46.7511 57.8519 45.6547 57.3963L44.2761 56.9732L43.2901 56.5674C42.9939 56.4444 42.5637 56.2298 42.2553 56.318L39.6883 57.0522C38.5468 57.3786 36.1333 56.4171 36.5889 55.3207L39.0137 52.6795C39.1368 52.3832 39.1558 52.054 39.0676 51.7456L37.8134 47.5953C37.4869 46.4538 39.1442 47.0239 40.2405 47.4795L42.7061 48.504C43.0023 48.6271 43.3315 48.6461 43.64 48.5578L44.9835 47.3505Z" fill="#2999D7"/><path d="M44.7314 47.3688C45.8729 47.0424 46.8861 48.1796 46.4306 49.276L45.4061 51.7415C45.283 52.0378 45.264 52.367 45.3522 52.6754L46.0864 55.2424C46.4129 56.3839 45.2756 57.3971 44.1792 56.9415L41.7137 55.917C41.4175 55.7939 41.0882 55.7749 40.7798 55.8632L38.2128 56.5973C37.0713 56.9238 36.0581 55.7866 36.5137 54.6902L37.5382 52.2247C37.6613 51.9284 37.6803 51.5992 37.5921 51.2908L36.8579 48.7238C36.5314 47.5823 37.6687 46.5691 38.765 47.0247L41.2306 48.0491C41.5268 48.1722 41.856 48.1912 42.1645 48.103L44.7314 47.3688Z" fill="#30B0F5"/></g></svg>