<svg width="24" height="24" viewBox="0 0 24 24" fill="none" xmlns="http://www.w3.org/2000/svg">
<g clip-path="url(#clip0_4_20)">
<path opacity="0.2" d="M9.756 24C6.11 24 4.343 20.678 3.763 19.586L1.874 16.027C-0.521 11.5 0.51 8.136 5.025 5.749L6.88 4.749C7.936 2.244 10.145 0.970001 13.457 0.970001C13.746 0.970001 14.048 0.980001 14.357 0.998001L16.012 1.088C18.656 1.234 20.534 1.969 21.756 3.334C22.978 4.699 23.498 6.645 23.351 9.284L23.119 13.442C22.885 17.75 21.059 20.127 17.543 20.682L16.353 21.457C16.083 21.632 15.789 21.801 15.471 21.973L14.045 22.739C12.7395 23.5026 11.2671 23.9355 9.756 24Z" fill="#1A1A1A"/>
<path d="M9.756 23.03C6.11 23.03 4.343 19.708 3.763 18.616L1.874 15.057C-0.521 10.527 0.51 7.166 5.025 4.779L6.88 3.779C7.936 1.274 10.145 0 13.457 0C13.746 0 14.048 0.009 14.357 0.027L16.012 0.118C18.66 0.264 20.538 1 21.76 2.364C22.982 3.728 23.502 5.674 23.355 8.314L23.123 12.472C22.889 16.78 21.063 19.157 17.547 19.711L16.357 20.487C16.087 20.662 15.793 20.831 15.475 21.003L14.049 21.769C12.7423 22.5332 11.2684 22.9661 9.756 23.03Z" fill="#F2F2F2"/>
<path d="M14.967 18.849C15.077 18.859 15.195 18.858 15.303 18.858C15.073 19.007 14.823 19.15 14.553 19.296L13.131 20.059C9.554 21.951 7.377 21.28 5.476 17.7L3.588 14.147C1.7 10.57 2.355 8.385 5.932 6.494L7.318 5.747C7.21321 6.29541 7.14639 6.85039 7.118 7.408L6.887 11.576C6.63 16.26 8.606 18.476 13.294 18.75L14.967 18.849ZM21.417 8.206L21.185 12.364C20.991 15.954 19.651 17.629 16.62 17.864C16.0902 17.9105 15.5576 17.9155 15.027 17.879L13.354 17.779C9.204 17.535 7.624 15.785 7.854 11.626L8.084 7.458C8.1132 6.70585 8.22589 5.95926 8.42 5.232C9.13 2.723 10.92 1.767 14.246 1.959L15.907 2.05C20.078 2.286 21.649 4.048 21.417 8.206ZM15.144 11.259L12.244 11.041C12.1468 11.0302 12.0485 11.0391 11.9548 11.0672C11.8612 11.0953 11.7741 11.1419 11.6989 11.2044C11.6237 11.2668 11.5618 11.3438 11.5169 11.4306C11.4721 11.5175 11.4452 11.6125 11.4379 11.71C11.4305 11.8075 11.4429 11.9055 11.4743 11.9981C11.5057 12.0907 11.5553 12.1761 11.6204 12.249C11.6855 12.322 11.7646 12.3811 11.853 12.4229C11.9414 12.4646 12.0373 12.4881 12.135 12.492L15.035 12.709C15.0955 12.7141 15.1563 12.7111 15.216 12.7C15.3905 12.6693 15.5478 12.5759 15.6584 12.4374C15.7689 12.2988 15.825 12.1247 15.8161 11.9477C15.8073 11.7707 15.7341 11.6031 15.6103 11.4762C15.4866 11.3494 15.3207 11.2722 15.144 11.259ZM17.368 7.534L12.532 7.171C12.4348 7.16023 12.3365 7.16915 12.2428 7.19722C12.1492 7.22528 12.0621 7.27193 11.9869 7.33437C11.9117 7.39681 11.8498 7.47376 11.8049 7.56064C11.7601 7.64752 11.7332 7.74254 11.7259 7.84004C11.7185 7.93753 11.7309 8.03551 11.7623 8.12811C11.7937 8.22071 11.8433 8.30605 11.9084 8.37903C11.9735 8.45201 12.0526 8.51113 12.141 8.55288C12.2294 8.59462 12.3253 8.61813 12.423 8.622L17.26 8.985C17.3205 8.98904 17.3812 8.98602 17.441 8.976C17.615 8.94437 17.7715 8.8505 17.8813 8.71192C17.9911 8.57335 18.0468 8.39953 18.0378 8.22294C18.0289 8.04635 17.956 7.87904 17.8327 7.75227C17.7095 7.62549 17.5443 7.54791 17.368 7.534Z" fill="#02B1FF"/>
</g>
<defs>
<clipPath id="clip0_4_20">
<rect width="24" height="24" fill="white"/>
</clipPath>
</defs>
</svg>
