<svg xmlns="http://www.w3.org/2000/svg" version="1.1" xmlns:xlink="http://www.w3.org/1999/xlink" width="512" height="512" x="0" y="0" viewBox="0 0 32 32" style="enable-background:new 0 0 512 512" xml:space="preserve" class=""><g><path d="m28.865 16.632-3.01-1.64a9.46 9.46 0 0 1-3.773-3.76l-1.65-3.003a2.175 2.175 0 0 0-3.814 0l-1.65 3.003a9.459 9.459 0 0 1-3.773 3.76l-3.01 1.64a2.173 2.173 0 0 0 0 3.82l3.01 1.64a9.46 9.46 0 0 1 3.774 3.76l1.65 3.002a2.176 2.176 0 0 0 3.814 0l1.649-3.002a9.459 9.459 0 0 1 3.773-3.76l3.01-1.64a2.173 2.173 0 0 0 0-3.82zM2.805 9.19l1.389.757A3.835 3.835 0 0 1 5.72 11.47l.76 1.385a1.543 1.543 0 0 0 2.706 0l.76-1.384a3.836 3.836 0 0 1 1.528-1.523l1.388-.756a1.542 1.542 0 0 0 0-2.71l-1.388-.755a3.832 3.832 0 0 1-1.527-1.523l-.761-1.386a1.543 1.543 0 0 0-2.705 0l-.76 1.386a3.833 3.833 0 0 1-1.528 1.523l-1.39.755a1.544 1.544 0 0 0 0 2.71z" fill="#ffbb26" opacity="1" data-original="#000000" class=""></path></g></svg>