<svg width="3613" height="1878" viewBox="0 0 3613 1878" fill="none" xmlns="http://www.w3.org/2000/svg">
<path d="M296.304 1313.85C318.152 1311.83 335.784 1317.65 349.201 1331.31C362.604 1344.82 370.532 1364.82 372.987 1391.33C375.799 1421.69 371.669 1445.32 360.597 1462.23C349.67 1478.95 332.158 1488.43 308.061 1490.67C287.017 1492.61 269.737 1487.98 256.222 1476.75C254.291 1475.15 252.872 1473.82 251.964 1472.77C251.042 1471.56 250.521 1470.31 250.402 1469.03C250.224 1467.1 250.71 1465.35 251.862 1463.79C252.998 1462.06 255.214 1459.75 258.51 1456.86C261.661 1454.13 263.849 1452.39 265.074 1451.63C266.461 1450.85 267.877 1450.4 269.323 1450.26C270.608 1450.14 272.018 1450.5 273.553 1451.33C275.073 1452 277.223 1453.34 280.001 1455.35C286.918 1460.06 295.196 1461.96 304.835 1461.07C329.413 1458.79 340.716 1440.01 338.743 1404.71C335.164 1413.3 329.793 1420.04 322.63 1424.91C315.466 1429.79 306.985 1432.68 297.185 1433.59C286.583 1434.57 276.801 1433.04 267.841 1429.01C259.026 1424.81 251.807 1418.59 246.184 1410.36C240.561 1402.13 237.244 1392.56 236.232 1381.63C235.146 1369.91 236.983 1359.12 241.743 1349.29C246.488 1339.29 253.595 1331.17 263.064 1324.95C272.693 1318.71 283.773 1315.01 296.304 1313.85ZM304.762 1405.18C313.597 1404.36 320.574 1400.96 325.69 1394.98C330.807 1389 332.964 1381.67 332.16 1372.99C331.283 1363.51 327.757 1356.06 321.584 1350.64C315.557 1345.04 308.125 1342.65 299.29 1343.47C290.615 1344.27 283.822 1347.9 278.91 1354.35C273.999 1360.8 271.982 1368.76 272.86 1378.24C273.663 1386.92 277.056 1393.81 283.039 1398.93C289.007 1403.88 296.248 1405.97 304.762 1405.18ZM531.952 1404.31C532.83 1405.04 533.496 1406.11 533.951 1407.53C534.552 1408.77 534.972 1410.67 535.21 1413.24L535.723 1418.79C535.961 1421.36 535.906 1423.39 535.558 1424.88C535.356 1426.19 534.89 1427.29 534.161 1428.17C532.704 1429.92 528.923 1431.08 522.818 1431.65L513.42 1432.52L515.563 1455.65C515.979 1460.15 515.298 1463.29 513.519 1465.08C512.645 1466.13 511.346 1466.98 509.624 1467.62C508.047 1468.09 505.25 1468.51 501.234 1468.89L498.584 1469.13C494.728 1469.49 491.895 1469.51 490.083 1469.19C488.432 1468.86 487.08 1468.25 486.026 1467.38C484.973 1466.5 484.146 1465.45 483.545 1464.21C483.105 1462.95 482.773 1461.12 482.55 1458.71L480.408 1435.58L412.454 1441.87C408.92 1442.2 406.328 1442.19 404.676 1441.86C403.025 1441.53 401.761 1441 400.883 1440.27C399.83 1439.39 398.996 1438.25 398.38 1436.85C397.91 1435.28 397.511 1432.72 397.184 1429.19L396.023 1416.66C395.592 1412 395.747 1408.42 396.487 1405.92C397.213 1403.26 398.938 1400.02 401.663 1396.21L460.806 1310.53C463.24 1307.06 465.857 1304.71 468.66 1303.48C471.447 1302.09 475.251 1301.17 480.07 1300.72L484.648 1300.3C489.147 1299.88 492.309 1299.91 494.136 1300.39C496.123 1300.86 497.643 1301.52 498.696 1302.4C499.764 1303.43 500.526 1304.66 500.981 1306.08C501.597 1307.48 502.068 1309.94 502.396 1313.48L510.765 1403.84L520.162 1402.97C526.267 1402.41 530.197 1402.85 531.952 1404.31ZM471.793 1342.56L425.703 1411.72L477.752 1406.9L471.793 1342.56ZM592.428 1386.31C583.914 1387.1 576.178 1385.79 569.219 1382.39C562.246 1378.82 556.57 1373.51 552.191 1366.47C547.957 1359.24 545.394 1350.81 544.501 1341.17C543.624 1331.7 544.61 1323.1 547.459 1315.38C550.455 1307.49 555.053 1301.15 561.252 1296.36C567.452 1291.58 574.809 1288.79 583.323 1288C591.677 1287.23 599.34 1288.62 606.313 1292.19C613.287 1295.76 618.89 1301.15 623.124 1308.37C627.503 1315.42 630.131 1323.68 631.009 1333.16C631.902 1342.8 630.85 1351.57 627.855 1359.46C625.005 1367.18 620.48 1373.43 614.281 1378.22C608.066 1382.84 600.782 1385.54 592.428 1386.31ZM611.043 1458.72C603.01 1459.46 598.823 1457.99 598.481 1454.29C598.273 1452.04 599.668 1447.86 602.666 1441.75L674.651 1292.67C676.397 1288.78 678.561 1285.9 681.143 1284.04C683.273 1282.55 686.507 1281.6 690.844 1281.2L692.29 1281.07C696.467 1280.68 699.556 1280.8 701.559 1281.42C703.706 1281.87 704.892 1283.3 705.115 1285.71C705.294 1287.64 704.364 1290.72 702.326 1294.96L629.731 1445.32C627.009 1450.92 624.262 1454.49 621.489 1456.05C619.344 1457.38 616.826 1458.18 613.934 1458.45L611.043 1458.72ZM590.174 1361.98C594.833 1361.55 598.247 1359.04 600.415 1354.47C602.745 1349.88 603.552 1343.73 602.838 1336.01C602.109 1328.14 600.186 1322.25 597.068 1318.32C594.096 1314.22 590.28 1312.39 585.622 1312.82C580.802 1313.27 577.228 1315.78 574.899 1320.37C572.555 1324.8 571.747 1330.95 572.476 1338.83C573.19 1346.54 575.114 1352.44 578.246 1356.52C581.379 1360.6 585.355 1362.42 590.174 1361.98ZM720.576 1450.03C712.223 1450.8 704.559 1449.41 697.586 1445.84C690.613 1442.27 684.936 1436.97 680.557 1429.92C676.324 1422.7 673.768 1414.35 672.89 1404.87C671.998 1395.23 672.976 1386.55 675.826 1378.83C678.822 1370.94 683.427 1364.68 689.641 1360.06C695.841 1355.27 703.117 1352.49 711.471 1351.72C719.985 1350.93 727.729 1352.32 734.702 1355.88C741.661 1359.29 747.257 1364.6 751.49 1371.83C755.869 1378.87 758.505 1387.22 759.398 1396.86C760.276 1406.33 759.217 1415.02 756.221 1422.91C753.372 1430.63 748.847 1436.88 742.647 1441.67C736.448 1446.45 729.091 1449.24 720.576 1450.03ZM718.3 1425.45C722.959 1425.02 726.46 1422.59 728.804 1418.16C731.134 1413.57 731.941 1407.42 731.227 1399.71C730.498 1391.84 728.567 1385.86 725.434 1381.77C722.302 1377.69 718.406 1375.86 713.747 1376.29C708.928 1376.74 705.354 1379.26 703.024 1383.85C700.856 1388.42 700.136 1394.65 700.865 1402.52C701.579 1410.23 703.422 1416.14 706.394 1420.24C709.512 1424.16 713.481 1425.9 718.3 1425.45ZM906.013 1434.56C893.001 1435.76 881.262 1434.1 870.796 1429.56C860.315 1424.86 851.875 1417.7 845.476 1408.08C839.076 1398.47 835.274 1387.16 834.069 1374.14C832.864 1361.13 834.524 1349.31 839.048 1338.68C843.558 1327.9 850.533 1319.23 859.972 1312.69C869.411 1306.14 880.637 1302.27 893.649 1301.06C906.822 1299.84 918.649 1301.58 929.13 1306.28C939.771 1310.97 948.299 1318.2 954.713 1327.97C961.113 1337.59 964.915 1348.9 966.12 1361.91C967.325 1374.93 965.585 1386.75 960.9 1397.39C956.375 1408.02 949.393 1416.61 939.954 1423.15C930.5 1429.54 919.186 1433.34 906.013 1434.56ZM903.29 1405.16C913.25 1404.24 920.729 1400.14 925.727 1392.87C930.871 1385.43 932.922 1376.09 931.88 1364.84C930.839 1353.6 927.114 1344.87 920.706 1338.66C914.443 1332.27 906.332 1329.54 896.372 1330.46C886.573 1331.37 879.182 1335.53 874.199 1342.96C869.201 1350.23 867.223 1359.49 868.264 1370.73C869.306 1381.98 872.958 1390.79 879.22 1397.18C885.468 1403.41 893.491 1406.07 903.29 1405.16ZM1048.68 1289.86C1054.79 1289.3 1058.72 1289.74 1060.47 1291.2C1061.35 1291.93 1062.01 1293 1062.47 1294.42C1063.07 1295.66 1063.49 1297.56 1063.73 1300.13L1064.09 1303.99C1064.32 1306.56 1064.27 1308.59 1063.92 1310.08C1063.72 1311.4 1063.25 1312.49 1062.52 1313.37C1061.07 1315.13 1057.29 1316.29 1051.18 1316.85L1031.18 1318.7L1039.37 1407.14C1039.79 1411.64 1039.11 1414.78 1037.33 1416.56C1036.45 1417.62 1035.15 1418.47 1033.43 1419.11C1031.85 1419.58 1029.06 1420 1025.04 1420.37L1021.91 1420.66C1018.05 1421.02 1015.22 1421.04 1013.41 1420.72C1011.76 1420.39 1010.41 1419.79 1009.35 1418.91C1008.3 1418.04 1007.47 1416.98 1006.87 1415.74C1006.43 1414.48 1006.1 1412.65 1005.88 1410.24L997.685 1321.81L988.77 1322.63C982.665 1323.2 978.735 1322.75 976.98 1321.29C976.102 1320.56 975.363 1319.58 974.762 1318.34C974.307 1316.92 973.96 1314.93 973.722 1312.36L973.365 1308.5C973.127 1305.93 973.109 1303.99 973.311 1302.68C973.66 1301.19 974.198 1300 974.927 1299.12C976.384 1297.37 980.166 1296.21 986.27 1295.64L995.186 1294.82L994.182 1283.97C992.828 1269.35 995.468 1258.5 1002.1 1251.4C1008.88 1244.13 1019.58 1239.82 1034.2 1238.46C1041.75 1237.77 1048.25 1237.97 1053.7 1239.09C1056.01 1239.52 1057.73 1240.58 1058.85 1242.26C1060.13 1243.76 1060.89 1245.88 1061.14 1248.61C1062.11 1259.05 1059.78 1264.53 1054.16 1265.05C1053.04 1265.16 1051.33 1265.15 1049.06 1265.04C1046.78 1264.92 1044.75 1264.95 1042.99 1265.11C1037.36 1265.63 1033.3 1267.23 1030.79 1269.89C1028.28 1272.55 1027.28 1276.61 1027.79 1282.08L1028.68 1291.71L1048.68 1289.86ZM1316.9 1225.89C1317.8 1226.94 1318.48 1228.1 1318.92 1229.35C1319.52 1230.59 1319.94 1232.5 1320.18 1235.07L1333.68 1380.85C1333.89 1383.1 1333.82 1384.97 1333.47 1386.46C1333.27 1387.78 1332.64 1388.89 1331.59 1389.8C1330.7 1390.69 1329.47 1391.37 1327.89 1391.84C1326.31 1392.31 1323.76 1392.71 1320.22 1393.04L1314.92 1393.53C1311.23 1393.87 1308.48 1393.96 1306.68 1393.8C1305.05 1393.63 1303.7 1393.11 1302.65 1392.23C1300.89 1390.78 1299.83 1388.04 1299.46 1384.02L1287.7 1257.03L1255.47 1386.64C1254.19 1392.1 1252.27 1395.85 1249.7 1397.87C1248.04 1399.15 1245.2 1399.98 1241.19 1400.36L1240.7 1400.4C1236.69 1400.77 1233.74 1400.48 1231.87 1399.52C1229.15 1398.15 1226.66 1394.9 1224.41 1389.76L1169.34 1267.51L1181.26 1396.19C1181.55 1399.4 1180.97 1401.88 1179.52 1403.64C1178.64 1404.69 1177.33 1405.46 1175.6 1405.94C1174.02 1406.41 1171.38 1406.82 1167.69 1407.16L1164.56 1407.45C1160.86 1407.8 1158.2 1407.88 1156.56 1407.71C1154.92 1407.54 1153.58 1407.01 1152.53 1406.14C1150.6 1404.53 1149.49 1402.21 1149.21 1399.15L1135.59 1252.16C1135.34 1249.43 1135.31 1247.33 1135.49 1245.85C1135.84 1244.36 1136.38 1243.18 1137.11 1242.3C1137.84 1241.42 1138.91 1240.76 1140.33 1240.3C1141.73 1239.69 1143.79 1239.25 1146.53 1239L1175.68 1236.3C1178.9 1236 1181.33 1236.02 1182.98 1236.35C1184.62 1236.52 1186.11 1236.95 1187.47 1237.64C1188.67 1238.34 1189.75 1239.53 1190.72 1241.22C1191.83 1242.74 1193.21 1245.37 1194.85 1249.1L1236.69 1343.9L1260.86 1242.75C1262.35 1236.13 1264.23 1231.91 1266.49 1230.08C1268.6 1228.42 1272.31 1227.35 1277.61 1226.86L1307.01 1224.14C1311.99 1223.67 1315.29 1224.26 1316.9 1225.89ZM1412.15 1252.55C1428.37 1251.05 1441.54 1254.13 1451.64 1261.78C1461.89 1269.25 1467.7 1280.3 1469.05 1294.92L1475.72 1366.97C1476.15 1371.63 1475.55 1374.76 1473.92 1376.37C1472.14 1378.16 1468.68 1379.29 1463.54 1379.76L1457.04 1380.37C1452.22 1380.81 1448.68 1380.25 1446.43 1378.67C1445.55 1377.95 1444.81 1376.96 1444.21 1375.72C1443.77 1374.47 1443.43 1372.55 1443.19 1369.98L1442.63 1363.96C1436.19 1378.33 1424.05 1386.34 1406.22 1387.99C1393.04 1389.21 1382.11 1386.66 1373.43 1380.33C1364.74 1374.01 1359.78 1364.18 1358.54 1350.84C1357.37 1338.15 1360.86 1328.6 1369.01 1322.17C1377.15 1315.58 1389.01 1310.68 1404.59 1307.45C1413.02 1305.7 1419.36 1304.22 1423.62 1303.02C1427.87 1301.65 1430.81 1300.16 1432.45 1298.55C1434.06 1296.78 1434.75 1294.61 1434.52 1292.04C1434.11 1287.7 1431.8 1284.6 1427.58 1282.72C1423.51 1280.83 1417.71 1280.23 1410.16 1280.93C1400.52 1281.82 1392.02 1284.56 1384.67 1289.12C1381.91 1290.84 1379.84 1292.08 1378.45 1292.86C1377.21 1293.46 1375.79 1293.84 1374.18 1293.98C1372.41 1294.15 1370.83 1293.73 1369.45 1292.72C1368.06 1291.72 1366.18 1289.86 1363.83 1287.17C1361.28 1284.16 1359.86 1281.05 1359.56 1277.84C1359.34 1275.43 1360.65 1272.96 1363.49 1270.43C1368.13 1266.27 1374.75 1262.5 1383.34 1259.11C1392.1 1255.71 1401.7 1253.52 1412.15 1252.55ZM1437.08 1319.75C1434.65 1321.44 1431.46 1322.87 1427.52 1324.04C1423.73 1325.2 1418.68 1326.56 1412.34 1328.12C1404.75 1330.12 1399.29 1332.41 1395.96 1334.98C1392.64 1337.56 1391.2 1341.34 1391.66 1346.32C1392.22 1352.26 1394.39 1356.52 1398.19 1359.08C1402.14 1361.47 1407.33 1362.37 1413.75 1361.77C1421.3 1361.07 1427.46 1358.48 1432.23 1353.98C1437.15 1349.32 1439.27 1343.37 1438.6 1336.14L1437.08 1319.75ZM1576.69 1241.69C1578.91 1242.94 1580.18 1245.26 1580.49 1248.63C1581.13 1255.54 1580.96 1261.55 1579.97 1266.66C1579.51 1268.65 1578.83 1270.09 1577.94 1270.98C1577.04 1271.71 1575.62 1272.17 1573.69 1272.35C1572.25 1272.48 1570.47 1272.56 1568.37 1272.6C1566.43 1272.62 1564.09 1272.75 1561.36 1273C1552.2 1273.85 1545.51 1277.71 1541.29 1284.58C1537.05 1291.3 1535.47 1300.51 1536.56 1312.24L1541.04 1360.68C1541.46 1365.17 1540.78 1368.32 1539 1370.1C1538.13 1371.15 1536.83 1372 1535.11 1372.65C1533.53 1373.12 1530.73 1373.54 1526.72 1373.91L1523.58 1374.2C1519.73 1374.56 1516.89 1374.58 1515.08 1374.26C1513.43 1373.93 1512.08 1373.32 1511.03 1372.45C1509.97 1371.57 1509.15 1370.52 1508.55 1369.28C1508.11 1368.02 1507.77 1366.19 1507.55 1363.78L1497.95 1260.16C1497.72 1257.59 1497.71 1255.73 1497.92 1254.58C1498.29 1253.25 1498.9 1252.05 1499.78 1251C1500.65 1249.95 1501.87 1249.11 1503.43 1248.47C1505.16 1247.83 1507.94 1247.33 1511.8 1246.97L1514.93 1246.68C1518.95 1246.31 1521.78 1246.29 1523.43 1246.62C1525.23 1246.78 1526.66 1247.3 1527.71 1248.17C1529.79 1249.6 1531.03 1252.56 1531.45 1257.06L1532.81 1271.76C1536.69 1252.44 1547.07 1242 1563.93 1240.44C1569.88 1239.89 1574.13 1240.31 1576.69 1241.69ZM1724.71 1342.21C1727.4 1345.04 1728.85 1347.5 1729.04 1349.58C1729.38 1353.28 1725.7 1355.48 1717.99 1356.2L1708.83 1357.05C1703.21 1357.57 1699.15 1357.46 1696.65 1356.72C1694.49 1356.11 1691.71 1354.1 1688.31 1350.68L1639.41 1300.29L1644.12 1351.13C1644.54 1355.63 1643.86 1358.77 1642.08 1360.55C1641.2 1361.61 1639.9 1362.46 1638.18 1363.1C1636.61 1363.57 1633.81 1363.99 1629.79 1364.37L1626.66 1364.66C1622.8 1365.01 1619.97 1365.03 1618.16 1364.71C1616.51 1364.38 1615.16 1363.78 1614.1 1362.9C1613.05 1362.03 1612.22 1360.97 1611.62 1359.73C1611.18 1358.47 1610.85 1356.64 1610.63 1354.23L1596.52 1201.94C1596.28 1199.37 1596.27 1197.51 1596.49 1196.35C1596.85 1195.02 1597.47 1193.83 1598.35 1192.78C1599.22 1191.73 1600.44 1190.88 1602 1190.25C1603.72 1189.61 1606.51 1189.11 1610.37 1188.75L1613.5 1188.46C1617.52 1188.09 1620.35 1188.07 1622 1188.4C1623.8 1188.56 1625.22 1189.07 1626.28 1189.95C1628.35 1191.38 1629.6 1194.34 1630.02 1198.84L1638.34 1288.72L1672.83 1241.29C1676 1236.95 1678.89 1234.09 1681.52 1232.71C1682.9 1231.93 1684.63 1231.37 1686.71 1231.01C1688.94 1230.65 1691.59 1230.32 1694.64 1230.04L1700.9 1229.46C1709.42 1228.67 1713.84 1230.04 1714.16 1233.58C1714.28 1234.86 1714.07 1236.1 1713.54 1237.28C1713.16 1238.45 1712.24 1239.91 1710.78 1241.67L1672.96 1289.89L1724.71 1342.21ZM1919.79 1170.06C1920.7 1171.11 1921.37 1172.26 1921.81 1173.52C1922.41 1174.76 1922.83 1176.66 1923.07 1179.23L1936.57 1325.02C1936.78 1327.27 1936.71 1329.14 1936.36 1330.63C1936.16 1331.94 1935.53 1333.05 1934.48 1333.96C1933.59 1334.85 1932.36 1335.53 1930.78 1336C1929.21 1336.47 1926.65 1336.87 1923.12 1337.2L1917.81 1337.69C1914.12 1338.03 1911.37 1338.13 1909.58 1337.97C1907.94 1337.8 1906.6 1337.27 1905.54 1336.4C1903.79 1334.94 1902.72 1332.2 1902.35 1328.19L1890.59 1201.2L1858.36 1330.8C1857.09 1336.27 1855.16 1340.01 1852.6 1342.03C1850.93 1343.32 1848.09 1344.15 1844.08 1344.52L1843.6 1344.56C1839.58 1344.94 1836.64 1344.64 1834.76 1343.68C1832.05 1342.31 1829.56 1339.06 1827.3 1333.92L1772.23 1211.67L1784.15 1340.35C1784.45 1343.56 1783.87 1346.05 1782.41 1347.8C1781.53 1348.85 1780.23 1349.62 1778.49 1350.11C1776.91 1350.58 1774.28 1350.98 1770.58 1351.33L1767.45 1351.62C1763.76 1351.96 1761.09 1352.04 1759.45 1351.87C1757.82 1351.7 1756.47 1351.18 1755.42 1350.3C1753.49 1348.7 1752.38 1346.37 1752.1 1343.32L1738.49 1196.33C1738.23 1193.6 1738.2 1191.49 1738.39 1190.02C1738.74 1188.53 1739.27 1187.34 1740 1186.46C1740.73 1185.59 1741.8 1184.92 1743.22 1184.47C1744.62 1183.85 1746.69 1183.41 1749.42 1183.16L1778.58 1180.46C1781.79 1180.16 1784.22 1180.18 1785.87 1180.51C1787.51 1180.69 1789.01 1181.12 1790.37 1181.8C1791.56 1182.5 1792.65 1183.7 1793.61 1185.39C1794.73 1186.9 1796.1 1189.53 1797.75 1193.27L1839.58 1288.07L1863.75 1186.91C1865.24 1180.29 1867.12 1176.07 1869.38 1174.24C1871.5 1172.58 1875.2 1171.51 1880.51 1171.02L1909.9 1168.3C1914.88 1167.84 1918.18 1168.42 1919.79 1170.06ZM2079.82 1263.63C2078.34 1265.22 2076.27 1266.47 2073.6 1267.36C2070.92 1268.1 2067.08 1268.7 2062.1 1269.16L1994.63 1275.41C1997.09 1284.42 2001.92 1291.18 2009.15 1295.69C2016.36 1300.05 2025.26 1301.74 2035.86 1300.75C2044.06 1299.99 2052.73 1296.6 2061.9 1290.56C2064.04 1289.23 2065.92 1288.49 2067.52 1288.34C2069.29 1288.18 2070.96 1288.67 2072.52 1289.82C2074.07 1290.81 2075.94 1292.59 2078.12 1295.14C2081.22 1298.9 2082.88 1301.99 2083.11 1304.4C2083.4 1307.61 2080.76 1311.42 2075.17 1315.83C2070.8 1319.31 2064.92 1322.37 2057.55 1324.99C2050.18 1327.62 2042.24 1329.33 2033.72 1330.12C2020.55 1331.34 2008.57 1329.69 1997.78 1325.18C1987 1320.67 1978.24 1313.62 1971.52 1304.04C1964.79 1294.29 1960.79 1282.59 1959.52 1268.94C1958.33 1256.09 1959.76 1244.45 1963.82 1234.03C1968.04 1223.59 1974.71 1215.12 1983.83 1208.6C1992.94 1202.09 2004.01 1198.23 2017.02 1197.02C2029.55 1195.86 2040.55 1197.43 2050.03 1201.74C2059.5 1206.05 2066.96 1212.32 2072.43 1220.57C2077.89 1228.81 2081.11 1238.23 2082.09 1248.84C2082.45 1252.69 2082.41 1255.77 2081.98 1258.08C2081.7 1260.38 2080.98 1262.23 2079.82 1263.63ZM2019.32 1224.51C2010.81 1225.3 2004.28 1228.26 1999.73 1233.38C1995.17 1238.34 1992.71 1245.04 1992.36 1253.5L2049.47 1248.21C2048.05 1239.92 2044.73 1233.75 2039.49 1229.69C2034.24 1225.48 2027.52 1223.75 2019.32 1224.51ZM2297.74 1171.02C2310.91 1169.8 2321.51 1173.11 2329.53 1180.96C2337.69 1188.63 2342.46 1199.85 2343.82 1214.63L2350.41 1285.72C2350.82 1290.22 2350.14 1293.36 2348.36 1295.14C2347.49 1296.2 2346.19 1297.05 2344.47 1297.69C2342.89 1298.16 2340.1 1298.58 2336.08 1298.95L2332.95 1299.24C2329.09 1299.6 2326.26 1299.62 2324.45 1299.3C2322.8 1298.97 2321.44 1298.36 2320.39 1297.49C2319.34 1296.62 2318.51 1295.56 2317.91 1294.32C2317.47 1293.06 2317.14 1291.23 2316.91 1288.82L2310.78 1222.55C2310.03 1214.52 2307.86 1208.57 2304.26 1204.69C2300.82 1200.79 2296.13 1199.12 2290.19 1199.67C2283.76 1200.27 2278.9 1202.9 2275.61 1207.58C2272.3 1212.1 2270.99 1218.06 2271.67 1225.45L2277.88 1292.44C2278.29 1296.93 2277.61 1300.08 2275.83 1301.86C2274.96 1302.91 2273.66 1303.76 2271.94 1304.41C2270.36 1304.88 2267.56 1305.3 2263.55 1305.67L2261.14 1305.89C2257.28 1306.25 2254.45 1306.27 2252.64 1305.95C2250.99 1305.62 2249.63 1305.02 2248.58 1304.14C2247.53 1303.27 2246.7 1302.21 2246.1 1300.97C2245.66 1299.71 2245.33 1297.88 2245.1 1295.47L2238.88 1228.24C2238.18 1220.69 2235.96 1215.06 2232.21 1211.36C2228.61 1207.48 2223.68 1205.83 2217.41 1206.41C2211.15 1206.99 2206.47 1209.85 2203.38 1215C2200.28 1219.99 2199.1 1226.5 2199.85 1234.53L2205.83 1299.11C2206.24 1303.61 2205.56 1306.75 2203.78 1308.53C2202.91 1309.59 2201.61 1310.44 2199.89 1311.08C2198.31 1311.55 2195.51 1311.97 2191.5 1312.34L2188.37 1312.63C2184.51 1312.99 2181.68 1313.01 2179.86 1312.69C2178.21 1312.36 2176.86 1311.76 2175.81 1310.88C2174.76 1310.01 2173.93 1308.95 2173.33 1307.71C2172.89 1306.45 2172.56 1304.62 2172.33 1302.21L2162.74 1198.59C2162.5 1196.02 2162.49 1194.16 2162.7 1193.01C2163.07 1191.68 2163.69 1190.49 2164.56 1189.43C2165.44 1188.38 2166.65 1187.54 2168.22 1186.91C2169.94 1186.26 2172.73 1185.76 2176.58 1185.4L2179.71 1185.11C2183.57 1184.76 2186.32 1184.74 2187.97 1185.08C2189.77 1185.23 2191.2 1185.75 2192.25 1186.62C2194.33 1188.05 2195.57 1191.02 2195.99 1195.51L2196.3 1198.89C2202.24 1186.02 2212.44 1178.92 2226.9 1177.58C2235.41 1176.79 2242.73 1177.98 2248.86 1181.14C2255.14 1184.28 2259.96 1189.1 2263.32 1195.6C2266.23 1188.52 2270.48 1182.86 2276.08 1178.62C2281.85 1174.36 2289.07 1171.83 2297.74 1171.02ZM2490.92 1225.56C2489.45 1227.15 2487.38 1228.39 2484.71 1229.29C2482.02 1230.03 2478.19 1230.62 2473.21 1231.08L2405.74 1237.33C2408.19 1246.34 2413.03 1253.1 2420.25 1257.62C2427.46 1261.97 2436.37 1263.66 2446.97 1262.68C2455.16 1261.92 2463.84 1258.52 2473 1252.49C2475.15 1251.16 2477.02 1250.42 2478.63 1250.27C2480.4 1250.1 2482.06 1250.6 2483.63 1251.75C2485.18 1252.74 2487.04 1254.51 2489.22 1257.06C2492.33 1260.83 2493.99 1263.91 2494.21 1266.32C2494.51 1269.54 2491.87 1273.35 2486.28 1277.75C2481.9 1281.24 2476.03 1284.29 2468.66 1286.92C2461.29 1289.55 2453.34 1291.25 2444.83 1292.04C2431.66 1293.26 2419.68 1291.62 2408.89 1287.11C2398.1 1282.6 2389.35 1275.55 2382.63 1265.96C2375.89 1256.22 2371.89 1244.52 2370.63 1230.86C2369.44 1218.01 2370.87 1206.38 2374.93 1195.95C2379.15 1185.52 2385.81 1177.04 2394.93 1170.53C2404.05 1164.01 2415.11 1160.15 2428.13 1158.95C2440.66 1157.79 2451.66 1159.36 2461.13 1163.67C2470.6 1167.97 2478.07 1174.25 2483.53 1182.49C2488.99 1190.74 2492.22 1200.16 2493.2 1210.76C2493.56 1214.62 2493.52 1217.7 2493.08 1220.01C2492.81 1222.3 2492.09 1224.15 2490.92 1225.56ZM2430.43 1186.44C2421.92 1187.23 2415.38 1190.18 2410.84 1195.3C2406.27 1200.26 2403.82 1206.97 2403.46 1215.43L2460.57 1210.14C2459.16 1201.84 2455.83 1195.67 2450.6 1191.62C2445.35 1187.41 2438.62 1185.68 2430.43 1186.44ZM2650.02 1138.4C2663.19 1137.18 2673.78 1140.49 2681.8 1148.33C2689.97 1156 2694.73 1167.23 2696.1 1182.01L2702.68 1253.09C2703.1 1257.59 2702.42 1260.73 2700.64 1262.52C2699.77 1263.57 2698.47 1264.42 2696.74 1265.06C2695.17 1265.53 2692.37 1265.96 2688.36 1266.33L2685.22 1266.62C2681.37 1266.98 2678.53 1266.99 2676.72 1266.68C2675.07 1266.34 2673.72 1265.74 2672.67 1264.86C2671.61 1263.99 2670.79 1262.93 2670.18 1261.69C2669.74 1260.44 2669.41 1258.6 2669.19 1256.19L2663.05 1189.93C2662.31 1181.9 2660.14 1175.94 2656.54 1172.06C2653.1 1168.17 2648.41 1166.49 2642.46 1167.05C2636.04 1167.64 2631.18 1170.28 2627.88 1174.96C2624.58 1179.48 2623.26 1185.43 2623.95 1192.82L2630.15 1259.81C2630.57 1264.31 2629.89 1267.45 2628.11 1269.23C2627.23 1270.29 2625.94 1271.14 2624.21 1271.78C2622.64 1272.25 2619.84 1272.67 2615.82 1273.05L2613.41 1273.27C2609.56 1273.63 2606.72 1273.65 2604.91 1273.33C2603.26 1272.99 2601.91 1272.39 2600.86 1271.52C2599.8 1270.64 2598.98 1269.58 2598.38 1268.34C2597.94 1267.09 2597.6 1265.25 2597.38 1262.84L2591.15 1195.61C2590.45 1188.06 2588.23 1182.44 2584.49 1178.73C2580.89 1174.85 2575.95 1173.2 2569.69 1173.78C2563.42 1174.37 2558.75 1177.23 2555.66 1182.38C2552.56 1187.36 2551.38 1193.87 2552.12 1201.9L2558.1 1266.48C2558.52 1270.98 2557.84 1274.12 2556.06 1275.91C2555.18 1276.96 2553.89 1277.81 2552.16 1278.46C2550.59 1278.93 2547.79 1279.35 2543.77 1279.72L2540.64 1280.01C2536.79 1280.37 2533.95 1280.38 2532.14 1280.07C2530.49 1279.73 2529.14 1279.13 2528.08 1278.25C2527.03 1277.38 2526.2 1276.32 2525.6 1275.08C2525.16 1273.83 2524.83 1271.99 2524.61 1269.58L2515.01 1165.97C2514.77 1163.4 2514.76 1161.54 2514.98 1160.38C2515.34 1159.05 2515.96 1157.86 2516.84 1156.81C2517.71 1155.75 2518.93 1154.91 2520.49 1154.28C2522.21 1153.64 2525 1153.13 2528.86 1152.78L2531.99 1152.49C2535.85 1152.13 2538.6 1152.12 2540.25 1152.45C2542.05 1152.61 2543.47 1153.12 2544.53 1154C2546.6 1155.43 2547.85 1158.39 2548.27 1162.89L2548.58 1166.26C2554.52 1153.4 2564.71 1146.3 2579.17 1144.96C2587.69 1144.17 2595.01 1145.35 2601.13 1148.51C2607.42 1151.66 2612.24 1156.48 2615.59 1162.97C2618.5 1155.9 2622.76 1150.24 2628.36 1145.99C2634.12 1141.73 2641.34 1139.2 2650.02 1138.4ZM2800.89 1124.42C2811.81 1123.41 2821.8 1125.4 2830.85 1130.4C2839.88 1135.23 2847.19 1142.41 2852.77 1151.94C2858.34 1161.31 2861.69 1172.18 2862.84 1184.55C2864.01 1197.24 2862.59 1209.04 2858.58 1219.94C2854.55 1230.68 2848.4 1239.44 2840.11 1246.2C2831.83 1252.96 2822.14 1256.85 2811.06 1257.88C2801.74 1258.74 2793.2 1257.51 2785.44 1254.18C2777.66 1250.68 2771.59 1245.5 2767.23 1238.61L2768.01 1247.04C2768.46 1251.86 2767.86 1255.08 2766.23 1256.69C2765.34 1257.58 2764.11 1258.34 2762.55 1258.97C2761.14 1259.43 2758.66 1259.82 2755.13 1260.14L2749.34 1260.68C2743.72 1261.2 2739.94 1260.66 2738.01 1259.06C2737.14 1258.33 2736.4 1257.34 2735.8 1256.1C2735.34 1254.69 2734.99 1252.69 2734.76 1250.12L2720.65 1097.83C2720.41 1095.26 2720.4 1093.4 2720.62 1092.24C2720.98 1090.91 2721.6 1089.72 2722.48 1088.67C2723.35 1087.62 2724.57 1086.77 2726.13 1086.14C2727.85 1085.5 2730.64 1085 2734.5 1084.64L2737.63 1084.35C2741.65 1083.98 2744.48 1083.96 2746.13 1084.29C2747.93 1084.45 2749.35 1084.96 2750.41 1085.84C2752.48 1087.27 2753.73 1090.23 2754.15 1094.73L2759.7 1154.73C2762.51 1146.53 2767.38 1139.68 2774.33 1134.17C2781.43 1128.66 2790.28 1125.41 2800.89 1124.42ZM2799.25 1230.05C2809.21 1229.13 2816.84 1224.94 2822.14 1217.48C2827.43 1209.86 2829.55 1200.43 2828.51 1189.19C2827.46 1177.78 2823.57 1169.07 2816.86 1163.05C2810.13 1156.86 2802.02 1154.21 2792.55 1155.09C2782.59 1156.01 2774.97 1160.36 2769.69 1168.14C2764.4 1175.76 2762.27 1185.11 2763.3 1196.2C2764.31 1207.12 2768.11 1215.76 2774.69 1222.12C2781.26 1228.32 2789.45 1230.96 2799.25 1230.05ZM3002.75 1178.15C3001.27 1179.75 2999.2 1180.99 2996.53 1181.89C2993.84 1182.62 2990.01 1183.22 2985.03 1183.68L2917.56 1189.93C2920.01 1198.94 2924.85 1205.7 2932.08 1210.22C2939.28 1214.57 2948.19 1216.26 2958.79 1215.28C2966.99 1214.52 2975.66 1211.12 2984.83 1205.09C2986.97 1203.76 2988.85 1203.01 2990.45 1202.87C2992.22 1202.7 2993.89 1203.2 2995.45 1204.35C2997 1205.34 2998.87 1207.11 3001.05 1209.66C3004.15 1213.43 3005.81 1216.51 3006.04 1218.92C3006.33 1222.13 3003.69 1225.94 2998.1 1230.35C2993.73 1233.83 2987.85 1236.89 2980.48 1239.52C2973.11 1242.14 2965.17 1243.85 2956.65 1244.64C2943.48 1245.86 2931.5 1244.21 2920.71 1239.7C2909.92 1235.19 2901.17 1228.15 2894.45 1218.56C2887.71 1208.82 2883.71 1197.12 2882.45 1183.46C2881.26 1170.61 2882.69 1158.97 2886.75 1148.55C2890.97 1138.12 2897.64 1129.64 2906.75 1123.12C2915.87 1116.61 2926.94 1112.75 2939.95 1111.54C2952.48 1110.38 2963.48 1111.96 2972.95 1116.26C2982.43 1120.57 2989.89 1126.85 2995.36 1135.09C3000.82 1143.33 3004.04 1152.76 3005.02 1163.36C3005.38 1167.22 3005.34 1170.3 3004.91 1172.61C3004.63 1174.9 3003.91 1176.75 3002.75 1178.15ZM2942.25 1139.04C2933.74 1139.83 2927.21 1142.78 2922.66 1147.9C2918.1 1152.86 2915.64 1159.57 2915.29 1168.03L2972.4 1162.74C2970.98 1154.44 2967.66 1148.27 2962.42 1144.22C2957.17 1140.01 2950.45 1138.28 2942.25 1139.04ZM3105.57 1100.09C3107.79 1101.35 3109.06 1103.66 3109.37 1107.03C3110.01 1113.94 3109.84 1119.95 3108.85 1125.07C3108.39 1127.05 3107.71 1128.49 3106.82 1129.39C3105.92 1130.12 3104.5 1130.57 3102.58 1130.75C3101.13 1130.88 3099.35 1130.97 3097.25 1131C3095.31 1131.02 3092.97 1131.15 3090.24 1131.41C3081.08 1132.26 3074.39 1136.12 3070.17 1142.99C3065.93 1149.7 3064.35 1158.92 3065.44 1170.65L3069.93 1219.08C3070.34 1223.58 3069.66 1226.72 3067.88 1228.5C3067.01 1229.56 3065.71 1230.41 3063.99 1231.05C3062.41 1231.52 3059.61 1231.94 3055.6 1232.32L3052.46 1232.61C3048.61 1232.96 3045.78 1232.98 3043.96 1232.66C3042.31 1232.33 3040.96 1231.73 3039.91 1230.85C3038.85 1229.98 3038.03 1228.92 3037.43 1227.68C3036.99 1226.42 3036.65 1224.59 3036.43 1222.18L3026.83 1118.57C3026.6 1116 3026.59 1114.13 3026.8 1112.98C3027.17 1111.65 3027.79 1110.46 3028.66 1109.4C3029.53 1108.35 3030.75 1107.51 3032.31 1106.88C3034.04 1106.23 3036.83 1105.73 3040.68 1105.37L3043.81 1105.08C3047.83 1104.71 3050.66 1104.69 3052.31 1105.03C3054.11 1105.18 3055.54 1105.7 3056.59 1106.57C3058.67 1108 3059.91 1110.97 3060.33 1115.46L3061.69 1130.16C3065.57 1110.85 3075.95 1100.41 3092.82 1098.85C3098.76 1098.29 3103.01 1098.71 3105.57 1100.09ZM3185.32 1223.95C3176.33 1224.78 3167.64 1224.61 3159.27 1223.44C3151.06 1222.26 3143.66 1220.19 3137.07 1217.24C3134.03 1215.9 3131.89 1214.64 3130.64 1213.46C3129.38 1212.12 3128.68 1210.64 3128.53 1209.03C3128.26 1206.14 3129.05 1202.42 3130.9 1197.88C3132.49 1194.01 3133.87 1191.45 3135.05 1190.2C3136.22 1188.8 3137.68 1188.02 3139.45 1187.85C3141.06 1187.7 3143.55 1188.36 3146.93 1189.83C3152.33 1192.25 3158.09 1194.06 3164.2 1195.28C3170.29 1196.34 3176.23 1196.6 3182.01 1196.06C3189.56 1195.36 3195.16 1193.71 3198.81 1191.1C3202.62 1188.48 3204.33 1185.08 3203.94 1180.91C3203.61 1177.37 3202.08 1174.84 3199.35 1173.31C3196.6 1171.62 3192.93 1170.5 3188.34 1169.96L3164.5 1167.06C3151.56 1165.51 3141.99 1161.94 3135.8 1156.35C3129.62 1150.77 3126.11 1143.48 3125.27 1134.48C3124.16 1122.43 3127.83 1112.29 3136.31 1104.05C3144.94 1095.8 3157.29 1090.93 3173.35 1089.44C3189.26 1087.97 3203.96 1090.17 3217.47 1096.05C3222.01 1097.9 3224.43 1100.35 3224.71 1103.4C3224.93 1105.81 3224.2 1109.2 3222.49 1113.57C3221.05 1117.27 3219.67 1119.83 3218.34 1121.24C3217.02 1122.66 3215.63 1123.44 3214.19 1123.57C3212.74 1123.71 3209.83 1122.92 3205.46 1121.22C3196.38 1117.69 3186.87 1116.38 3176.91 1117.3C3163.25 1118.57 3156.75 1122.74 3157.41 1129.8C3157.69 1132.86 3159.04 1135.16 3161.45 1136.72C3164.01 1138.1 3167.41 1139 3171.66 1139.42L3196.91 1141.7C3210.46 1142.88 3220.37 1146.66 3226.64 1153.04C3232.88 1159.27 3236.43 1166.96 3237.28 1176.12C3238.48 1189.13 3234.38 1199.96 3224.98 1208.61C3215.73 1217.24 3202.51 1222.36 3185.32 1223.95ZM164.612 1661.7C166.834 1662.95 168.102 1665.27 168.414 1668.64C169.054 1675.55 168.881 1681.56 167.897 1686.67C167.433 1688.66 166.756 1690.1 165.866 1690.99C164.962 1691.72 163.546 1692.18 161.618 1692.36C160.172 1692.49 158.398 1692.58 156.295 1692.61C154.352 1692.63 152.015 1692.76 149.284 1693.01C140.127 1693.86 133.437 1697.72 129.213 1704.59C124.974 1711.31 123.397 1720.53 124.483 1732.25L128.969 1780.69C129.385 1785.19 128.704 1788.33 126.925 1790.11C126.051 1791.17 124.752 1792.01 123.03 1792.66C121.453 1793.13 118.657 1793.55 114.64 1793.92L111.508 1794.21C107.652 1794.57 104.819 1794.59 103.007 1794.27C101.356 1793.94 100.004 1793.33 98.9506 1792.46C97.8974 1791.59 97.0704 1790.53 96.4694 1789.29C96.0291 1788.03 95.6974 1786.2 95.4742 1783.79L85.8778 1680.17C85.6398 1677.6 85.6293 1675.74 85.8465 1674.59C86.2094 1673.26 86.8281 1672.06 87.7027 1671.01C88.5774 1669.96 89.7956 1669.12 91.3574 1668.49C93.0799 1667.84 95.8688 1667.34 99.7243 1666.98L102.857 1666.69C106.873 1666.32 109.707 1666.3 111.358 1666.63C113.155 1666.79 114.58 1667.31 115.633 1668.18C117.709 1669.61 118.956 1672.57 119.372 1677.07L120.734 1691.77C124.616 1672.45 134.991 1662.01 151.858 1660.45C157.802 1659.9 162.053 1660.32 164.612 1661.7ZM299.699 1717.73C298.227 1719.32 296.155 1720.57 293.483 1721.46C290.797 1722.2 286.964 1722.79 281.984 1723.26L214.513 1729.5C216.967 1738.51 221.806 1745.27 229.029 1749.79C236.237 1754.15 245.143 1755.83 255.746 1754.85C263.939 1754.09 272.616 1750.7 281.779 1744.66C283.924 1743.33 285.8 1742.59 287.406 1742.44C289.173 1742.28 290.839 1742.77 292.404 1743.92C293.954 1744.91 295.819 1746.68 298 1749.24C301.103 1753 302.766 1756.09 302.989 1758.49C303.287 1761.71 300.642 1765.52 295.055 1769.92C290.679 1773.41 284.805 1776.46 277.433 1779.09C270.062 1781.72 262.119 1783.42 253.604 1784.21C240.431 1785.43 228.451 1783.79 217.664 1779.28C206.877 1774.77 198.123 1767.72 191.402 1758.14C184.667 1748.39 180.667 1736.69 179.402 1723.03C178.212 1710.18 179.646 1698.55 183.703 1688.13C187.922 1677.69 194.59 1669.21 203.708 1662.7C212.826 1656.18 223.891 1652.32 236.903 1651.12C249.434 1649.96 260.435 1651.53 269.907 1655.84C279.379 1660.15 286.847 1666.42 292.309 1674.66C297.771 1682.91 300.993 1692.33 301.975 1702.93C302.332 1706.79 302.293 1709.87 301.859 1712.18C301.585 1714.47 300.866 1716.32 299.699 1717.73ZM239.206 1678.61C230.692 1679.4 224.161 1682.35 219.612 1687.47C215.049 1692.43 212.592 1699.14 212.241 1707.6L269.35 1702.31C267.934 1694.02 264.608 1687.84 259.372 1683.79C254.121 1679.58 247.399 1677.85 239.206 1678.61ZM399.755 1636.04C410.679 1635.02 420.578 1636.94 429.452 1641.79C438.487 1646.63 445.795 1653.81 451.376 1663.33C457.118 1672.85 460.562 1683.79 461.707 1696.16C462.913 1709.17 461.501 1721.05 457.473 1731.79C453.446 1742.53 447.209 1751.29 438.763 1758.07C430.463 1764.67 420.771 1768.49 409.686 1769.51C400.69 1770.35 392.319 1769.18 384.572 1766.01C376.986 1762.82 370.953 1758.03 366.472 1751.64L371.025 1800.8C371.441 1805.3 370.76 1808.44 368.981 1810.23C368.107 1811.28 366.801 1812.05 365.063 1812.53C363.502 1813.16 360.713 1813.66 356.696 1814.04L353.564 1814.33C349.708 1814.68 346.875 1814.7 345.063 1814.38C343.412 1814.05 342.06 1813.45 341.007 1812.57C339.953 1811.7 339.126 1810.64 338.525 1809.4C338.1 1808.31 337.768 1806.47 337.53 1803.9L324.028 1658.12C323.79 1655.55 323.772 1653.6 323.975 1652.29C324.323 1650.8 324.861 1649.61 325.59 1648.74C327.193 1646.81 330.806 1645.58 336.429 1645.06L342.212 1644.52C345.747 1644.2 348.259 1644.21 349.749 1644.55C351.386 1644.73 352.723 1645.17 353.761 1645.88C355.662 1647.17 356.836 1650.22 357.282 1655.04L358.331 1666.36C361.151 1658.32 366.033 1651.55 372.976 1646.05C380.065 1640.37 388.991 1637.03 399.755 1636.04ZM398.115 1741.66C408.075 1740.74 415.707 1736.55 421.011 1729.09C426.3 1721.47 428.424 1712.04 427.383 1700.8C426.326 1689.39 422.441 1680.68 415.726 1674.66C408.997 1668.48 400.893 1665.82 391.415 1666.7C381.455 1667.62 373.838 1671.97 368.564 1679.75C363.274 1687.37 361.143 1696.72 362.17 1707.81C363.181 1718.73 366.979 1727.37 373.563 1733.73C380.131 1739.93 388.315 1742.57 398.115 1741.66ZM553.352 1756.45C540.34 1757.66 528.601 1755.99 518.135 1751.45C507.654 1746.75 499.214 1739.59 492.815 1729.98C486.416 1720.36 482.614 1709.05 481.408 1696.04C480.203 1683.02 481.863 1671.21 486.388 1660.58C490.897 1649.79 497.872 1641.13 507.311 1634.58C516.751 1628.04 527.976 1624.16 540.989 1622.95C554.162 1621.73 565.989 1623.47 576.469 1628.18C587.111 1632.86 595.639 1640.09 602.053 1649.87C608.452 1659.48 612.254 1670.79 613.459 1683.81C614.664 1696.82 612.924 1708.65 608.239 1719.29C603.714 1729.91 596.733 1738.5 587.293 1745.04C577.839 1751.43 566.525 1755.23 553.352 1756.45ZM550.63 1727.05C560.59 1726.13 568.069 1722.04 573.066 1714.77C578.21 1707.32 580.261 1697.98 579.219 1686.74C578.178 1675.49 574.453 1666.76 568.045 1660.55C561.783 1654.16 553.672 1651.43 543.711 1652.35C533.912 1653.26 526.521 1657.43 521.538 1664.86C516.54 1672.13 514.562 1681.38 515.604 1692.63C516.645 1703.87 520.297 1712.69 526.559 1719.08C532.807 1725.3 540.83 1727.96 550.63 1727.05ZM713.381 1610.88C715.603 1612.13 716.87 1614.44 717.183 1617.82C717.822 1624.72 717.65 1630.74 716.665 1635.85C716.201 1637.84 715.525 1639.28 714.635 1640.17C713.731 1640.9 712.315 1641.36 710.387 1641.53C708.941 1641.67 707.167 1641.75 705.063 1641.78C703.121 1641.8 700.784 1641.94 698.053 1642.19C688.896 1643.04 682.206 1646.9 677.981 1653.77C673.742 1660.48 672.166 1669.7 673.252 1681.43L677.738 1729.86C678.154 1734.36 677.473 1737.5 675.694 1739.29C674.819 1740.34 673.521 1741.19 671.798 1741.84C670.222 1742.31 667.425 1742.73 663.409 1743.1L660.276 1743.39C656.421 1743.75 653.587 1743.77 651.776 1743.45C650.125 1743.11 648.772 1742.51 647.719 1741.64C646.666 1740.76 645.839 1739.7 645.238 1738.46C644.798 1737.21 644.466 1735.38 644.243 1732.97L634.647 1629.35C634.408 1626.78 634.398 1624.92 634.615 1623.76C634.978 1622.43 635.597 1621.24 636.471 1620.19C637.346 1619.13 638.564 1618.29 640.126 1617.66C641.849 1617.02 644.638 1616.51 648.493 1616.16L651.626 1615.87C655.642 1615.5 658.475 1615.48 660.127 1615.81C661.923 1615.97 663.348 1616.48 664.402 1617.36C666.478 1618.79 667.725 1621.75 668.141 1626.25L669.503 1640.95C673.384 1621.63 683.759 1611.19 700.627 1609.63C706.571 1609.08 710.822 1609.49 713.381 1610.88ZM830.964 1711.78C831.524 1714.32 831.885 1716.48 832.049 1718.25C832.302 1720.98 831.933 1723.12 830.942 1724.67C830.097 1726.04 828.347 1727.26 825.69 1728.31C820.041 1730.29 814.083 1731.58 807.818 1732.16C790.79 1733.73 778.625 1730.97 771.325 1723.87C764.024 1716.77 759.682 1705.75 758.298 1690.81L753.009 1633.7L744.093 1634.52C737.989 1635.09 734.059 1634.64 732.303 1633.19C731.426 1632.46 730.687 1631.47 730.086 1630.23C729.63 1628.82 729.284 1626.82 729.046 1624.25L728.689 1620.4C728.451 1617.83 728.433 1615.88 728.635 1614.57C728.983 1613.08 729.521 1611.89 730.25 1611.02C731.708 1609.26 735.489 1608.1 741.594 1607.54L750.509 1606.71L748.01 1579.72C747.772 1577.15 747.761 1575.29 747.979 1574.13C748.341 1572.8 748.96 1571.61 749.835 1570.56C750.709 1569.51 751.928 1568.66 753.489 1568.03C755.212 1567.39 758.001 1566.89 761.856 1566.53L764.989 1566.24C769.005 1565.87 771.839 1565.85 773.49 1566.18C775.287 1566.34 776.712 1566.86 777.765 1567.73C779.841 1569.16 781.088 1572.12 781.505 1576.62L784.004 1603.61L803.282 1601.82C809.386 1601.26 813.316 1601.7 815.071 1603.16C815.949 1603.89 816.615 1604.96 817.07 1606.38C817.671 1607.62 818.091 1609.52 818.329 1612.09L818.686 1615.95C818.924 1618.52 818.869 1620.55 818.521 1622.04C818.319 1623.36 817.853 1624.45 817.124 1625.33C815.667 1627.09 811.886 1628.25 805.781 1628.81L786.504 1630.6L791.391 1683.37C792.76 1698.15 800.031 1704.93 813.204 1703.71C815.131 1703.53 816.884 1703.2 818.46 1702.73C820.198 1702.25 821.629 1701.96 822.753 1701.85C825.002 1701.64 826.683 1702.3 827.796 1703.81C829.069 1705.32 830.125 1707.97 830.964 1711.78ZM1024 1584.05C1024.88 1584.78 1025.54 1585.86 1026 1587.27C1026.6 1588.51 1027.02 1590.42 1027.26 1592.99L1036.5 1692.75C1037.64 1705.12 1035.92 1716.21 1031.32 1726.04C1026.89 1736.01 1019.71 1744.13 1009.76 1750.39C999.965 1756.65 987.761 1760.45 973.142 1761.81C953.864 1763.59 937.809 1761.68 924.975 1756.06C919.069 1753.53 915.938 1750.33 915.581 1746.48C915.328 1743.75 915.98 1740.28 917.535 1736.09C918.829 1732.57 920.059 1730.1 921.226 1728.7C922.552 1727.28 924.099 1726.49 925.866 1726.33C928.437 1726.09 931.41 1726.7 934.787 1728.17C947.255 1733.34 958.549 1735.45 968.67 1734.51C981.522 1733.32 990.672 1728.91 996.122 1721.28C1001.73 1713.63 1003.98 1703.78 1002.86 1691.73L1001.84 1680.65C998.857 1688.7 993.96 1695.31 987.148 1700.48C980.335 1705.65 971.789 1708.71 961.507 1709.66C950.583 1710.67 940.706 1708.99 931.877 1704.63C923.032 1700.1 915.857 1693.47 910.35 1684.75C905.004 1676.01 901.802 1665.93 900.746 1654.53C899.63 1642.48 901.028 1631.33 904.94 1621.09C908.852 1610.84 914.885 1602.5 923.039 1596.08C931.354 1589.64 941.214 1585.89 952.62 1584.83C961.616 1584 969.754 1585.27 977.034 1588.65C984.459 1591.85 990.354 1596.89 994.719 1603.78L994.004 1596.07C993.558 1591.25 994.151 1588.03 995.785 1586.42C996.674 1585.53 997.907 1584.85 999.484 1584.38C1001.05 1583.75 1003.51 1583.28 1006.89 1582.97L1012.67 1582.43C1018.29 1581.91 1022.07 1582.45 1024 1584.05ZM969.106 1681.49C978.745 1680.6 986.231 1676.58 991.565 1669.45C997.045 1662.13 999.316 1653.42 998.379 1643.3C997.456 1633.34 993.645 1625.43 986.945 1619.57C980.406 1613.69 972.478 1611.18 963.161 1612.05C953.361 1612.96 945.795 1616.98 940.461 1624.11C935.273 1631.08 933.162 1639.78 934.129 1650.22C935.111 1660.82 938.857 1668.9 945.366 1674.45C952.036 1679.99 959.949 1682.34 969.106 1681.49ZM1178.39 1636.35C1176.92 1637.94 1174.84 1639.19 1172.17 1640.08C1169.49 1640.82 1165.65 1641.42 1160.67 1641.88L1093.2 1648.13C1095.66 1657.13 1100.49 1663.9 1107.72 1668.41C1114.93 1672.77 1123.83 1674.45 1134.43 1673.47C1142.63 1672.71 1151.31 1669.32 1160.47 1663.28C1162.61 1661.95 1164.49 1661.21 1166.09 1661.06C1167.86 1660.9 1169.53 1661.39 1171.09 1662.54C1172.64 1663.53 1174.51 1665.3 1176.69 1667.86C1179.79 1671.62 1181.45 1674.71 1181.68 1677.12C1181.98 1680.33 1179.33 1684.14 1173.74 1688.54C1169.37 1692.03 1163.49 1695.08 1156.12 1697.71C1148.75 1700.34 1140.81 1702.04 1132.29 1702.83C1119.12 1704.05 1107.14 1702.41 1096.35 1697.9C1085.57 1693.39 1076.81 1686.34 1070.09 1676.76C1063.36 1667.01 1059.36 1655.31 1058.09 1641.66C1056.9 1628.8 1058.33 1617.17 1062.39 1606.75C1066.61 1596.31 1073.28 1587.83 1082.4 1581.32C1091.51 1574.8 1102.58 1570.94 1115.59 1569.74C1128.12 1568.58 1139.12 1570.15 1148.6 1574.46C1158.07 1578.77 1165.54 1585.04 1171 1593.29C1176.46 1601.53 1179.68 1610.95 1180.66 1621.55C1181.02 1625.41 1180.98 1628.49 1180.55 1630.8C1180.27 1633.09 1179.55 1634.94 1178.39 1636.35ZM1117.9 1597.23C1109.38 1598.02 1102.85 1600.97 1098.3 1606.09C1093.74 1611.05 1091.28 1617.76 1090.93 1626.22L1148.04 1620.93C1146.62 1612.64 1143.3 1606.46 1138.06 1602.41C1132.81 1598.2 1126.09 1596.47 1117.9 1597.23ZM1289.84 1669.29C1290.4 1671.83 1290.76 1673.98 1290.92 1675.75C1291.18 1678.48 1290.81 1680.62 1289.82 1682.17C1288.97 1683.54 1287.22 1684.76 1284.57 1685.81C1278.92 1687.8 1272.96 1689.08 1266.69 1689.66C1249.67 1691.23 1237.5 1688.47 1230.2 1681.37C1222.9 1674.27 1218.56 1663.25 1217.17 1648.31L1211.89 1591.2L1202.97 1592.03C1196.86 1592.59 1192.93 1592.14 1191.18 1590.69C1190.3 1589.96 1189.56 1588.97 1188.96 1587.73C1188.51 1586.32 1188.16 1584.32 1187.92 1581.75L1187.56 1577.9C1187.33 1575.33 1187.31 1573.38 1187.51 1572.07C1187.86 1570.58 1188.4 1569.4 1189.13 1568.52C1190.58 1566.76 1194.37 1565.6 1200.47 1565.04L1209.39 1564.21L1206.89 1537.22C1206.65 1534.65 1206.64 1532.79 1206.85 1531.64C1207.22 1530.31 1207.84 1529.11 1208.71 1528.06C1209.59 1527.01 1210.8 1526.17 1212.37 1525.54C1214.09 1524.89 1216.88 1524.39 1220.73 1524.03L1223.87 1523.74C1227.88 1523.37 1230.71 1523.35 1232.37 1523.68C1234.16 1523.84 1235.59 1524.36 1236.64 1525.23C1238.72 1526.66 1239.96 1529.62 1240.38 1534.12L1242.88 1561.11L1262.16 1559.32C1268.26 1558.76 1272.19 1559.2 1273.95 1560.66C1274.82 1561.39 1275.49 1562.46 1275.95 1563.88C1276.55 1565.12 1276.97 1567.03 1277.21 1569.6L1277.56 1573.45C1277.8 1576.02 1277.75 1578.05 1277.4 1579.54C1277.19 1580.86 1276.73 1581.95 1276 1582.83C1274.54 1584.59 1270.76 1585.75 1264.66 1586.31L1245.38 1588.1L1250.27 1640.87C1251.64 1655.65 1258.91 1662.43 1272.08 1661.21C1274.01 1661.03 1275.76 1660.71 1277.34 1660.24C1279.07 1659.75 1280.5 1659.46 1281.63 1659.35C1283.88 1659.14 1285.56 1659.8 1286.67 1661.32C1287.95 1662.82 1289 1665.47 1289.84 1669.29ZM1392.2 1659.81C1392.76 1662.35 1393.13 1664.5 1393.29 1666.27C1393.54 1669 1393.17 1671.14 1392.18 1672.69C1391.34 1674.06 1389.59 1675.28 1386.93 1676.33C1381.28 1678.32 1375.32 1679.6 1369.06 1680.18C1352.03 1681.75 1339.87 1678.99 1332.57 1671.89C1325.26 1664.79 1320.92 1653.77 1319.54 1638.83L1314.25 1581.72L1305.33 1582.55C1299.23 1583.11 1295.3 1582.66 1293.54 1581.21C1292.67 1580.48 1291.93 1579.49 1291.33 1578.25C1290.87 1576.84 1290.52 1574.84 1290.29 1572.27L1289.93 1568.42C1289.69 1565.85 1289.67 1563.9 1289.88 1562.59C1290.22 1561.1 1290.76 1559.92 1291.49 1559.04C1292.95 1557.28 1296.73 1556.12 1302.83 1555.56L1311.75 1554.73L1309.25 1527.74C1309.01 1525.17 1309 1523.31 1309.22 1522.16C1309.58 1520.83 1310.2 1519.63 1311.08 1518.58C1311.95 1517.53 1313.17 1516.69 1314.73 1516.06C1316.45 1515.41 1319.24 1514.91 1323.1 1514.55L1326.23 1514.26C1330.25 1513.89 1333.08 1513.87 1334.73 1514.2C1336.53 1514.36 1337.95 1514.88 1339.01 1515.75C1341.08 1517.18 1342.33 1520.14 1342.75 1524.64L1345.24 1551.63L1364.52 1549.84C1370.63 1549.28 1374.56 1549.72 1376.31 1551.18C1377.19 1551.91 1377.86 1552.98 1378.31 1554.4C1378.91 1555.64 1379.33 1557.55 1379.57 1560.12L1379.93 1563.97C1380.16 1566.54 1380.11 1568.57 1379.76 1570.06C1379.56 1571.38 1379.09 1572.47 1378.37 1573.35C1376.91 1575.11 1373.13 1576.27 1367.02 1576.83L1347.74 1578.62L1352.63 1631.39C1354 1646.17 1361.27 1652.95 1374.44 1651.73C1376.37 1651.55 1378.12 1651.23 1379.7 1650.76C1381.44 1650.27 1382.87 1649.98 1383.99 1649.87C1386.24 1649.66 1387.92 1650.32 1389.04 1651.84C1390.31 1653.34 1391.37 1655.99 1392.2 1659.81ZM1430.72 1672.04C1426.86 1672.39 1424.03 1672.41 1422.22 1672.09C1420.57 1671.76 1419.21 1671.16 1418.16 1670.28C1417.11 1669.41 1416.28 1668.35 1415.68 1667.11C1415.24 1665.85 1414.91 1664.02 1414.68 1661.61L1405.07 1557.75C1404.83 1555.18 1404.82 1553.32 1405.03 1552.17C1405.4 1550.84 1406.02 1549.65 1406.89 1548.59C1407.62 1547.72 1408.76 1546.96 1410.33 1546.33C1412.05 1545.68 1414.92 1545.18 1418.93 1544.8L1422.07 1544.51C1426.08 1544.14 1428.92 1544.12 1430.57 1544.46C1432.36 1544.61 1433.79 1545.13 1434.84 1546C1436.92 1547.43 1438.17 1550.4 1438.58 1554.89L1448.18 1658.51C1448.6 1663.01 1447.91 1666.15 1446.14 1667.93C1445.26 1668.99 1443.96 1669.84 1442.24 1670.48C1440.66 1670.95 1437.87 1671.37 1433.85 1671.75L1430.72 1672.04ZM1419.26 1527.28C1413.79 1527.78 1409.05 1526.44 1405.03 1523.25C1400.99 1519.89 1398.72 1515.49 1398.21 1510.02C1397.74 1504.88 1399.18 1500.38 1402.55 1496.5C1405.92 1492.62 1410.33 1490.43 1415.8 1489.93C1421.26 1489.42 1426 1490.76 1430.02 1493.95C1434.04 1497.15 1436.29 1501.31 1436.77 1506.45C1437.28 1511.92 1435.85 1516.67 1432.5 1520.7C1429.29 1524.56 1424.88 1526.76 1419.26 1527.28ZM1543.32 1530.12C1557.3 1528.83 1568.73 1532.47 1577.63 1541.04C1586.52 1549.62 1591.74 1562.18 1593.27 1578.72L1599.36 1644.51C1599.78 1649.01 1599.1 1652.15 1597.32 1653.93C1596.44 1654.99 1595.14 1655.84 1593.42 1656.48C1591.84 1656.95 1589.05 1657.37 1585.03 1657.74L1581.9 1658.03C1578.04 1658.39 1575.21 1658.41 1573.4 1658.09C1571.75 1657.76 1570.4 1657.16 1569.34 1656.28C1568.29 1655.41 1567.46 1654.35 1566.86 1653.11C1566.42 1651.85 1566.09 1650.02 1565.87 1647.61L1560.29 1587.37C1559.36 1577.41 1556.67 1570.2 1552.21 1565.76C1547.73 1561.15 1541.32 1559.23 1532.96 1560.01C1524.45 1560.79 1518.12 1564.22 1513.98 1570.27C1509.83 1576.16 1508.23 1584.25 1509.18 1594.53L1514.54 1652.36C1514.96 1656.86 1514.27 1660 1512.5 1661.79C1511.62 1662.84 1510.32 1663.69 1508.6 1664.34C1507.02 1664.81 1504.23 1665.23 1500.21 1665.6L1497.08 1665.89C1493.22 1666.25 1490.39 1666.27 1488.58 1665.95C1486.93 1665.61 1485.57 1665.01 1484.52 1664.14C1483.47 1663.26 1482.64 1662.2 1482.04 1660.96C1481.6 1659.71 1481.27 1657.88 1481.04 1655.47L1471.45 1551.85C1471.21 1549.28 1471.2 1547.42 1471.42 1546.26C1471.78 1544.93 1472.4 1543.74 1473.27 1542.69C1474.15 1541.63 1475.37 1540.79 1476.93 1540.16C1478.65 1539.52 1481.44 1539.02 1485.29 1538.66L1488.43 1538.37C1492.28 1538.01 1495.04 1538 1496.69 1538.33C1498.48 1538.49 1499.91 1539.01 1500.96 1539.88C1503.04 1541.31 1504.29 1544.27 1504.7 1548.77L1505.44 1556.72C1508.14 1549.18 1512.76 1543.08 1519.3 1538.43C1525.83 1533.77 1533.84 1531 1543.32 1530.12ZM1742.91 1517.47C1743.78 1518.2 1744.45 1519.27 1744.91 1520.69C1745.51 1521.93 1745.93 1523.84 1746.16 1526.41L1755.4 1626.17C1756.55 1638.54 1754.82 1649.63 1750.22 1659.46C1745.8 1669.43 1738.61 1677.55 1728.66 1683.81C1718.87 1690.07 1706.67 1693.87 1692.05 1695.22C1672.77 1697.01 1656.71 1695.09 1643.88 1689.48C1637.98 1686.95 1634.84 1683.75 1634.49 1679.9C1634.23 1677.17 1634.89 1673.7 1636.44 1669.51C1637.74 1665.99 1638.97 1663.52 1640.13 1662.12C1641.46 1660.7 1643.01 1659.91 1644.77 1659.75C1647.34 1659.51 1650.32 1660.12 1653.69 1661.59C1666.16 1666.76 1677.46 1668.87 1687.58 1667.93C1700.43 1666.74 1709.58 1662.33 1715.03 1654.7C1720.64 1647.05 1722.89 1637.2 1721.77 1625.15L1720.74 1614.07C1717.76 1622.12 1712.87 1628.73 1706.05 1633.9C1699.24 1639.07 1690.69 1642.13 1680.41 1643.08C1669.49 1644.09 1659.61 1642.41 1650.78 1638.04C1641.94 1633.52 1634.76 1626.89 1629.26 1618.16C1623.91 1609.42 1620.71 1599.35 1619.65 1587.95C1618.54 1575.9 1619.93 1564.75 1623.85 1554.5C1627.76 1544.26 1633.79 1535.92 1641.94 1529.5C1650.26 1523.06 1660.12 1519.31 1671.53 1518.25C1680.52 1517.42 1688.66 1518.69 1695.94 1522.07C1703.37 1525.27 1709.26 1530.31 1713.62 1537.2L1712.91 1529.49C1712.46 1524.67 1713.06 1521.45 1714.69 1519.84C1715.58 1518.95 1716.81 1518.27 1718.39 1517.8C1719.95 1517.17 1722.42 1516.7 1725.79 1516.38L1731.58 1515.85C1737.2 1515.33 1740.98 1515.87 1742.91 1517.47ZM1688.01 1614.91C1697.65 1614.02 1705.14 1610 1710.47 1602.87C1715.95 1595.55 1718.22 1586.84 1717.28 1576.72C1716.36 1566.76 1712.55 1558.85 1705.85 1552.99C1699.31 1547.11 1691.38 1544.6 1682.07 1545.47C1672.27 1546.37 1664.7 1550.4 1659.37 1557.53C1654.18 1564.5 1652.07 1573.2 1653.03 1583.64C1654.02 1594.24 1657.76 1602.32 1664.27 1607.87C1670.94 1613.41 1678.86 1615.76 1688.01 1614.91ZM1913.81 1495.81C1924.73 1494.8 1934.72 1496.79 1943.77 1501.79C1952.81 1506.62 1960.11 1513.8 1965.7 1523.33C1971.26 1532.7 1974.62 1543.57 1975.76 1555.94C1976.94 1568.63 1975.52 1580.43 1971.51 1591.33C1967.48 1602.07 1961.32 1610.82 1953.04 1617.59C1944.75 1624.35 1935.07 1628.24 1923.98 1629.27C1914.67 1630.13 1906.13 1628.9 1898.36 1625.57C1890.59 1622.07 1884.52 1616.88 1880.15 1610L1880.93 1618.43C1881.38 1623.25 1880.79 1626.46 1879.15 1628.07C1878.26 1628.97 1877.04 1629.73 1875.48 1630.36C1874.06 1630.81 1871.59 1631.2 1868.05 1631.53L1862.27 1632.07C1856.65 1632.59 1852.87 1632.05 1850.94 1630.44C1850.06 1629.71 1849.32 1628.73 1848.72 1627.49C1848.27 1626.07 1847.92 1624.08 1847.68 1621.51L1833.58 1469.22C1833.34 1466.65 1833.33 1464.79 1833.54 1463.63C1833.91 1462.3 1834.53 1461.11 1835.4 1460.06C1836.28 1459 1837.49 1458.16 1839.06 1457.53C1840.78 1456.89 1843.57 1456.38 1847.42 1456.03L1850.56 1455.74C1854.57 1455.36 1857.4 1455.35 1859.06 1455.68C1860.85 1455.84 1862.28 1456.35 1863.33 1457.23C1865.41 1458.65 1866.65 1461.62 1867.07 1466.12L1872.63 1526.12C1875.43 1517.92 1880.31 1511.07 1887.25 1505.56C1894.35 1500.04 1903.21 1496.79 1913.81 1495.81ZM1912.17 1601.44C1922.13 1600.52 1929.76 1596.33 1935.07 1588.87C1940.36 1581.25 1942.48 1571.82 1941.44 1560.57C1940.38 1549.17 1936.5 1540.45 1929.78 1534.43C1923.05 1528.25 1914.95 1525.6 1905.47 1526.48C1895.51 1527.4 1887.89 1531.75 1882.62 1539.53C1877.33 1547.15 1875.2 1556.5 1876.23 1567.59C1877.24 1578.51 1881.03 1587.15 1887.62 1593.51C1894.19 1599.7 1902.37 1602.35 1912.17 1601.44ZM2115.67 1549.54C2114.2 1551.14 2112.13 1552.38 2109.46 1553.28C2106.77 1554.01 2102.94 1554.61 2097.96 1555.07L2030.49 1561.32C2032.94 1570.33 2037.78 1577.09 2045 1581.61C2052.21 1585.96 2061.12 1587.65 2071.72 1586.67C2079.91 1585.91 2088.59 1582.51 2097.75 1576.48C2099.9 1575.14 2101.77 1574.4 2103.38 1574.25C2105.15 1574.09 2106.81 1574.58 2108.38 1575.74C2109.93 1576.73 2111.79 1578.5 2113.97 1581.05C2117.08 1584.81 2118.74 1587.9 2118.96 1590.31C2119.26 1593.52 2116.61 1597.33 2111.03 1601.74C2106.65 1605.22 2100.78 1608.28 2093.41 1610.9C2086.03 1613.53 2078.09 1615.24 2069.58 1616.03C2056.4 1617.25 2044.42 1615.6 2033.64 1611.09C2022.85 1606.58 2014.1 1599.54 2007.38 1589.95C2000.64 1580.2 1996.64 1568.5 1995.37 1554.85C1994.18 1542 1995.62 1530.36 1999.68 1519.94C2003.89 1509.5 2010.56 1501.03 2019.68 1494.51C2028.8 1488 2039.86 1484.14 2052.88 1482.93C2065.41 1481.77 2076.41 1483.35 2085.88 1487.65C2095.35 1491.96 2102.82 1498.24 2108.28 1506.48C2113.74 1514.72 2116.97 1524.15 2117.95 1534.75C2118.3 1538.6 2118.27 1541.69 2117.83 1543.99C2117.56 1546.29 2116.84 1548.14 2115.67 1549.54ZM2055.18 1510.43C2046.66 1511.21 2040.13 1514.17 2035.58 1519.29C2031.02 1524.25 2028.56 1530.96 2028.21 1539.41L2085.32 1534.12C2083.91 1525.83 2080.58 1519.66 2075.34 1515.61C2070.09 1511.39 2063.37 1509.67 2055.18 1510.43ZM2227.12 1582.48C2227.68 1585.02 2228.04 1587.17 2228.21 1588.94C2228.46 1591.67 2228.09 1593.81 2227.1 1595.36C2226.26 1596.74 2224.51 1597.95 2221.85 1599.01C2216.2 1600.99 2210.24 1602.27 2203.98 1602.85C2186.95 1604.43 2174.79 1601.67 2167.48 1594.57C2160.18 1587.46 2155.84 1576.44 2154.46 1561.5L2149.17 1504.39L2140.25 1505.22C2134.15 1505.79 2130.22 1505.34 2128.46 1503.88C2127.59 1503.15 2126.85 1502.17 2126.25 1500.93C2125.79 1499.51 2125.44 1497.52 2125.21 1494.95L2124.85 1491.09C2124.61 1488.52 2124.59 1486.58 2124.79 1485.26C2125.14 1483.77 2125.68 1482.59 2126.41 1481.71C2127.87 1479.96 2131.65 1478.8 2137.75 1478.23L2146.67 1477.41L2144.17 1450.42C2143.93 1447.85 2143.92 1445.98 2144.14 1444.83C2144.5 1443.5 2145.12 1442.31 2145.99 1441.26C2146.87 1440.2 2148.09 1439.36 2149.65 1438.73C2151.37 1438.08 2154.16 1437.58 2158.02 1437.23L2161.15 1436.94C2165.17 1436.56 2168 1436.54 2169.65 1436.88C2171.45 1437.04 2172.87 1437.55 2173.92 1438.43C2176 1439.85 2177.25 1442.82 2177.66 1447.31L2180.16 1474.3L2199.44 1472.52C2205.55 1471.95 2209.48 1472.4 2211.23 1473.86C2212.11 1474.59 2212.78 1475.66 2213.23 1477.07C2213.83 1478.31 2214.25 1480.22 2214.49 1482.79L2214.85 1486.65C2215.08 1489.22 2215.03 1491.25 2214.68 1492.74C2214.48 1494.05 2214.01 1495.15 2213.28 1496.03C2211.83 1497.78 2208.05 1498.94 2201.94 1499.51L2182.66 1501.29L2187.55 1554.06C2188.92 1568.84 2196.19 1575.62 2209.36 1574.4C2211.29 1574.22 2213.04 1573.9 2214.62 1573.43C2216.36 1572.95 2217.79 1572.65 2218.91 1572.55C2221.16 1572.34 2222.84 1572.99 2223.96 1574.51C2225.23 1576.01 2226.29 1578.67 2227.12 1582.48ZM2329.49 1573C2330.05 1575.54 2330.41 1577.69 2330.57 1579.46C2330.83 1582.19 2330.46 1584.33 2329.47 1585.88C2328.62 1587.26 2326.87 1588.47 2324.21 1589.53C2318.57 1591.51 2312.61 1592.79 2306.34 1593.37C2289.31 1594.95 2277.15 1592.19 2269.85 1585.08C2262.55 1577.98 2258.21 1566.96 2256.82 1552.02L2251.53 1494.91L2242.62 1495.74C2236.51 1496.3 2232.58 1495.86 2230.83 1494.4C2229.95 1493.67 2229.21 1492.69 2228.61 1491.45C2228.15 1490.03 2227.81 1488.04 2227.57 1485.47L2227.21 1481.61C2226.98 1479.04 2226.96 1477.1 2227.16 1475.78C2227.51 1474.29 2228.05 1473.11 2228.77 1472.23C2230.23 1470.48 2234.01 1469.32 2240.12 1468.75L2249.03 1467.93L2246.53 1440.94C2246.3 1438.37 2246.29 1436.5 2246.5 1435.35C2246.87 1434.02 2247.48 1432.83 2248.36 1431.78C2249.23 1430.72 2250.45 1429.88 2252.01 1429.25C2253.74 1428.6 2256.53 1428.1 2260.38 1427.75L2263.51 1427.46C2267.53 1427.08 2270.36 1427.06 2272.01 1427.4C2273.81 1427.55 2275.24 1428.07 2276.29 1428.95C2278.37 1430.37 2279.61 1433.34 2280.03 1437.83L2282.53 1464.82L2301.81 1463.04C2307.91 1462.47 2311.84 1462.92 2313.6 1464.38C2314.47 1465.1 2315.14 1466.18 2315.59 1467.59C2316.2 1468.83 2316.62 1470.74 2316.85 1473.31L2317.21 1477.17C2317.45 1479.74 2317.39 1481.77 2317.05 1483.26C2316.84 1484.57 2316.38 1485.67 2315.65 1486.55C2314.19 1488.3 2310.41 1489.46 2304.31 1490.03L2285.03 1491.81L2289.92 1544.58C2291.28 1559.36 2298.56 1566.14 2311.73 1564.92C2313.66 1564.74 2315.41 1564.42 2316.98 1563.95C2318.72 1563.46 2320.15 1563.17 2321.28 1563.07C2323.53 1562.86 2325.21 1563.51 2326.32 1565.03C2327.59 1566.53 2328.65 1569.19 2329.49 1573ZM2458.3 1517.81C2456.83 1519.4 2454.75 1520.65 2452.08 1521.54C2449.4 1522.28 2445.56 1522.88 2440.58 1523.34L2373.11 1529.59C2375.57 1538.6 2380.41 1545.36 2387.63 1549.87C2394.84 1554.23 2403.74 1555.91 2414.35 1554.93C2422.54 1554.17 2431.22 1550.78 2440.38 1544.74C2442.52 1543.41 2444.4 1542.67 2446.01 1542.52C2447.77 1542.36 2449.44 1542.85 2451 1544C2452.55 1544.99 2454.42 1546.77 2456.6 1549.32C2459.7 1553.08 2461.37 1556.17 2461.59 1558.58C2461.89 1561.79 2459.24 1565.6 2453.66 1570.01C2449.28 1573.49 2443.41 1576.55 2436.03 1579.17C2428.66 1581.8 2420.72 1583.51 2412.2 1584.3C2399.03 1585.52 2387.05 1583.87 2376.26 1579.36C2365.48 1574.85 2356.72 1567.8 2350 1558.22C2343.27 1548.47 2339.27 1536.77 2338 1523.12C2336.81 1510.27 2338.25 1498.63 2342.3 1488.21C2346.52 1477.77 2353.19 1469.3 2362.31 1462.78C2371.43 1456.27 2382.49 1452.41 2395.5 1451.2C2408.03 1450.04 2419.03 1451.61 2428.51 1455.92C2437.98 1460.23 2445.45 1466.5 2450.91 1474.75C2456.37 1482.99 2459.59 1492.41 2460.57 1503.02C2460.93 1506.87 2460.89 1509.95 2460.46 1512.26C2460.19 1514.56 2459.47 1516.41 2458.3 1517.81ZM2397.81 1478.69C2389.29 1479.48 2382.76 1482.44 2378.21 1487.56C2373.65 1492.52 2371.19 1499.22 2370.84 1507.68L2427.95 1502.39C2426.53 1494.1 2423.21 1487.93 2417.97 1483.87C2412.72 1479.66 2406 1477.93 2397.81 1478.69ZM2561.12 1439.75C2563.34 1441 2564.61 1443.32 2564.92 1446.69C2565.56 1453.6 2565.39 1459.61 2564.41 1464.72C2563.94 1466.71 2563.27 1468.15 2562.38 1469.04C2561.47 1469.77 2560.06 1470.23 2558.13 1470.41C2556.68 1470.54 2554.91 1470.62 2552.8 1470.66C2550.86 1470.68 2548.52 1470.81 2545.79 1471.06C2536.64 1471.91 2529.95 1475.77 2525.72 1482.64C2521.48 1489.36 2519.91 1498.57 2520.99 1510.3L2525.48 1558.74C2525.9 1563.23 2525.21 1566.38 2523.43 1568.16C2522.56 1569.21 2521.26 1570.06 2519.54 1570.71C2517.96 1571.18 2515.17 1571.6 2511.15 1571.97L2508.02 1572.26C2504.16 1572.62 2501.33 1572.64 2499.52 1572.32C2497.87 1571.99 2496.51 1571.38 2495.46 1570.51C2494.41 1569.63 2493.58 1568.58 2492.98 1567.34C2492.54 1566.08 2492.21 1564.25 2491.98 1561.84L2482.39 1458.22C2482.15 1455.65 2482.14 1453.79 2482.36 1452.64C2482.72 1451.31 2483.34 1450.11 2484.21 1449.06C2485.09 1448.01 2486.31 1447.17 2487.87 1446.53C2489.59 1445.89 2492.38 1445.39 2496.23 1445.03L2499.37 1444.74C2503.38 1444.37 2506.22 1444.35 2507.87 1444.68C2509.66 1444.84 2511.09 1445.36 2512.14 1446.23C2514.22 1447.66 2515.47 1450.62 2515.88 1455.12L2517.24 1469.82C2521.13 1450.5 2531.5 1440.06 2548.37 1438.5C2554.31 1437.95 2558.56 1438.37 2561.12 1439.75ZM2759.26 1423.34C2760.14 1424.07 2760.8 1425.15 2761.26 1426.56C2761.86 1427.8 2762.28 1429.71 2762.52 1432.28L2771.75 1532.04C2772.9 1544.41 2771.17 1555.51 2766.57 1565.33C2762.15 1575.3 2754.96 1583.42 2745.01 1589.68C2735.22 1595.94 2723.02 1599.74 2708.4 1601.1C2689.12 1602.88 2673.07 1600.97 2660.23 1595.35C2654.33 1592.82 2651.2 1589.62 2650.84 1585.77C2650.59 1583.04 2651.24 1579.58 2652.79 1575.38C2654.09 1571.86 2655.32 1569.39 2656.48 1567.99C2657.81 1566.57 2659.36 1565.78 2661.12 1565.62C2663.69 1565.38 2666.67 1565.99 2670.04 1567.46C2682.51 1572.63 2693.81 1574.74 2703.93 1573.8C2716.78 1572.61 2725.93 1568.2 2731.38 1560.57C2736.99 1552.92 2739.24 1543.07 2738.12 1531.02L2737.1 1519.94C2734.11 1527.99 2729.22 1534.6 2722.41 1539.77C2715.59 1544.94 2707.05 1548 2696.76 1548.95C2685.84 1549.96 2675.96 1548.28 2667.13 1543.92C2658.29 1539.39 2651.11 1532.76 2645.61 1524.04C2640.26 1515.3 2637.06 1505.22 2636 1493.82C2634.89 1481.77 2636.29 1470.62 2640.2 1460.38C2644.11 1450.13 2650.14 1441.79 2658.3 1435.37C2666.61 1428.93 2676.47 1425.18 2687.88 1424.12C2696.87 1423.29 2705.01 1424.56 2712.29 1427.94C2719.72 1431.14 2725.61 1436.18 2729.98 1443.07L2729.26 1435.36C2728.82 1430.54 2729.41 1427.32 2731.04 1425.71C2731.93 1424.82 2733.16 1424.14 2734.74 1423.67C2736.3 1423.04 2738.77 1422.57 2742.14 1422.26L2747.93 1421.72C2753.55 1421.2 2757.33 1421.74 2759.26 1423.34ZM2704.36 1520.78C2714 1519.89 2721.49 1515.87 2726.82 1508.74C2732.3 1501.43 2734.57 1492.71 2733.64 1482.59C2732.71 1472.63 2728.9 1464.72 2722.2 1458.86C2715.66 1452.98 2707.74 1450.48 2698.42 1451.34C2688.62 1452.25 2681.05 1456.27 2675.72 1463.41C2670.53 1470.37 2668.42 1479.07 2669.39 1489.51C2670.37 1500.11 2674.11 1508.19 2680.62 1513.75C2687.29 1519.28 2695.21 1521.63 2704.36 1520.78ZM2874.1 1410.76C2876.32 1412.02 2877.59 1414.33 2877.9 1417.7C2878.54 1424.61 2878.37 1430.62 2877.38 1435.74C2876.92 1437.72 2876.24 1439.16 2875.35 1440.06C2874.45 1440.79 2873.03 1441.24 2871.1 1441.42C2869.66 1441.55 2867.88 1441.64 2865.78 1441.67C2863.84 1441.69 2861.5 1441.82 2858.77 1442.08C2849.61 1442.93 2842.92 1446.79 2838.7 1453.66C2834.46 1460.37 2832.88 1469.59 2833.97 1481.32L2838.46 1529.75C2838.87 1534.25 2838.19 1537.39 2836.41 1539.17C2835.54 1540.23 2834.24 1541.08 2832.52 1541.72C2830.94 1542.19 2828.14 1542.61 2824.13 1542.99L2820.99 1543.28C2817.14 1543.63 2814.31 1543.65 2812.49 1543.33C2810.84 1543 2809.49 1542.4 2808.44 1541.52C2807.38 1540.65 2806.56 1539.59 2805.96 1538.35C2805.52 1537.09 2805.18 1535.26 2804.96 1532.85L2795.36 1429.24C2795.13 1426.67 2795.12 1424.8 2795.33 1423.65C2795.7 1422.32 2796.31 1421.13 2797.19 1420.07C2798.06 1419.02 2799.28 1418.18 2800.84 1417.55C2802.57 1416.9 2805.36 1416.4 2809.21 1416.04L2812.34 1415.75C2816.36 1415.38 2819.19 1415.36 2820.84 1415.7C2822.64 1415.85 2824.07 1416.37 2825.12 1417.24C2827.2 1418.67 2828.44 1421.64 2828.86 1426.13L2830.22 1440.83C2834.1 1421.52 2844.48 1411.08 2861.34 1409.52C2867.29 1408.96 2871.54 1409.38 2874.1 1410.76ZM2947.94 1399.55C2964.16 1398.05 2977.33 1401.12 2987.43 1408.77C2997.68 1416.25 3003.49 1427.3 3004.84 1441.92L3011.51 1513.97C3011.95 1518.62 3011.34 1521.76 3009.71 1523.37C3007.93 1525.15 3004.47 1526.28 2999.33 1526.76L2992.83 1527.36C2988.01 1527.81 2984.47 1527.24 2982.22 1525.67C2981.34 1524.94 2980.6 1523.96 2980 1522.72C2979.56 1521.46 2979.22 1519.55 2978.98 1516.98L2978.43 1510.95C2971.98 1525.32 2959.84 1533.33 2942.01 1534.99C2928.84 1536.21 2917.91 1533.65 2909.22 1527.33C2900.53 1521 2895.57 1511.17 2894.34 1497.84C2893.16 1485.15 2896.65 1475.59 2904.8 1469.17C2912.94 1462.58 2924.8 1457.67 2940.38 1454.45C2948.81 1452.7 2955.15 1451.22 2959.41 1450.01C2963.66 1448.65 2966.6 1447.16 2968.24 1445.55C2969.85 1443.78 2970.54 1441.61 2970.31 1439.04C2969.91 1434.7 2967.59 1431.59 2963.37 1429.72C2959.3 1427.82 2953.5 1427.23 2945.95 1427.93C2936.31 1428.82 2927.81 1431.55 2920.46 1436.12C2917.7 1437.83 2915.63 1439.08 2914.24 1439.86C2913 1440.46 2911.58 1440.83 2909.97 1440.98C2908.2 1441.14 2906.63 1440.72 2905.24 1439.72C2903.85 1438.71 2901.97 1436.86 2899.62 1434.16C2897.07 1431.16 2895.65 1428.05 2895.35 1424.84C2895.13 1422.43 2896.44 1419.96 2899.28 1417.42C2903.92 1413.27 2910.54 1409.5 2919.14 1406.11C2927.89 1402.7 2937.49 1400.52 2947.94 1399.55ZM2972.87 1466.75C2970.44 1468.43 2967.25 1469.86 2963.31 1471.04C2959.52 1472.2 2954.47 1473.56 2948.13 1475.12C2940.54 1477.12 2935.08 1479.4 2931.75 1481.98C2928.43 1484.56 2926.99 1488.34 2927.46 1493.32C2928.01 1499.26 2930.18 1503.51 2933.98 1506.08C2937.93 1508.47 2943.12 1509.36 2949.54 1508.77C2957.1 1508.07 2963.25 1505.47 2968.02 1500.98C2972.94 1496.31 2975.06 1490.36 2974.39 1483.14L2972.87 1466.75ZM3152.01 1337.88C3154.08 1339.31 3155.33 1342.27 3155.75 1346.77L3169.85 1499.06C3170.09 1501.63 3170.03 1503.66 3169.68 1505.15C3169.48 1506.46 3169.02 1507.56 3168.29 1508.44C3166.68 1510.37 3163.07 1511.59 3157.45 1512.12L3151.67 1512.65C3148.29 1512.96 3145.79 1513.03 3144.15 1512.86C3142.5 1512.53 3141.16 1512 3140.12 1511.29C3138.22 1510.01 3137.04 1506.96 3136.6 1502.14L3135.55 1490.81C3132.89 1498.84 3128.01 1505.61 3120.9 1511.13C3113.96 1516.63 3105.02 1519.89 3094.1 1520.9C3083.18 1521.91 3073.2 1520 3064.16 1515.17C3055.13 1510.33 3047.83 1503.23 3042.26 1493.86C3036.68 1484.33 3033.32 1473.38 3032.17 1461.02C3030.98 1448.16 3032.4 1436.37 3036.43 1425.62C3040.44 1414.72 3046.59 1405.89 3054.87 1399.13C3063.16 1392.36 3072.92 1388.46 3084.17 1387.42C3093.33 1386.57 3101.62 1387.83 3109.07 1391.19C3116.65 1394.38 3122.79 1399.48 3127.5 1406.5L3122.25 1349.87C3122.01 1347.3 3122 1345.44 3122.22 1344.28C3122.58 1342.95 3123.2 1341.76 3124.08 1340.71C3124.95 1339.65 3126.17 1338.81 3127.73 1338.18C3129.45 1337.54 3132.24 1337.03 3136.1 1336.68L3139.23 1336.39C3143.25 1336.02 3146.08 1336 3147.73 1336.33C3149.53 1336.49 3150.95 1337 3152.01 1337.88ZM3102 1490.76C3111.96 1489.84 3119.66 1485.48 3125.1 1477.68C3130.53 1469.89 3132.74 1460.53 3131.73 1449.61C3130.73 1438.84 3126.86 1430.29 3120.12 1423.95C3113.54 1417.59 3105.34 1414.87 3095.54 1415.77C3085.58 1416.7 3077.96 1420.97 3072.67 1428.59C3067.53 1436.03 3065.48 1445.37 3066.52 1456.62C3067.59 1468.19 3071.4 1476.99 3077.96 1483.02C3084.51 1489.06 3092.53 1491.64 3102 1490.76ZM3311.57 1438.78C3310.1 1440.38 3308.03 1441.62 3305.36 1442.52C3302.67 1443.25 3298.84 1443.85 3293.86 1444.31L3226.39 1450.56C3228.84 1459.57 3233.68 1466.33 3240.9 1470.85C3248.11 1475.2 3257.02 1476.89 3267.62 1475.91C3275.81 1475.15 3284.49 1471.75 3293.65 1465.72C3295.8 1464.39 3297.67 1463.65 3299.28 1463.5C3301.05 1463.33 3302.71 1463.83 3304.28 1464.98C3305.83 1465.97 3307.69 1467.74 3309.87 1470.29C3312.98 1474.06 3314.64 1477.14 3314.86 1479.55C3315.16 1482.77 3312.52 1486.57 3306.93 1490.98C3302.55 1494.46 3296.68 1497.52 3289.31 1500.15C3281.94 1502.77 3273.99 1504.48 3265.48 1505.27C3252.31 1506.49 3240.33 1504.85 3229.54 1500.34C3218.75 1495.83 3210 1488.78 3203.28 1479.19C3196.54 1469.45 3192.54 1457.75 3191.28 1444.09C3190.09 1431.24 3191.52 1419.6 3195.58 1409.18C3199.8 1398.75 3206.46 1390.27 3215.58 1383.76C3224.7 1377.24 3235.77 1373.38 3248.78 1372.18C3261.31 1371.01 3272.31 1372.59 3281.78 1376.9C3291.25 1381.2 3298.72 1387.48 3304.18 1395.72C3309.65 1403.97 3312.87 1413.39 3313.85 1423.99C3314.21 1427.85 3314.17 1430.93 3313.73 1433.24C3313.46 1435.53 3312.74 1437.38 3311.57 1438.78ZM3251.08 1399.67C3242.57 1400.46 3236.03 1403.41 3231.49 1408.53C3226.92 1413.49 3224.47 1420.2 3224.11 1428.66L3281.22 1423.37C3279.81 1415.07 3276.48 1408.9 3271.25 1404.85C3266 1400.64 3259.27 1398.91 3251.08 1399.67ZM3393.43 1493.91C3384.44 1494.74 3375.75 1494.57 3367.38 1493.4C3359.17 1492.22 3351.77 1490.15 3345.18 1487.2C3342.14 1485.86 3340 1484.6 3338.75 1483.42C3337.49 1482.07 3336.79 1480.6 3336.64 1478.99C3336.37 1476.1 3337.16 1472.38 3339.01 1467.84C3340.6 1463.96 3341.98 1461.41 3343.16 1460.16C3344.33 1458.76 3345.79 1457.97 3347.56 1457.81C3349.17 1457.66 3351.66 1458.32 3355.03 1459.79C3360.44 1462.21 3366.2 1464.02 3372.31 1465.24C3378.4 1466.3 3384.34 1466.56 3390.12 1466.02C3397.67 1465.32 3403.27 1463.67 3406.92 1461.06C3410.73 1458.44 3412.44 1455.04 3412.05 1450.87C3411.72 1447.33 3410.19 1444.8 3407.46 1443.27C3404.71 1441.58 3401.04 1440.46 3396.45 1439.92L3372.61 1437.02C3359.67 1435.46 3350.1 1431.89 3343.91 1426.31C3337.73 1420.73 3334.22 1413.44 3333.38 1404.44C3332.27 1392.39 3335.94 1382.25 3344.42 1374.01C3353.05 1365.76 3365.4 1360.89 3381.46 1359.4C3397.37 1357.93 3412.07 1360.13 3425.58 1366.01C3430.12 1367.86 3432.54 1370.31 3432.82 1373.36C3433.04 1375.77 3432.31 1379.16 3430.6 1383.53C3429.16 1387.23 3427.78 1389.78 3426.45 1391.2C3425.13 1392.62 3423.74 1393.4 3422.29 1393.53C3420.85 1393.67 3417.94 1392.88 3413.57 1391.18C3404.49 1387.65 3394.98 1386.34 3385.02 1387.26C3371.36 1388.53 3364.86 1392.69 3365.52 1399.76C3365.8 1402.82 3367.15 1405.12 3369.56 1406.68C3372.12 1408.06 3375.52 1408.96 3379.77 1409.38L3405.02 1411.66C3418.57 1412.83 3428.48 1416.61 3434.75 1423C3440.99 1429.23 3444.54 1436.92 3445.39 1446.08C3446.59 1459.09 3442.49 1469.92 3433.09 1478.57C3423.84 1487.2 3410.62 1492.31 3393.43 1493.91Z" fill="#373737" fill-opacity="0.75"/>
<path d="M3458.96 1144.59C3646.7 643.284 3567.35 436.626 3359.38 94.8084" stroke="#696969" stroke-width="62" stroke-linecap="round" stroke-dasharray="131 131"/>
<path d="M3464.78 124.703L3331.63 211.588C3306.9 227.727 3274.53 207.867 3277.71 178.506L3290.17 63.5003C3292.43 42.6177 3312.45 28.4178 3332.91 33.1843L3453.6 61.3044C3483.61 68.2976 3490.59 107.862 3464.78 124.703Z" fill="#696969" stroke="#696969" stroke-width="39"/>
</svg>
